<svg width="252" height="159" viewBox="0 0 252 159" fill="none" xmlns="http://www.w3.org/2000/svg">
<path d="M5.82225 32.5428H12.9671V114.53H5.82225V32.5428Z" fill="#5FB33E"/>
<path d="M31.8216 32.5428H38.9664V114.53H31.8216V32.5428Z" fill="#A6D16C"/>
<path d="M67.308 107.737C77.1467 107.737 88.5075 99.4208 88.5075 83.3746C88.5075 72.4822 84.0569 66.86 78.9035 63.3463L64.4971 80.7979V107.737H67.308ZM64.4971 39.3359V71.1939L81.0117 51.0485C83.0028 48.5885 84.4082 46.2461 84.4082 43.7865C84.4082 41.2098 82.7685 39.3359 77.6152 39.3359H64.4971ZM83.4713 57.7245C90.9675 63.4635 95.8866 70.2569 95.8866 83.2575C95.8866 98.3666 86.9849 114.53 65.1998 114.53H57.3526V32.5428H78.6693C87.2192 32.5428 91.5531 37.2273 91.5531 42.9667C91.5531 47.7687 88.9764 51.0485 85.2281 55.6163L83.4713 57.7245Z" fill="#6CB350"/>
<path d="M126.807 58.3101C131.843 52.1026 133.014 49.7601 133.014 45.4262C133.014 41.2098 130.32 39.3359 125.167 39.3359H113.337V74.7076L126.807 58.3101ZM131.023 62.8778L113.337 84.312V114.53H106.193V32.5428H125.05C135.474 32.5428 140.393 37.2273 140.393 44.4893C140.393 51.2827 137.817 54.5622 131.023 62.8778Z" fill="#6CB350"/>
<path d="M157.609 74.7072L171.078 58.3097C176.115 52.1022 177.286 49.7598 177.286 45.4262C177.286 41.2094 174.592 39.3355 169.439 39.3355H157.609V74.7072ZM164.87 75.527L157.609 84.3116V114.53H150.464V32.5424H169.321C179.745 32.5424 184.664 37.2273 184.664 45.0749C184.664 51.2823 182.088 54.5618 175.295 62.8778L170.024 69.3195L188.53 112.305L182.088 115.584L164.87 75.527Z" fill="#6CB350"/>
<path d="M30.3366 8.78418C30.3366 13.6356 26.4039 17.5684 21.5524 17.5684C16.701 17.5684 12.7683 13.6356 12.7683 8.78418C12.7683 3.93275 16.701 3.8147e-06 21.5524 3.8147e-06C26.4039 3.8147e-06 30.3366 3.93275 30.3366 8.78418Z" fill="#6CB350"/>
<path d="M206.02 69.7234C206.02 73.8673 202.661 77.2266 198.517 77.2266C194.373 77.2266 191.014 73.8673 191.014 69.7234C191.014 65.5795 194.373 62.2203 198.517 62.2203C202.661 62.2203 206.02 65.5795 206.02 69.7234Z" fill="#BAB2BA"/>
<path d="M1.05612 146.403C-2.42095 151.71 3.80118 150.978 3.80118 150.978C11.8533 147.318 47.7221 141.828 47.7221 141.828C116.165 129.749 144.348 145.488 144.348 145.488C191.563 168.546 225.053 154.089 225.053 154.089C225.053 154.089 239.693 147.135 247.745 139.448C255.797 131.762 247.745 133.592 247.745 133.592C232.373 150.795 215.17 149.331 215.17 149.331C215.17 149.331 185.158 151.161 140.139 134.69C129.958 130.966 117.271 129.525 103.73 129.525C57.3891 129.525 1.05612 146.403 1.05612 146.403Z" fill="url(#paint0_linear_819_361)"/>
<defs>
<linearGradient id="paint0_linear_819_361" x1="-4.25534e-08" y1="144.044" x2="251.324" y2="144.044" gradientUnits="userSpaceOnUse">
<stop stop-color="#BBB3BB"/>
<stop offset="0.252551" stop-color="#CAC1CB"/>
<stop offset="0.401405" stop-color="#DED5DF"/>
<stop offset="0.614614" stop-color="#B7B0B8"/>
<stop offset="1" stop-color="#BAB1BA"/>
</linearGradient>
</defs>
</svg>
