<svg xmlns="http://www.w3.org/2000/svg" xmlns:xlink="http://www.w3.org/1999/xlink" width="1920" zoomAndPan="magnify" viewBox="0 0 1440 809.999993" height="1080" preserveAspectRatio="xMidYMid meet" version="1.0"><defs><g/><clipPath id="id1"><path d="M 408.613281 370.878906 L 445.363281 370.878906 L 445.363281 407.628906 L 408.613281 407.628906 Z M 408.613281 370.878906 " clip-rule="nonzero"/></clipPath><clipPath id="id2"><path d="M 995.730469 370.878906 L 1032.480469 370.878906 L 1032.480469 407.628906 L 995.730469 407.628906 Z M 995.730469 370.878906 " clip-rule="nonzero"/></clipPath><clipPath id="id3"><path d="M 532.320312 232.730469 L 569.070312 232.730469 L 569.070312 269.480469 L 532.320312 269.480469 Z M 532.320312 232.730469 " clip-rule="nonzero"/></clipPath></defs><rect x="-144" width="1728" fill="#000000" y="-80.999999" height="971.999992" fill-opacity="1"/><rect x="-144" width="1728" fill="#ffffff" y="-80.999999" height="971.999992" fill-opacity="1"/><rect x="-144" width="1728" fill="#000000" y="-80.999999" height="971.999992" fill-opacity="1"/><g fill="#ffffff" fill-opacity="1"><g transform="translate(438.280585, 309.280136)"><g><path d="M 5.296875 -11.796875 L 2.296875 -2.890625 L 1.90625 -1.71875 L 0.71875 -2.125 L -0.234375 -2.4375 L -1.546875 -2.890625 L -2.578125 -3.234375 L -2.390625 -4.328125 L -1.96875 -6.1875 L -27.71875 -14.859375 L -28.4375 -13.375 L -28.9375 -12.40625 L -29.96875 -12.75 L -32.28125 -13.53125 L -33.46875 -13.921875 L -33.078125 -15.078125 L -30.234375 -23.515625 L -29.84375 -24.671875 L -28.65625 -24.28125 L -26.34375 -23.5 L -25.3125 -23.15625 L -25.5 -22.0625 L -25.84375 -20.453125 L -0.09375 -11.78125 L 0.703125 -13.484375 L 1.21875 -14.484375 L 2.25 -14.140625 L 4.515625 -13.375 L 5.703125 -12.96875 Z M 5.296875 -11.796875 "/></g></g></g><g fill="#ffffff" fill-opacity="1"><g transform="translate(447.049324, 284.116826)"><g><path d="M -19.15625 -17 C -19.351562 -19.269531 -19.109375 -21.273438 -18.421875 -23.015625 L -18.40625 -23.0625 C -17.945312 -24.0625 -17.484375 -24.914062 -17.015625 -25.625 C -16.546875 -26.34375 -16.035156 -26.941406 -15.484375 -27.421875 C -14.398438 -28.359375 -13.203125 -28.984375 -11.890625 -29.296875 C -10.492188 -29.640625 -8.90625 -29.40625 -7.125 -28.59375 L 9.578125 -20.953125 L 10.71875 -20.4375 L 10.203125 -19.3125 L 8.859375 -16.34375 L 8.34375 -15.234375 L 7.203125 -15.75 L -8.71875 -23.03125 C -9.5625 -23.414062 -10.253906 -23.546875 -10.796875 -23.421875 C -11.992188 -23.054688 -12.957031 -22.070312 -13.6875 -20.46875 C -14.207031 -19.132812 -14.484375 -17.632812 -14.515625 -15.96875 C -14.523438 -15.863281 -14.535156 -15.765625 -14.546875 -15.671875 C -14.554688 -15.578125 -14.554688 -15.484375 -14.546875 -15.390625 C -14.535156 -15.296875 -14.53125 -15.203125 -14.53125 -15.109375 C -14.53125 -15.023438 -14.535156 -14.945312 -14.546875 -14.875 L 3.109375 -6.8125 L 4.25 -6.296875 L 3.734375 -5.15625 L 2.390625 -2.21875 L 1.875 -1.078125 L 0.734375 -1.59375 L -21.9375 -11.96875 L -22.984375 -12.4375 L -22.609375 -13.515625 L -21.5 -16.578125 L -21.015625 -17.84375 L -19.796875 -17.28125 Z M -19.15625 -17 "/></g></g></g><g fill="#ffffff" fill-opacity="1"><g transform="translate(461.934676, 253.043969)"><g><path d="M -8.953125 -24.890625 C -9.816406 -24.160156 -10.742188 -22.96875 -11.734375 -21.3125 C -12.671875 -19.75 -13.113281 -18.421875 -13.0625 -17.328125 C -13.019531 -16.410156 -12.742188 -15.800781 -12.234375 -15.5 C -11.660156 -15.15625 -11.175781 -15.0625 -10.78125 -15.21875 C -10.113281 -15.476562 -9.425781 -15.898438 -8.71875 -16.484375 C -7.9375 -17.179688 -7.109375 -17.929688 -6.234375 -18.734375 C -5.773438 -19.179688 -5.289062 -19.597656 -4.78125 -19.984375 C -4.269531 -20.378906 -3.75 -20.726562 -3.21875 -21.03125 C -1.96875 -21.84375 -0.679688 -22.269531 0.640625 -22.3125 C 1.960938 -22.351562 3.226562 -22.015625 4.4375 -21.296875 C 6.789062 -19.890625 8.128906 -17.960938 8.453125 -15.515625 C 8.503906 -15.015625 8.519531 -14.519531 8.5 -14.03125 C 8.488281 -13.539062 8.421875 -13.039062 8.296875 -12.53125 C 8.179688 -12.019531 8.035156 -11.492188 7.859375 -10.953125 C 7.679688 -10.421875 7.460938 -9.882812 7.203125 -9.34375 C 6.941406 -8.8125 6.640625 -8.257812 6.296875 -7.6875 C 5.441406 -6.257812 4.472656 -4.972656 3.390625 -3.828125 C 2.242188 -2.617188 1.15625 -1.800781 0.125 -1.375 L -0.796875 -1.015625 L -1.359375 -1.796875 L -3.0625 -4.078125 L -4.109375 -5.46875 L -2.453125 -6 C -1.722656 -6.257812 -0.710938 -7.207031 0.578125 -8.84375 C 1.015625 -9.382812 1.410156 -9.957031 1.765625 -10.5625 C 2.535156 -11.84375 2.914062 -13.050781 2.90625 -14.1875 C 2.90625 -14.488281 2.859375 -14.765625 2.765625 -15.015625 C 2.671875 -15.265625 2.53125 -15.492188 2.34375 -15.703125 C 2.15625 -15.910156 1.90625 -16.109375 1.59375 -16.296875 C 1.082031 -16.609375 0.59375 -16.691406 0.125 -16.546875 C -0.5625 -16.296875 -1.269531 -15.890625 -2 -15.328125 C -2.40625 -15.015625 -2.804688 -14.671875 -3.203125 -14.296875 C -3.609375 -13.921875 -4.03125 -13.535156 -4.46875 -13.140625 C -5.375 -12.203125 -6.332031 -11.410156 -7.34375 -10.765625 C -8.414062 -10.054688 -9.535156 -9.601562 -10.703125 -9.40625 C -11.171875 -9.34375 -11.632812 -9.332031 -12.09375 -9.375 C -12.550781 -9.414062 -13 -9.519531 -13.4375 -9.6875 C -13.875 -9.851562 -14.320312 -10.070312 -14.78125 -10.34375 C -16.976562 -11.65625 -18.238281 -13.570312 -18.5625 -16.09375 C -18.875 -18.445312 -18.234375 -20.953125 -16.640625 -23.609375 C -16.265625 -24.234375 -15.828125 -24.863281 -15.328125 -25.5 C -14.898438 -26.082031 -14.5 -26.617188 -14.125 -27.109375 L -14.09375 -27.140625 L -12.734375 -28.765625 L -11.796875 -29.828125 L -10.84375 -28.796875 L -8.859375 -26.671875 L -7.96875 -25.734375 Z M -8.953125 -24.890625 "/></g></g></g><g fill="#ffffff" fill-opacity="1"><g transform="translate(478.167839, 226.999448)"><g><path d="M 9.078125 -12.328125 C 9.234375 -11.140625 8.75 -9.785156 7.625 -8.265625 C 6.101562 -6.203125 4.460938 -5.175781 2.703125 -5.1875 C 0.648438 -4.851562 -1.34375 -5.398438 -3.28125 -6.828125 L -14.640625 -15.1875 L -15.5625 -13.9375 L -16.421875 -12.765625 L -17.484375 -13.796875 L -19.53125 -15.875 L -20.25 -16.65625 L -19.625 -17.5 L -18.96875 -18.390625 L -21.9375 -20.578125 L -22.859375 -21.25 L -22.28125 -22.234375 L -20.59375 -25.03125 L -19.875 -26.15625 L -18.796875 -25.359375 L -15.578125 -23 L -12.890625 -26.65625 L -12.140625 -27.65625 L -11.140625 -26.90625 L -8.8125 -25.203125 L -7.8125 -24.453125 L -8.5625 -23.453125 L -11.25 -19.796875 L 0.75 -10.96875 C 1.289062 -10.570312 1.71875 -10.398438 2.03125 -10.453125 C 2.34375 -10.515625 2.707031 -10.828125 3.125 -11.390625 C 3.539062 -11.953125 3.867188 -12.675781 4.109375 -13.5625 L 4.484375 -14.96875 L 5.8125 -14.375 L 8.328125 -13.234375 L 8.9375 -12.984375 Z M 9.078125 -12.328125 "/></g></g></g><g fill="#ffffff" fill-opacity="1"><g transform="translate(494.116839, 206.17968)"><g><path d="M -13.4375 -22.953125 L 5.59375 -6.453125 L 6.53125 -5.640625 L 5.703125 -4.6875 L 3.59375 -2.25 L 2.765625 -1.296875 L 1.828125 -2.109375 L -17.015625 -18.4375 L -17.875 -19.1875 L -17.21875 -20.125 L -15.28125 -22.75 L -14.453125 -23.828125 Z M -21.78125 -22.90625 C -22.632812 -22.945312 -23.429688 -23.285156 -24.171875 -23.921875 C -24.910156 -24.566406 -25.320312 -25.320312 -25.40625 -26.1875 C -25.519531 -27.125 -25.242188 -27.984375 -24.578125 -28.765625 C -24.273438 -29.109375 -23.914062 -29.390625 -23.5 -29.609375 C -23.09375 -29.828125 -22.65625 -29.953125 -22.1875 -29.984375 C -21.71875 -30.015625 -21.257812 -29.945312 -20.8125 -29.78125 C -20.375 -29.613281 -19.960938 -29.363281 -19.578125 -29.03125 C -18.734375 -28.289062 -18.328125 -27.441406 -18.359375 -26.484375 C -18.367188 -25.609375 -18.691406 -24.804688 -19.328125 -24.078125 C -20.023438 -23.265625 -20.84375 -22.875 -21.78125 -22.90625 Z M -21.78125 -22.90625 "/></g></g></g><g fill="#ffffff" fill-opacity="1"><g transform="translate(507.778387, 190.829439)"><g><path d="M 10.90625 -10.734375 C 10.875 -9.535156 10.1875 -8.273438 8.84375 -6.953125 C 7.007812 -5.148438 5.226562 -4.398438 3.5 -4.703125 C 1.40625 -4.691406 -0.476562 -5.539062 -2.15625 -7.25 L -12.0625 -17.3125 L -13.171875 -16.234375 L -14.203125 -15.21875 L -15.078125 -16.390625 L -16.78125 -18.765625 L -17.390625 -19.625 L -16.640625 -20.359375 L -15.84375 -21.140625 L -18.421875 -23.78125 L -19.21875 -24.59375 L -18.484375 -25.46875 L -16.390625 -27.953125 L -15.5 -28.96875 L -14.5625 -28.015625 L -11.765625 -25.171875 L -8.53125 -28.34375 L -7.640625 -29.21875 L -6.765625 -28.328125 L -4.734375 -26.28125 L -3.859375 -25.390625 L -4.75 -24.515625 L -7.984375 -21.34375 L 2.484375 -10.71875 C 2.941406 -10.238281 3.332031 -10 3.65625 -10 C 3.976562 -10.007812 4.382812 -10.257812 4.875 -10.75 C 5.375 -11.238281 5.8125 -11.90625 6.1875 -12.75 L 6.78125 -14.09375 L 8 -13.265625 L 10.328125 -11.765625 L 10.890625 -11.421875 Z M 10.90625 -10.734375 "/></g></g></g><g fill="#ffffff" fill-opacity="1"><g transform="translate(526.372184, 172.865341)"><g><path d="M 4.953125 -9.53125 C 5.566406 -9.757812 6.425781 -10.3125 7.53125 -11.1875 C 7.90625 -11.5 8.300781 -11.925781 8.71875 -12.46875 C 9.144531 -13.019531 9.570312 -13.675781 10 -14.4375 C 10.03125 -14.539062 10.078125 -14.648438 10.140625 -14.765625 C 10.203125 -14.878906 10.257812 -14.992188 10.3125 -15.109375 C 10.375 -15.222656 10.4375 -15.320312 10.5 -15.40625 L -1.640625 -30.609375 L -2.359375 -31.5 L -1.53125 -32.28125 L 0.828125 -34.515625 L 1.828125 -35.421875 L 2.671875 -34.375 L 18.390625 -14.703125 L 19.171875 -13.734375 L 18.203125 -12.953125 L 15.65625 -10.921875 L 14.703125 -10.15625 L 13.921875 -11.125 L 13.703125 -11.390625 C 12.816406 -9.191406 11.539062 -7.425781 9.875 -6.09375 C 7.070312 -3.851562 4.316406 -3.078125 1.609375 -3.765625 C 0.191406 -4.085938 -1.128906 -5.015625 -2.359375 -6.546875 L -13.8125 -20.890625 L -14.53125 -21.78125 L -13.6875 -22.5625 L -11.3125 -24.796875 L -10.328125 -25.703125 L -9.484375 -24.65625 L 1.59375 -10.796875 C 2.53125 -9.617188 3.648438 -9.195312 4.953125 -9.53125 Z M 4.953125 -9.53125 "/></g></g></g><g fill="#ffffff" fill-opacity="1"><g transform="translate(554.199187, 151.542235)"><g><path d="M 12.875 -8.28125 C 12.601562 -7.113281 11.671875 -6.019531 10.078125 -5 C 7.921875 -3.613281 6.019531 -3.238281 4.375 -3.875 C 2.332031 -4.3125 0.664062 -5.535156 -0.625 -7.546875 L -8.265625 -19.421875 L -9.5625 -18.578125 L -10.796875 -17.796875 L -11.40625 -19.125 L -12.578125 -21.8125 L -12.984375 -22.78125 L -12.109375 -23.34375 L -11.171875 -23.953125 L -13.171875 -27.0625 L -13.78125 -28.015625 L -12.890625 -28.71875 L -10.3125 -30.734375 L -9.21875 -31.53125 L -8.5 -30.40625 L -6.34375 -27.046875 L -2.53125 -29.5 L -1.484375 -30.171875 L -0.8125 -29.125 L 0.75 -26.6875 L 1.421875 -25.640625 L 0.375 -24.96875 L -3.4375 -22.515625 L 4.625 -9.96875 C 4.988281 -9.40625 5.328125 -9.09375 5.640625 -9.03125 C 5.953125 -8.976562 6.398438 -9.140625 6.984375 -9.515625 C 7.566406 -9.890625 8.128906 -10.453125 8.671875 -11.203125 L 9.515625 -12.390625 L 10.546875 -11.34375 L 12.515625 -9.390625 L 13 -8.9375 Z M 12.875 -8.28125 "/></g></g></g><g fill="#ffffff" fill-opacity="1"><g transform="translate(575.983078, 137.747094)"><g><path d="M -0.640625 -6.3125 C -1.335938 -6.96875 -1.984375 -7.707031 -2.578125 -8.53125 C -3.171875 -9.351562 -3.71875 -10.265625 -4.21875 -11.265625 C -6.195312 -15.222656 -6.644531 -18.925781 -5.5625 -22.375 C -4.457031 -25.820312 -2.191406 -28.40625 1.234375 -30.125 C 3.847656 -31.425781 6.332031 -31.96875 8.6875 -31.75 C 11.039062 -31.53125 13.1875 -30.546875 15.125 -28.796875 C 16.519531 -27.554688 17.726562 -25.910156 18.75 -23.859375 C 20.726562 -19.898438 21.160156 -16.195312 20.046875 -12.75 C 18.921875 -9.28125 16.664062 -6.703125 13.28125 -5.015625 C 10.65625 -3.703125 8.15625 -3.148438 5.78125 -3.359375 C 3.40625 -3.578125 1.265625 -4.5625 -0.640625 -6.3125 Z M 5.359375 -9.46875 C 7.179688 -8.78125 9.046875 -8.910156 10.953125 -9.859375 C 12.859375 -10.816406 14.109375 -12.300781 14.703125 -14.3125 C 15.304688 -16.320312 15 -18.546875 13.78125 -20.984375 C 12.5625 -23.421875 11.035156 -24.988281 9.203125 -25.6875 C 7.367188 -26.351562 5.488281 -26.207031 3.5625 -25.25 C 1.644531 -24.289062 0.390625 -22.8125 -0.203125 -20.8125 C -0.785156 -18.800781 -0.472656 -16.578125 0.734375 -14.140625 C 1.953125 -11.703125 3.492188 -10.144531 5.359375 -9.46875 Z M 5.359375 -9.46875 "/></g></g></g><g fill="#ffffff" fill-opacity="1"><g transform="translate(610.269553, 121.567303)"><g/></g></g><g fill="#ffffff" fill-opacity="1"><g transform="translate(633.302273, 113.333372)"><g><path d="M 12.734375 -2.25 L 3.6875 0.265625 L 2.5 0.59375 L 2.171875 -0.609375 L 1.90625 -1.578125 L 1.53125 -2.90625 L 1.234375 -3.96875 L 2.25 -4.390625 L 4.015625 -5.109375 L -3.265625 -31.28125 L -4.890625 -31.046875 L -6 -30.90625 L -6.296875 -31.953125 L -6.9375 -34.296875 L -7.28125 -35.5 L -6.09375 -35.828125 L 2.46875 -38.203125 L 3.671875 -38.546875 L 4.015625 -37.34375 L 4.65625 -35 L 4.953125 -33.953125 L 3.9375 -33.5 L 2.40625 -32.859375 L 9.6875 -6.6875 L 11.578125 -6.984375 L 12.65625 -7.140625 L 12.953125 -6.078125 L 13.59375 -3.78125 L 13.921875 -2.578125 Z M 12.734375 -2.25 "/></g></g></g><g fill="#ffffff" fill-opacity="1"><g transform="translate(659.294488, 106.568503)"><g><path d="M 15.0625 -2.765625 C 14.351562 -1.785156 13.066406 -1.125 11.203125 -0.78125 C 8.679688 -0.320312 6.789062 -0.703125 5.53125 -1.921875 C 3.789062 -3.097656 2.707031 -4.863281 2.28125 -7.21875 L -0.265625 -21.09375 L -1.78125 -20.8125 L -3.21875 -20.546875 L -3.28125 -22.03125 L -3.34375 -24.953125 L -3.34375 -26 L -2.328125 -26.1875 L -1.234375 -26.390625 L -1.90625 -30.03125 L -2.109375 -31.140625 L -1 -31.453125 L 2.140625 -32.34375 L 3.4375 -32.671875 L 3.6875 -31.34375 L 4.40625 -27.421875 L 8.859375 -28.25 L 10.09375 -28.46875 L 10.3125 -27.25 L 10.828125 -24.40625 L 11.0625 -23.171875 L 9.828125 -22.953125 L 5.375 -22.125 L 8.0625 -7.46875 C 8.1875 -6.8125 8.378906 -6.394531 8.640625 -6.21875 C 8.910156 -6.050781 9.382812 -6.03125 10.0625 -6.15625 C 10.75 -6.28125 11.488281 -6.582031 12.28125 -7.0625 L 13.53125 -7.84375 L 14.078125 -6.484375 L 15.15625 -3.9375 L 15.40625 -3.328125 Z M 15.0625 -2.765625 "/></g></g></g><g fill="#ffffff" fill-opacity="1"><g transform="translate(684.842129, 102.188096)"><g><path d="M 0.078125 -23.4375 C 3.691406 -25.632812 6.945312 -26.898438 9.84375 -27.234375 C 12.207031 -27.421875 14.078125 -27.257812 15.453125 -26.75 C 15.921875 -26.601562 16.367188 -26.410156 16.796875 -26.171875 C 17.222656 -25.941406 17.613281 -25.671875 17.96875 -25.359375 C 18.332031 -25.054688 18.675781 -24.71875 19 -24.34375 C 20 -23.21875 20.582031 -21.648438 20.75 -19.640625 L 22.21875 -1.84375 L 22.328125 -0.59375 L 21.078125 -0.484375 L 17.859375 -0.21875 L 16.609375 -0.125 L 16.5 -1.375 L 16.484375 -1.578125 C 12.835938 -0.160156 10.382812 0.597656 9.125 0.703125 L 8.96875 0.71875 C 5.519531 1.007812 3.046875 0.09375 1.546875 -2.03125 C 0.972656 -2.8125 0.617188 -3.613281 0.484375 -4.4375 C 0.367188 -5.101562 0.289062 -5.664062 0.25 -6.125 C 0.125 -7.644531 0.585938 -9.050781 1.640625 -10.34375 C 2.128906 -10.945312 2.6875 -11.457031 3.3125 -11.875 C 3.945312 -12.300781 4.640625 -12.644531 5.390625 -12.90625 C 6.421875 -13.25 7.769531 -13.613281 9.4375 -14 C 11.101562 -14.394531 13.078125 -14.789062 15.359375 -15.1875 L 15.109375 -18.078125 C 14.992188 -19.566406 14.578125 -20.601562 13.859375 -21.1875 C 13.140625 -21.78125 11.96875 -22.007812 10.34375 -21.875 C 7.882812 -21.675781 5.242188 -20.722656 2.421875 -19.015625 L 1.234375 -18.28125 L 0.671875 -19.53125 L -0.40625 -21.828125 L -0.890625 -22.84375 Z M 5.796875 -6.1875 C 5.859375 -5.382812 6.160156 -4.8125 6.703125 -4.46875 C 7.242188 -4.132812 8.226562 -4.03125 9.65625 -4.15625 C 11.84375 -4.332031 13.992188 -4.945312 16.109375 -6 L 15.71875 -10.8125 C 11.5 -9.832031 8.890625 -9.128906 7.890625 -8.703125 C 7.046875 -8.359375 6.472656 -7.992188 6.171875 -7.609375 C 5.867188 -7.222656 5.742188 -6.75 5.796875 -6.1875 Z M 5.796875 -6.1875 "/></g></g></g><g fill="#ffffff" fill-opacity="1"><g transform="translate(717.370874, 100.21446)"><g><path d="M 2.25 0.015625 L 2.375 -37.140625 L 2.390625 -38.28125 L 3.53125 -38.390625 L 6.78125 -38.640625 L 8.125 -38.71875 L 8.109375 -37.375 L 7.984375 0.03125 L 7.984375 1.28125 L 6.734375 1.28125 L 3.484375 1.265625 L 2.25 1.265625 Z M 2.25 0.015625 "/></g></g></g><g fill="#ffffff" fill-opacity="1"><g transform="translate(735.534205, 100.252713)"><g><path d="M 2.8125 -5.6875 C 2.570312 -6.613281 2.421875 -7.582031 2.359375 -8.59375 C 2.296875 -9.601562 2.320312 -10.664062 2.4375 -11.78125 C 2.863281 -16.1875 4.457031 -19.554688 7.21875 -21.890625 C 10 -24.222656 13.289062 -25.203125 17.09375 -24.828125 C 20.007812 -24.535156 22.40625 -23.664062 24.28125 -22.21875 C 26.15625 -20.78125 27.441406 -18.804688 28.140625 -16.296875 C 28.660156 -14.515625 28.804688 -12.484375 28.578125 -10.203125 C 28.140625 -5.796875 26.535156 -2.425781 23.765625 -0.09375 C 20.960938 2.238281 17.675781 3.21875 13.90625 2.84375 C 10.988281 2.550781 8.582031 1.679688 6.6875 0.234375 C 4.789062 -1.203125 3.5 -3.175781 2.8125 -5.6875 Z M 9.578125 -5.15625 C 10.765625 -3.601562 12.414062 -2.722656 14.53125 -2.515625 C 16.65625 -2.304688 18.5 -2.894531 20.0625 -4.28125 C 21.644531 -5.65625 22.566406 -7.695312 22.828125 -10.40625 C 23.097656 -13.125 22.644531 -15.265625 21.46875 -16.828125 C 20.28125 -18.367188 18.617188 -19.242188 16.484375 -19.453125 C 14.347656 -19.671875 12.492188 -19.085938 10.921875 -17.703125 C 9.359375 -16.328125 8.441406 -14.28125 8.171875 -11.5625 C 7.898438 -8.851562 8.367188 -6.71875 9.578125 -5.15625 Z M 9.578125 -5.15625 "/></g></g></g><g fill="#ffffff" fill-opacity="1"><g transform="translate(773.169054, 104.833661)"><g/></g></g><g fill="#ffffff" fill-opacity="1"><g transform="translate(796.868199, 109.92583)"><g><path d="M 25.734375 -13.328125 C 28.203125 -10.640625 28.742188 -7.109375 27.359375 -2.734375 C 26.578125 -0.253906 25.679688 1.609375 24.671875 2.859375 C 24.128906 3.460938 23.546875 3.984375 22.921875 4.421875 C 22.296875 4.867188 21.625 5.222656 20.90625 5.484375 C 19.625 5.929688 18.164062 6.085938 16.53125 5.953125 C 14.894531 5.816406 13.066406 5.425781 11.046875 4.78125 L 3.1875 2.3125 L 2.015625 1.9375 L 2.390625 0.75 L 12.875 -32.546875 L 13.265625 -33.734375 L 14.4375 -33.359375 L 21.578125 -31.109375 C 27.054688 -29.378906 30.109375 -26.796875 30.734375 -23.359375 C 30.960938 -22.109375 30.847656 -20.753906 30.390625 -19.296875 C 30.160156 -18.566406 29.832031 -17.859375 29.40625 -17.171875 C 28.988281 -16.484375 28.488281 -15.828125 27.90625 -15.203125 C 27.789062 -15.097656 27.6875 -15 27.59375 -14.90625 C 27.507812 -14.820312 27.410156 -14.722656 27.296875 -14.609375 C 27.191406 -14.503906 27.085938 -14.40625 26.984375 -14.3125 C 26.890625 -14.21875 26.785156 -14.128906 26.671875 -14.046875 C 26.566406 -13.960938 26.460938 -13.875 26.359375 -13.78125 C 26.253906 -13.6875 26.144531 -13.601562 26.03125 -13.53125 C 25.925781 -13.46875 25.828125 -13.398438 25.734375 -13.328125 Z M 13.046875 -13.5625 L 9.1875 -1.28125 L 12.375 -0.28125 C 15.113281 0.582031 17.078125 0.835938 18.265625 0.484375 C 19.679688 0.078125 20.78125 -1.359375 21.5625 -3.828125 C 21.9375 -5.023438 22.117188 -6.085938 22.109375 -7.015625 C 22.097656 -7.941406 21.925781 -8.707031 21.59375 -9.3125 C 21.269531 -9.925781 20.773438 -10.457031 20.109375 -10.90625 C 19.367188 -11.425781 18.476562 -11.851562 17.4375 -12.1875 Z M 21.40625 -16.328125 C 22.257812 -16.960938 22.945312 -17.625 23.46875 -18.3125 C 23.988281 -19 24.367188 -19.722656 24.609375 -20.484375 C 25.078125 -21.972656 24.976562 -23.085938 24.3125 -23.828125 C 23.425781 -24.722656 21.910156 -25.507812 19.765625 -26.1875 L 17.28125 -26.96875 L 14.625 -18.5625 L 19.25 -17.109375 C 19.40625 -17.054688 19.554688 -17.003906 19.703125 -16.953125 C 19.847656 -16.910156 19.992188 -16.859375 20.140625 -16.796875 C 20.285156 -16.734375 20.429688 -16.675781 20.578125 -16.625 C 20.722656 -16.582031 20.863281 -16.53125 21 -16.46875 C 21.144531 -16.40625 21.28125 -16.359375 21.40625 -16.328125 Z M 21.40625 -16.328125 "/></g></g></g><g fill="#ffffff" fill-opacity="1"><g transform="translate(830.525912, 121.288805)"><g><path d="M 22.25 -12.515625 C 21.988281 -12.835938 21.691406 -13.066406 21.359375 -13.203125 C 21.117188 -13.304688 20.921875 -13.394531 20.765625 -13.46875 L 20.703125 -13.453125 L 20.421875 -13.578125 C 20.210938 -13.671875 19.984375 -13.742188 19.734375 -13.796875 C 19.484375 -13.847656 19.226562 -13.882812 18.96875 -13.90625 C 18.707031 -13.9375 18.414062 -13.9375 18.09375 -13.90625 C 17.78125 -13.882812 17.460938 -13.835938 17.140625 -13.765625 C 16.984375 -13.710938 16.820312 -13.664062 16.65625 -13.625 C 16.488281 -13.59375 16.328125 -13.5625 16.171875 -13.53125 C 15.253906 -13.269531 14.40625 -12.945312 13.625 -12.5625 L 6.859375 2.984375 L 6.359375 4.125 L 5.21875 3.625 L 2.25 2.34375 L 1.109375 1.84375 L 1.609375 0.703125 L 11.5625 -22.15625 L 12.015625 -23.203125 L 13.109375 -22.859375 L 16.171875 -21.78125 L 17.453125 -21.34375 L 16.90625 -20.109375 L 16 -18 C 16.519531 -18.207031 17 -18.363281 17.4375 -18.46875 C 19.582031 -18.976562 21.46875 -18.9375 23.09375 -18.34375 C 23.351562 -18.257812 23.726562 -18.109375 24.21875 -17.890625 C 24.800781 -17.640625 25.535156 -17.164062 26.421875 -16.46875 L 27.484375 -15.5625 L 26.46875 -14.59375 L 24.09375 -12.375 L 23.09375 -11.4375 Z M 22.25 -12.515625 "/></g></g></g><g fill="#ffffff" fill-opacity="1"><g transform="translate(854.830399, 132.216267)"><g><path d="M 13.15625 -19.390625 C 17.382812 -19.191406 20.796875 -18.421875 23.390625 -17.078125 C 25.453125 -15.921875 26.910156 -14.742188 27.765625 -13.546875 C 28.078125 -13.148438 28.34375 -12.738281 28.5625 -12.3125 C 28.78125 -11.882812 28.953125 -11.441406 29.078125 -10.984375 C 29.203125 -10.535156 29.296875 -10.0625 29.359375 -9.5625 C 29.554688 -8.082031 29.160156 -6.457031 28.171875 -4.6875 L 19.453125 10.890625 L 18.84375 11.984375 L 17.75 11.375 L 14.9375 9.796875 L 13.84375 9.1875 L 14.453125 8.09375 L 14.546875 7.921875 C 10.734375 7.046875 8.273438 6.296875 7.171875 5.671875 L 7.046875 5.59375 C 4.023438 3.90625 2.476562 1.765625 2.40625 -0.828125 C 2.375 -1.785156 2.53125 -2.648438 2.875 -3.421875 C 3.15625 -4.035156 3.40625 -4.539062 3.625 -4.9375 C 4.375 -6.28125 5.550781 -7.1875 7.15625 -7.65625 C 7.882812 -7.882812 8.628906 -8 9.390625 -8 C 10.148438 -8 10.910156 -7.898438 11.671875 -7.703125 C 12.734375 -7.398438 14.0625 -6.941406 15.65625 -6.328125 C 17.257812 -5.722656 19.113281 -4.945312 21.21875 -4 L 22.640625 -6.53125 C 23.367188 -7.832031 23.597656 -8.929688 23.328125 -9.828125 C 23.066406 -10.722656 22.226562 -11.566406 20.8125 -12.359375 C 18.65625 -13.566406 15.925781 -14.25 12.625 -14.40625 L 11.25 -14.453125 L 11.484375 -15.8125 L 11.875 -18.34375 L 12.03125 -19.453125 Z M 8.265625 -1.90625 C 7.867188 -1.195312 7.800781 -0.550781 8.0625 0.03125 C 8.332031 0.613281 9.09375 1.253906 10.34375 1.953125 C 12.257812 3.023438 14.382812 3.722656 16.71875 4.046875 L 19.078125 -0.171875 C 15.023438 -1.710938 12.46875 -2.59375 11.40625 -2.8125 C 10.519531 -3 9.84375 -3.015625 9.375 -2.859375 C 8.90625 -2.710938 8.535156 -2.394531 8.265625 -1.90625 Z M 8.265625 -1.90625 "/></g></g></g><g fill="#ffffff" fill-opacity="1"><g transform="translate(882.720908, 148.45341)"><g><path d="M 25.5 -6.984375 C 24.832031 -7.898438 23.710938 -8.914062 22.140625 -10.03125 C 20.660156 -11.082031 19.378906 -11.625 18.296875 -11.65625 C 17.378906 -11.695312 16.75 -11.472656 16.40625 -10.984375 C 16.019531 -10.441406 15.890625 -9.96875 16.015625 -9.5625 C 16.210938 -8.882812 16.582031 -8.171875 17.125 -7.421875 C 17.75 -6.578125 18.425781 -5.6875 19.15625 -4.75 C 19.570312 -4.257812 19.957031 -3.742188 20.3125 -3.203125 C 20.664062 -2.671875 20.972656 -2.128906 21.234375 -1.578125 C 21.929688 -0.265625 22.25 1.050781 22.1875 2.375 C 22.132812 3.695312 21.703125 4.929688 20.890625 6.078125 C 19.296875 8.316406 17.269531 9.503906 14.8125 9.640625 C 14.3125 9.660156 13.816406 9.640625 13.328125 9.578125 C 12.835938 9.523438 12.34375 9.421875 11.84375 9.265625 C 11.34375 9.109375 10.832031 8.914062 10.3125 8.6875 C 9.800781 8.46875 9.285156 8.207031 8.765625 7.90625 C 8.242188 7.601562 7.710938 7.257812 7.171875 6.875 C 5.816406 5.90625 4.613281 4.84375 3.5625 3.6875 C 2.4375 2.445312 1.703125 1.296875 1.359375 0.234375 L 1.078125 -0.71875 L 1.90625 -1.21875 L 4.3125 -2.734375 L 5.765625 -3.65625 L 6.171875 -1.984375 C 6.367188 -1.234375 7.234375 -0.148438 8.765625 1.265625 C 9.273438 1.742188 9.8125 2.1875 10.375 2.59375 C 11.601562 3.457031 12.785156 3.925781 13.921875 4 C 14.222656 4.019531 14.5 3.992188 14.75 3.921875 C 15.007812 3.859375 15.25 3.738281 15.46875 3.5625 C 15.6875 3.394531 15.90625 3.160156 16.125 2.859375 C 16.46875 2.378906 16.585938 1.898438 16.484375 1.421875 C 16.296875 0.710938 15.945312 -0.0234375 15.4375 -0.796875 C 15.164062 -1.234375 14.851562 -1.664062 14.5 -2.09375 C 14.15625 -2.519531 13.804688 -2.960938 13.453125 -3.421875 C 12.585938 -4.398438 11.875 -5.414062 11.3125 -6.46875 C 10.6875 -7.613281 10.320312 -8.769531 10.21875 -9.9375 C 10.1875 -10.40625 10.207031 -10.867188 10.28125 -11.328125 C 10.363281 -11.785156 10.503906 -12.222656 10.703125 -12.640625 C 10.910156 -13.066406 11.164062 -13.5 11.46875 -13.9375 C 12.957031 -16.019531 14.960938 -17.125 17.484375 -17.25 C 19.859375 -17.375 22.304688 -16.539062 24.828125 -14.75 C 25.421875 -14.332031 26.015625 -13.847656 26.609375 -13.296875 C 27.171875 -12.828125 27.675781 -12.382812 28.125 -11.96875 L 28.171875 -11.9375 L 29.671875 -10.453125 L 30.65625 -9.4375 L 29.5625 -8.578125 L 27.28125 -6.75 L 26.28125 -5.953125 Z M 25.5 -6.984375 "/></g></g></g><g fill="#ffffff" fill-opacity="1"><g transform="translate(907.498957, 166.806479)"><g><path d="M 22.796875 -13.6875 L 6.5 5.515625 L 5.6875 6.46875 L 4.734375 5.671875 L 2.265625 3.578125 L 1.3125 2.765625 L 2.125 1.8125 L 18.265625 -17.203125 L 19 -18.078125 L 19.9375 -17.421875 L 22.59375 -15.5 L 23.671875 -14.71875 Z M 22.6875 -22.03125 C 22.71875 -22.875 23.046875 -23.664062 23.671875 -24.40625 C 24.304688 -25.164062 25.054688 -25.59375 25.921875 -25.6875 C 26.859375 -25.800781 27.71875 -25.523438 28.5 -24.859375 C 28.851562 -24.566406 29.140625 -24.21875 29.359375 -23.8125 C 29.578125 -23.40625 29.707031 -22.972656 29.75 -22.515625 C 29.789062 -22.035156 29.726562 -21.570312 29.5625 -21.125 C 29.394531 -20.675781 29.148438 -20.257812 28.828125 -19.875 C 28.097656 -19.019531 27.253906 -18.601562 26.296875 -18.625 C 25.421875 -18.632812 24.613281 -18.953125 23.875 -19.578125 C 23.0625 -20.265625 22.664062 -21.082031 22.6875 -22.03125 Z M 22.6875 -22.03125 "/></g></g></g><g fill="#ffffff" fill-opacity="1"><g transform="translate(923.080719, 180.510034)"><g><path d="M 1.609375 1.5625 L 27.484375 -25.109375 L 28.28125 -25.921875 L 29.1875 -25.203125 L 31.6875 -23.109375 L 32.71875 -22.25 L 31.78125 -21.28125 L 5.734375 5.5625 L 4.859375 6.453125 L 3.953125 5.578125 L 1.625 3.3125 L 0.734375 2.453125 Z M 1.609375 1.5625 "/></g></g></g><g fill="#ffffff" fill-opacity="1"><g transform="translate(936.13432, 193.242226)"><g><path d="M 13.421875 -1.984375 C 11.398438 -0.253906 10.304688 1.421875 10.140625 3.046875 C 9.984375 4.679688 10.71875 6.441406 12.34375 8.328125 C 13.789062 10.015625 15.34375 11.359375 17 12.359375 C 17.1875 12.460938 17.359375 12.554688 17.515625 12.640625 C 17.671875 12.722656 17.769531 12.789062 17.8125 12.84375 L 19.203125 13.40625 L 18.375 14.65625 L 16.875 16.9375 L 16.3125 17.75 L 15.453125 17.453125 C 13.972656 16.953125 12.046875 15.570312 9.671875 13.3125 C 9.347656 12.976562 9.023438 12.644531 8.703125 12.3125 C 8.378906 11.976562 8.054688 11.617188 7.734375 11.234375 C 5.742188 8.921875 4.65625 6.457031 4.46875 3.84375 C 4.21875 0.257812 5.929688 -3.109375 9.609375 -6.265625 C 11.367188 -7.785156 13.160156 -8.910156 14.984375 -9.640625 C 16.804688 -10.378906 18.644531 -10.691406 20.5 -10.578125 C 24.144531 -10.378906 27.15625 -8.894531 29.53125 -6.125 C 31.945312 -3.320312 32.84375 -0.378906 32.21875 2.703125 C 31.695312 5.035156 30.28125 7.195312 27.96875 9.1875 C 27.4375 9.644531 26.859375 10.097656 26.234375 10.546875 L 25.28125 11.21875 L 24.546875 10.34375 L 13.71875 -2.25 Z M 25.421875 -2.3125 C 24.273438 -3.644531 22.898438 -4.4375 21.296875 -4.6875 C 20.222656 -4.851562 19.117188 -4.804688 17.984375 -4.546875 L 25.359375 4.03125 C 25.765625 3.59375 26.085938 3.148438 26.328125 2.703125 C 26.578125 2.265625 26.726562 1.84375 26.78125 1.4375 C 26.84375 1.03125 26.835938 0.628906 26.765625 0.234375 C 26.703125 -0.160156 26.5625 -0.550781 26.34375 -0.9375 L 26.3125 -0.984375 L 26.28125 -1.015625 C 26.1875 -1.242188 26.0625 -1.460938 25.90625 -1.671875 C 25.757812 -1.890625 25.597656 -2.101562 25.421875 -2.3125 Z M 25.421875 -2.3125 "/></g></g></g><g fill="#ffffff" fill-opacity="1"><g transform="translate(958.44132, 220.408811)"><g><path d="M 25.484375 -7.578125 L 4.921875 6.96875 L 3.90625 7.6875 L 3.1875 6.65625 L 1.328125 4.015625 L 0.59375 3 L 1.609375 2.28125 L 21.96875 -12.125 L 22.890625 -12.78125 L 23.65625 -11.90625 L 25.734375 -9.40625 L 26.578125 -8.359375 Z M 27.453125 -15.703125 C 27.679688 -16.503906 28.191406 -17.1875 28.984375 -17.75 C 29.796875 -18.320312 30.628906 -18.550781 31.484375 -18.4375 C 32.421875 -18.320312 33.191406 -17.84375 33.796875 -17 C 34.054688 -16.625 34.242188 -16.210938 34.359375 -15.765625 C 34.472656 -15.328125 34.488281 -14.875 34.40625 -14.40625 C 34.332031 -13.9375 34.15625 -13.503906 33.875 -13.109375 C 33.601562 -12.710938 33.265625 -12.367188 32.859375 -12.078125 C 31.941406 -11.429688 31.019531 -11.242188 30.09375 -11.515625 C 29.25 -11.734375 28.550781 -12.238281 28 -13.03125 C 27.382812 -13.894531 27.203125 -14.785156 27.453125 -15.703125 Z M 27.453125 -15.703125 "/></g></g></g><g fill="#ffffff" fill-opacity="1"><g transform="translate(970.088841, 237.316485)"><g><path d="M 25.359375 2.875 C 25.335938 2.457031 25.234375 2.09375 25.046875 1.78125 C 24.921875 1.550781 24.8125 1.367188 24.71875 1.234375 L 24.65625 1.1875 L 24.515625 0.9375 C 24.398438 0.738281 24.253906 0.546875 24.078125 0.359375 C 23.910156 0.171875 23.726562 -0.0078125 23.53125 -0.1875 C 23.332031 -0.363281 23.09375 -0.53125 22.8125 -0.6875 C 22.539062 -0.851562 22.253906 -1.003906 21.953125 -1.140625 C 21.796875 -1.191406 21.640625 -1.25 21.484375 -1.3125 C 21.328125 -1.375 21.175781 -1.441406 21.03125 -1.515625 C 20.132812 -1.835938 19.253906 -2.070312 18.390625 -2.21875 L 3.8125 6.4375 L 2.734375 7.078125 L 2.109375 6 L 0.453125 3.21875 L -0.1875 2.140625 L 0.890625 1.5 L 22.34375 -11.21875 L 23.3125 -11.8125 L 23.984375 -10.875 L 25.875 -8.203125 L 26.625 -7.09375 L 25.46875 -6.421875 L 23.5 -5.25 C 24.050781 -5.101562 24.535156 -4.941406 24.953125 -4.765625 C 26.992188 -3.929688 28.5 -2.796875 29.46875 -1.359375 C 29.625 -1.148438 29.835938 -0.816406 30.109375 -0.359375 C 30.429688 0.191406 30.75 1.015625 31.0625 2.109375 L 31.390625 3.46875 L 30.015625 3.65625 L 26.765625 4.0625 L 25.40625 4.234375 Z M 25.359375 2.875 "/></g></g></g><g fill="#ffffff" fill-opacity="1"><g transform="translate(983.452328, 260.213584)"><g><path d="M 6.34375 -0.40625 C 7.007812 -1.082031 7.765625 -1.703125 8.609375 -2.265625 C 9.453125 -2.828125 10.382812 -3.34375 11.40625 -3.8125 C 15.4375 -5.644531 19.15625 -5.953125 22.5625 -4.734375 C 25.976562 -3.503906 28.476562 -1.144531 30.0625 2.34375 C 31.269531 5 31.71875 7.503906 31.40625 9.859375 C 31.09375 12.210938 30.03125 14.316406 28.21875 16.171875 C 26.925781 17.523438 25.238281 18.675781 23.15625 19.625 C 19.125 21.445312 15.40625 21.738281 12 20.5 C 8.570312 19.25 6.078125 16.894531 4.515625 13.4375 C 3.296875 10.769531 2.835938 8.253906 3.140625 5.890625 C 3.441406 3.535156 4.507812 1.4375 6.34375 -0.40625 Z M 9.265625 5.703125 C 8.515625 7.503906 8.578125 9.375 9.453125 11.3125 C 10.335938 13.25 11.769531 14.550781 13.75 15.21875 C 15.75 15.894531 17.988281 15.671875 20.46875 14.546875 C 22.945312 13.421875 24.566406 11.953125 25.328125 10.140625 C 26.078125 8.335938 26.003906 6.457031 25.109375 4.5 C 24.222656 2.539062 22.789062 1.234375 20.8125 0.578125 C 18.820312 -0.0859375 16.585938 0.140625 14.109375 1.265625 C 11.628906 2.390625 10.015625 3.867188 9.265625 5.703125 Z M 9.265625 5.703125 "/></g></g></g><g fill="#ffffff" fill-opacity="1"><g transform="translate(998.361732, 295.069545)"><g/></g></g><g fill="#ffffff" fill-opacity="1"><g transform="translate(405.543337, 494.882051)"><g><path d="M 30.40625 5.109375 C 30.945312 6.503906 31.191406 7.960938 31.140625 9.484375 L 41.96875 5.25 L 43.03125 4.828125 L 43.546875 5.859375 L 44.96875 8.78125 L 45.546875 10 L 44.296875 10.484375 L 10.53125 23.71875 L 9.375 24.171875 L 8.921875 23.015625 C 8.796875 22.703125 8.570312 22.316406 8.25 21.859375 C 7.925781 21.398438 7.550781 20.859375 7.125 20.234375 C 6.695312 19.609375 6.34375 19.019531 6.0625 18.46875 C 5.519531 17.351562 5.0625 16.414062 4.6875 15.65625 C 4.3125 14.894531 4.03125 14.28125 3.84375 13.8125 C 2.726562 10.957031 2.523438 8.285156 3.234375 5.796875 C 4.222656 2.304688 6.96875 -0.316406 11.46875 -2.078125 C 12.914062 -2.648438 14.304688 -3.046875 15.640625 -3.265625 C 16.984375 -3.492188 18.296875 -3.539062 19.578125 -3.40625 C 20.859375 -3.28125 22.070312 -2.960938 23.21875 -2.453125 C 26.613281 -0.972656 29.007812 1.546875 30.40625 5.109375 Z M 26.375 11.359375 C 26.332031 10.691406 26.242188 10.0625 26.109375 9.46875 C 25.984375 8.875 25.8125 8.300781 25.59375 7.75 C 24.601562 5.238281 23.097656 3.582031 21.078125 2.78125 C 19.003906 1.945312 16.523438 2.097656 13.640625 3.234375 C 10.859375 4.328125 9.207031 5.8125 8.6875 7.6875 C 8.28125 9.09375 8.40625 10.632812 9.0625 12.3125 C 9.6875 13.882812 10.457031 15.53125 11.375 17.25 Z M 26.375 11.359375 "/></g></g></g><g fill="#ffffff" fill-opacity="1"><g transform="translate(420.740202, 531.45424)"><g><path d="M 13.53125 0.953125 C 11.1875 2.203125 9.757812 3.601562 9.25 5.15625 C 8.75 6.71875 9.085938 8.597656 10.265625 10.796875 C 11.316406 12.753906 12.546875 14.394531 13.953125 15.71875 C 14.097656 15.863281 14.238281 15.992188 14.375 16.109375 C 14.519531 16.222656 14.609375 16.304688 14.640625 16.359375 L 15.875 17.21875 L 14.8125 18.265625 L 12.828125 20.171875 L 12.109375 20.84375 L 11.328125 20.359375 C 9.992188 19.566406 8.410156 17.8125 6.578125 15.09375 C 6.335938 14.6875 6.097656 14.285156 5.859375 13.890625 C 5.617188 13.492188 5.378906 13.078125 5.140625 12.640625 C 3.691406 9.953125 3.160156 7.3125 3.546875 4.71875 C 4.054688 1.164062 6.445312 -1.757812 10.71875 -4.0625 C 12.769531 -5.15625 14.765625 -5.867188 16.703125 -6.203125 C 18.648438 -6.535156 20.515625 -6.441406 22.296875 -5.921875 C 25.804688 -4.941406 28.429688 -2.835938 30.171875 0.390625 C 31.921875 3.640625 32.160156 6.695312 30.890625 9.5625 C 29.867188 11.726562 28.015625 13.535156 25.328125 14.984375 C 24.710938 15.316406 24.050781 15.640625 23.34375 15.953125 L 22.28125 16.390625 L 21.734375 15.375 L 13.875 0.75 Z M 25.328125 3.203125 C 24.492188 1.648438 23.320312 0.582031 21.8125 0 C 20.800781 -0.394531 19.710938 -0.582031 18.546875 -0.5625 L 23.90625 9.40625 C 24.40625 9.0625 24.816406 8.695312 25.140625 8.3125 C 25.460938 7.9375 25.695312 7.554688 25.84375 7.171875 C 26 6.796875 26.082031 6.40625 26.09375 6 C 26.101562 5.59375 26.046875 5.175781 25.921875 4.75 L 25.890625 4.65625 C 25.835938 4.425781 25.757812 4.1875 25.65625 3.9375 C 25.5625 3.6875 25.453125 3.441406 25.328125 3.203125 Z M 25.328125 3.203125 "/></g></g></g><g fill="#ffffff" fill-opacity="1"><g transform="translate(439.679318, 564.774903)"><g/></g></g><g fill="#ffffff" fill-opacity="1"><g transform="translate(455.37501, 587.425238)"><g><path d="M 1.765625 2.109375 L 28.5625 -20.25 L 29.53125 -21.046875 L 30.3125 -20.09375 L 34.953125 -14.546875 C 37.742188 -11.203125 39.226562 -8.285156 39.40625 -5.796875 C 39.675781 -2.765625 38.25 0.0507812 35.125 2.65625 C 33.5 4.007812 31.863281 4.992188 30.21875 5.609375 C 28.570312 6.234375 26.9375 6.445312 25.3125 6.25 C 23.695312 6.0625 22.148438 5.460938 20.671875 4.453125 C 19.984375 3.984375 19.296875 3.4375 18.609375 2.8125 C 17.929688 2.1875 17.273438 1.488281 16.640625 0.71875 L 14.984375 -1.265625 L 5.53125 6.625 L 4.578125 7.421875 L 3.765625 6.453125 L 1.59375 3.859375 L 0.8125 2.90625 Z M 29.28125 -13.1875 L 19.015625 -4.625 L 20.515625 -2.828125 C 22.242188 -0.753906 23.921875 0.40625 25.546875 0.65625 C 27.128906 0.882812 28.929688 0.160156 30.953125 -1.515625 C 31.640625 -2.085938 32.191406 -2.648438 32.609375 -3.203125 C 33.035156 -3.753906 33.320312 -4.242188 33.46875 -4.671875 C 33.613281 -5.097656 33.671875 -5.519531 33.640625 -5.9375 C 33.546875 -6.664062 33.269531 -7.488281 32.8125 -8.40625 C 32.351562 -9.320312 31.675781 -10.316406 30.78125 -11.390625 Z M 29.28125 -13.1875 "/></g></g></g><g fill="#ffffff" fill-opacity="1"><g transform="translate(481.222136, 617.061326)"><g><path d="M 26.25 -3.1875 C 25.726562 -4.1875 24.769531 -5.351562 23.375 -6.6875 C 22.0625 -7.945312 20.867188 -8.671875 19.796875 -8.859375 C 18.898438 -9.023438 18.25 -8.894531 17.84375 -8.46875 C 17.375 -7.988281 17.171875 -7.539062 17.234375 -7.125 C 17.335938 -6.414062 17.597656 -5.65625 18.015625 -4.84375 C 18.523438 -3.914062 19.066406 -2.9375 19.640625 -1.90625 C 19.984375 -1.351562 20.289062 -0.785156 20.5625 -0.203125 C 20.832031 0.378906 21.054688 0.960938 21.234375 1.546875 C 21.734375 2.953125 21.859375 4.300781 21.609375 5.59375 C 21.359375 6.882812 20.742188 8.039062 19.765625 9.0625 C 17.867188 11.039062 15.691406 11.914062 13.234375 11.6875 C 12.742188 11.632812 12.257812 11.546875 11.78125 11.421875 C 11.3125 11.296875 10.835938 11.117188 10.359375 10.890625 C 9.890625 10.660156 9.414062 10.398438 8.9375 10.109375 C 8.46875 9.816406 8 9.476562 7.53125 9.09375 C 7.0625 8.71875 6.582031 8.300781 6.09375 7.84375 C 4.894531 6.6875 3.859375 5.460938 2.984375 4.171875 C 2.054688 2.785156 1.5 1.539062 1.3125 0.4375 L 1.15625 -0.5625 L 2.0625 -0.9375 L 4.6875 -2.078125 L 6.25 -2.78125 L 6.40625 -1.0625 C 6.476562 -0.28125 7.171875 0.914062 8.484375 2.53125 C 8.910156 3.082031 9.378906 3.597656 9.890625 4.078125 C 10.972656 5.117188 12.070312 5.757812 13.1875 6 C 13.488281 6.050781 13.769531 6.0625 14.03125 6.03125 C 14.289062 6 14.539062 5.914062 14.78125 5.78125 C 15.03125 5.65625 15.28125 5.460938 15.53125 5.203125 C 15.945312 4.773438 16.140625 4.3125 16.109375 3.8125 C 16.023438 3.082031 15.785156 2.300781 15.390625 1.46875 C 15.179688 0.988281 14.9375 0.515625 14.65625 0.046875 C 14.375 -0.421875 14.085938 -0.910156 13.796875 -1.421875 C 13.078125 -2.515625 12.523438 -3.625 12.140625 -4.75 C 11.691406 -5.96875 11.5 -7.160156 11.5625 -8.328125 C 11.59375 -8.796875 11.679688 -9.25 11.828125 -9.6875 C 11.984375 -10.132812 12.1875 -10.550781 12.4375 -10.9375 C 12.695312 -11.332031 13.015625 -11.722656 13.390625 -12.109375 C 15.160156 -13.960938 17.304688 -14.757812 19.828125 -14.5 C 22.179688 -14.28125 24.476562 -13.097656 26.71875 -10.953125 C 27.238281 -10.453125 27.753906 -9.890625 28.265625 -9.265625 C 28.753906 -8.710938 29.1875 -8.195312 29.5625 -7.71875 L 29.609375 -7.6875 L 30.875 -6 L 31.71875 -4.859375 L 30.5 -4.15625 L 27.984375 -2.703125 L 26.859375 -2.03125 Z M 26.25 -3.1875 "/></g></g></g><g fill="#ffffff" fill-opacity="1"><g transform="translate(506.069556, 639.785058)"><g><path d="M 22.421875 -14.296875 L 6.65625 5.34375 L 5.875 6.3125 L 4.890625 5.53125 L 2.375 3.5 L 1.40625 2.71875 L 2.1875 1.75 L 17.796875 -17.6875 L 18.515625 -18.578125 L 19.46875 -17.953125 L 22.171875 -16.109375 L 23.265625 -15.34375 Z M 22.078125 -22.625 C 22.078125 -23.476562 22.378906 -24.285156 22.984375 -25.046875 C 23.609375 -25.816406 24.351562 -26.257812 25.21875 -26.375 C 26.144531 -26.519531 27.007812 -26.269531 27.8125 -25.625 C 28.175781 -25.332031 28.472656 -24.988281 28.703125 -24.59375 C 28.929688 -24.195312 29.070312 -23.765625 29.125 -23.296875 C 29.175781 -22.828125 29.125 -22.363281 28.96875 -21.90625 C 28.820312 -21.457031 28.59375 -21.035156 28.28125 -20.640625 C 27.570312 -19.765625 26.734375 -19.332031 25.765625 -19.34375 C 24.898438 -19.320312 24.085938 -19.613281 23.328125 -20.21875 C 22.492188 -20.882812 22.078125 -21.6875 22.078125 -22.625 Z M 22.078125 -22.625 "/></g></g></g><g fill="#ffffff" fill-opacity="1"><g transform="translate(524.43801, 654.205988)"><g><path d="M 26.640625 -7.09375 C 25.953125 -7.851562 25.191406 -8.507812 24.359375 -9.0625 C 22.242188 -10.457031 20.128906 -10.898438 18.015625 -10.390625 C 15.835938 -9.867188 13.90625 -8.335938 12.21875 -5.796875 C 10.726562 -3.546875 10.113281 -1.613281 10.375 0 C 10.644531 1.613281 11.789062 3.09375 13.8125 4.4375 C 15.53125 5.570312 17.515625 6.460938 19.765625 7.109375 C 19.835938 7.117188 19.90625 7.132812 19.96875 7.15625 C 20.039062 7.175781 20.097656 7.191406 20.140625 7.203125 C 20.191406 7.210938 20.234375 7.226562 20.265625 7.25 C 20.296875 7.269531 20.316406 7.265625 20.328125 7.234375 L 21.953125 7.25 L 21.453125 8.890625 L 20.640625 11.578125 L 20.34375 12.453125 L 19.40625 12.4375 C 17.851562 12.363281 15.628906 11.566406 12.734375 10.046875 C 11.941406 9.609375 11.128906 9.113281 10.296875 8.5625 C 7.722656 6.851562 6.003906 4.78125 5.140625 2.34375 C 3.953125 -1.082031 4.691406 -4.804688 7.359375 -8.828125 C 8.660156 -10.804688 10.085938 -12.382812 11.640625 -13.5625 C 13.191406 -14.738281 14.894531 -15.519531 16.75 -15.90625 C 20.382812 -16.644531 23.910156 -15.882812 27.328125 -13.625 C 28.398438 -12.90625 29.4375 -12.015625 30.4375 -10.953125 C 31.550781 -9.773438 32.253906 -8.59375 32.546875 -7.40625 L 32.6875 -6.90625 L 32.375 -6.4375 L 28.765625 -0.984375 L 28.171875 -0.078125 L 27.21875 -0.53125 L 25.71875 -1.28125 L 24.984375 -1.578125 L 23.703125 -2.1875 L 24.421875 -3.375 Z M 26.640625 -7.09375 "/></g></g></g><g fill="#ffffff" fill-opacity="1"><g transform="translate(555.919748, 674.26867)"><g><path d="M 4.671875 -4.296875 C 4.773438 -5.253906 4.976562 -6.210938 5.28125 -7.171875 C 5.582031 -8.140625 5.984375 -9.128906 6.484375 -10.140625 C 8.472656 -14.097656 11.171875 -16.671875 14.578125 -17.859375 C 18.003906 -19.046875 21.425781 -18.78125 24.84375 -17.0625 C 27.457031 -15.757812 29.382812 -14.097656 30.625 -12.078125 C 31.863281 -10.054688 32.359375 -7.75 32.109375 -5.15625 C 31.953125 -3.300781 31.363281 -1.347656 30.34375 0.703125 C 28.351562 4.660156 25.648438 7.234375 22.234375 8.421875 C 18.773438 9.585938 15.347656 9.320312 11.953125 7.625 C 9.335938 6.3125 7.40625 4.640625 6.15625 2.609375 C 4.90625 0.585938 4.410156 -1.710938 4.671875 -4.296875 Z M 10.796875 -1.390625 C 11.335938 0.484375 12.5625 1.894531 14.46875 2.84375 C 16.375 3.800781 18.304688 3.910156 20.265625 3.171875 C 22.242188 2.453125 23.84375 0.875 25.0625 -1.5625 C 26.28125 -4 26.613281 -6.15625 26.0625 -8.03125 C 25.507812 -9.90625 24.273438 -11.320312 22.359375 -12.28125 C 20.441406 -13.25 18.5 -13.363281 16.53125 -12.625 C 14.570312 -11.90625 12.984375 -10.328125 11.765625 -7.890625 C 10.546875 -5.453125 10.222656 -3.285156 10.796875 -1.390625 Z M 10.796875 -1.390625 "/></g></g></g><g fill="#ffffff" fill-opacity="1"><g transform="translate(593.204345, 691.753759)"><g><path d="M 2.09375 0.8125 L 15.5 -33.84375 L 15.921875 -34.90625 L 17.015625 -34.59375 L 20.140625 -33.65625 L 21.4375 -33.265625 L 20.953125 -32.015625 L 7.453125 2.875 L 7 4.046875 L 5.828125 3.609375 L 2.796875 2.421875 L 1.640625 1.984375 Z M 2.09375 0.8125 "/></g></g></g><g fill="#ffffff" fill-opacity="1"><g transform="translate(613.086537, 699.315718)"><g><path d="M 3.78125 -5.109375 C 3.695312 -6.066406 3.707031 -7.046875 3.8125 -8.046875 C 3.925781 -9.046875 4.132812 -10.085938 4.4375 -11.171875 C 5.632812 -15.441406 7.800781 -18.484375 10.9375 -20.296875 C 14.070312 -22.109375 17.476562 -22.5 21.15625 -21.46875 C 23.976562 -20.675781 26.1875 -19.40625 27.78125 -17.65625 C 29.375 -15.90625 30.296875 -13.738281 30.546875 -11.15625 C 30.742188 -9.300781 30.535156 -7.269531 29.921875 -5.0625 C 28.722656 -0.800781 26.554688 2.234375 23.421875 4.046875 C 20.253906 5.859375 16.84375 6.25 13.1875 5.21875 C 10.375 4.425781 8.160156 3.148438 6.546875 1.390625 C 4.929688 -0.359375 4.007812 -2.523438 3.78125 -5.109375 Z M 10.328125 -3.40625 C 11.222656 -1.675781 12.691406 -0.523438 14.734375 0.046875 C 16.785156 0.617188 18.707031 0.363281 20.5 -0.71875 C 22.300781 -1.800781 23.566406 -3.648438 24.296875 -6.265625 C 25.035156 -8.890625 24.960938 -11.078125 24.078125 -12.828125 C 23.179688 -14.554688 21.695312 -15.710938 19.625 -16.296875 C 17.5625 -16.878906 15.632812 -16.625 13.84375 -15.53125 C 12.050781 -14.445312 10.785156 -12.59375 10.046875 -9.96875 C 9.316406 -7.34375 9.410156 -5.15625 10.328125 -3.40625 Z M 10.328125 -3.40625 "/></g></g></g><g fill="#ffffff" fill-opacity="1"><g transform="translate(653.471457, 709.798346)"><g><path d="M 6.40625 -8.5625 C 4.707031 -10.445312 4.085938 -12.953125 4.546875 -16.078125 C 5.015625 -19.222656 6.488281 -21.484375 8.96875 -22.859375 C 11.351562 -24.171875 14.160156 -24.585938 17.390625 -24.109375 C 17.503906 -24.085938 17.644531 -24.0625 17.8125 -24.03125 C 17.976562 -24.007812 18.132812 -23.976562 18.28125 -23.9375 C 18.4375 -23.894531 18.597656 -23.851562 18.765625 -23.8125 C 18.941406 -23.769531 19.113281 -23.726562 19.28125 -23.6875 C 19.445312 -23.644531 19.617188 -23.601562 19.796875 -23.5625 C 19.984375 -23.519531 20.148438 -23.472656 20.296875 -23.421875 L 29.515625 -22.3125 L 30.859375 -22.15625 L 30.609375 -20.84375 L 30.21875 -18.96875 L 30 -17.796875 L 28.828125 -17.96875 L 26.203125 -18.359375 C 26.796875 -16.859375 26.953125 -15.171875 26.671875 -13.296875 C 26.441406 -11.785156 25.972656 -10.457031 25.265625 -9.3125 C 24.566406 -8.175781 23.628906 -7.257812 22.453125 -6.5625 C 20.160156 -5.21875 17.4375 -4.78125 14.28125 -5.25 C 12.695312 -5.476562 11.332031 -5.796875 10.1875 -6.203125 C 10.070312 -6.015625 9.992188 -5.789062 9.953125 -5.53125 C 9.921875 -5.332031 9.914062 -5.164062 9.9375 -5.03125 C 9.96875 -4.894531 10.054688 -4.742188 10.203125 -4.578125 C 10.347656 -4.421875 10.5625 -4.257812 10.84375 -4.09375 C 11.894531 -3.46875 13.195312 -2.941406 14.75 -2.515625 C 16.644531 -1.953125 18.257812 -1.382812 19.59375 -0.8125 C 20.9375 -0.25 22.035156 0.347656 22.890625 0.984375 C 25.453125 2.929688 26.5 5.519531 26.03125 8.75 C 25.550781 11.957031 23.671875 14.113281 20.390625 15.21875 C 19.222656 15.625 17.972656 15.863281 16.640625 15.9375 C 15.316406 16.007812 13.914062 15.9375 12.4375 15.71875 C 9.539062 15.289062 7.3125 14.722656 5.75 14.015625 C 3.664062 13.066406 2.113281 11.859375 1.09375 10.390625 C 0.0820312 8.921875 -0.28125 7.253906 0 5.390625 C 0.226562 3.804688 0.832031 2.390625 1.8125 1.140625 C 2.789062 -0.109375 4.101562 -1.160156 5.75 -2.015625 C 5.363281 -2.609375 5.101562 -3.203125 4.96875 -3.796875 C 4.84375 -4.390625 4.828125 -5 4.921875 -5.625 C 5.085938 -6.769531 5.582031 -7.75 6.40625 -8.5625 Z M 20.359375 7.859375 C 20.472656 7.097656 20.3125 6.414062 19.875 5.8125 C 19.445312 5.21875 18.65625 4.648438 17.5 4.109375 C 16.769531 3.753906 15.4375 3.289062 13.5 2.71875 C 11.8125 2.15625 10.421875 1.609375 9.328125 1.078125 C 7.191406 2.472656 6.015625 3.894531 5.796875 5.34375 C 5.703125 6 5.722656 6.539062 5.859375 6.96875 C 5.972656 7.34375 6.242188 7.71875 6.671875 8.09375 C 7.191406 8.613281 7.929688 9.050781 8.890625 9.40625 C 9.847656 9.757812 11.015625 10.039062 12.390625 10.25 C 15.878906 10.769531 18.300781 10.441406 19.65625 9.265625 C 19.726562 9.179688 19.804688 9.082031 19.890625 8.96875 C 19.972656 8.863281 20.046875 8.753906 20.109375 8.640625 C 20.179688 8.535156 20.234375 8.421875 20.265625 8.296875 C 20.304688 8.171875 20.335938 8.023438 20.359375 7.859375 Z M 20.859375 -14.296875 C 21.066406 -15.710938 20.84375 -16.785156 20.1875 -17.515625 C 19.53125 -18.253906 18.296875 -18.757812 16.484375 -19.03125 C 14.765625 -19.289062 13.3125 -19.117188 12.125 -18.515625 C 11.101562 -18.003906 10.488281 -17.035156 10.28125 -15.609375 C 10.050781 -14.066406 10.226562 -12.882812 10.8125 -12.0625 C 11.382812 -11.238281 12.59375 -10.6875 14.4375 -10.40625 C 15.394531 -10.269531 16.242188 -10.253906 16.984375 -10.359375 C 17.722656 -10.472656 18.375 -10.710938 18.9375 -11.078125 C 19.488281 -11.390625 19.914062 -11.804688 20.21875 -12.328125 C 20.53125 -12.859375 20.742188 -13.515625 20.859375 -14.296875 Z M 20.859375 -14.296875 "/></g></g></g><g fill="#ffffff" fill-opacity="1"><g transform="translate(694.202871, 714.769486)"><g><path d="M 9.734375 -24.734375 L 8.515625 0.421875 L 8.453125 1.671875 L 7.203125 1.609375 L 3.984375 1.453125 L 2.734375 1.390625 L 2.796875 0.140625 L 4.015625 -24.765625 L 4.0625 -25.90625 L 5.21875 -25.96875 L 8.453125 -26.0625 L 9.8125 -26.078125 Z M 4.578125 -31.296875 C 4.078125 -31.984375 3.851562 -32.804688 3.90625 -33.765625 C 3.945312 -34.753906 4.28125 -35.550781 4.90625 -36.15625 C 5.570312 -36.820312 6.421875 -37.128906 7.453125 -37.078125 C 7.910156 -37.054688 8.347656 -36.953125 8.765625 -36.765625 C 9.191406 -36.578125 9.5625 -36.3125 9.875 -35.96875 C 10.195312 -35.613281 10.429688 -35.207031 10.578125 -34.75 C 10.722656 -34.300781 10.78125 -33.828125 10.75 -33.328125 C 10.695312 -32.210938 10.273438 -31.367188 9.484375 -30.796875 C 8.796875 -30.265625 7.972656 -30.023438 7.015625 -30.078125 C 5.953125 -30.128906 5.140625 -30.535156 4.578125 -31.296875 Z M 4.578125 -31.296875 "/></g></g></g><g fill="#ffffff" fill-opacity="1"><g transform="translate(717.501892, 715.619314)"><g><path d="M 1.046875 -23.40625 C 4.753906 -25.457031 8.0625 -26.59375 10.96875 -26.8125 C 13.332031 -26.90625 15.191406 -26.664062 16.546875 -26.09375 C 17.015625 -25.914062 17.453125 -25.703125 17.859375 -25.453125 C 18.273438 -25.203125 18.65625 -24.914062 19 -24.59375 C 19.351562 -24.28125 19.691406 -23.925781 20.015625 -23.53125 C 20.953125 -22.363281 21.460938 -20.769531 21.546875 -18.75 L 22.28125 -0.90625 L 22.328125 0.34375 L 21.078125 0.390625 L 17.84375 0.515625 L 16.59375 0.578125 L 16.546875 -0.671875 L 16.53125 -0.875 C 12.820312 0.375 10.34375 1.023438 9.09375 1.078125 L 8.9375 1.09375 C 5.476562 1.226562 3.039062 0.210938 1.625 -1.953125 C 1.09375 -2.765625 0.769531 -3.585938 0.65625 -4.421875 C 0.570312 -5.085938 0.519531 -5.648438 0.5 -6.109375 C 0.4375 -7.640625 0.960938 -9.023438 2.078125 -10.265625 C 2.585938 -10.847656 3.164062 -11.335938 3.8125 -11.734375 C 4.457031 -12.128906 5.160156 -12.441406 5.921875 -12.671875 C 6.972656 -12.972656 8.335938 -13.28125 10.015625 -13.59375 C 11.691406 -13.914062 13.679688 -14.222656 15.984375 -14.515625 L 15.859375 -17.421875 C 15.796875 -18.910156 15.414062 -19.96875 14.71875 -20.59375 C 14.03125 -21.21875 12.875 -21.5 11.25 -21.4375 C 8.789062 -21.332031 6.113281 -20.484375 3.21875 -18.890625 L 2.015625 -18.203125 L 1.5 -19.484375 L 0.5 -21.84375 L 0.0625 -22.875 Z M 6.046875 -5.9375 C 6.078125 -5.132812 6.359375 -4.554688 6.890625 -4.203125 C 7.421875 -3.847656 8.394531 -3.695312 9.8125 -3.75 C 12.007812 -3.84375 14.191406 -4.363281 16.359375 -5.3125 L 16.15625 -10.125 C 11.894531 -9.34375 9.257812 -8.757812 8.25 -8.375 C 7.394531 -8.070312 6.804688 -7.726562 6.484375 -7.34375 C 6.171875 -6.96875 6.023438 -6.5 6.046875 -5.9375 Z M 6.046875 -5.9375 "/></g></g></g><g fill="#ffffff" fill-opacity="1"><g transform="translate(780.251573, 709.257267)"><g><path d="M 9.140625 -29.4375 C 10.597656 -29.789062 12.078125 -29.84375 13.578125 -29.59375 L 10.828125 -40.875 L 10.5625 -41.984375 L 11.640625 -42.359375 L 14.734375 -43.390625 L 16.03125 -43.78125 L 16.34375 -42.484375 L 24.9375 -7.25 L 25.21875 -6.046875 L 24 -5.75 C 23.675781 -5.675781 23.265625 -5.507812 22.765625 -5.25 C 22.273438 -4.988281 21.691406 -4.6875 21.015625 -4.34375 C 20.335938 -4.007812 19.707031 -3.738281 19.125 -3.53125 C 17.945312 -3.132812 16.953125 -2.804688 16.140625 -2.546875 C 15.335938 -2.285156 14.691406 -2.09375 14.203125 -1.96875 C 11.222656 -1.25 8.550781 -1.398438 6.1875 -2.421875 C 2.863281 -3.867188 0.628906 -6.9375 -0.515625 -11.625 C -0.890625 -13.144531 -1.097656 -14.582031 -1.140625 -15.9375 C -1.179688 -17.300781 -1.050781 -18.609375 -0.75 -19.859375 C -0.457031 -21.109375 0.0195312 -22.265625 0.6875 -23.328125 C 2.613281 -26.492188 5.429688 -28.53125 9.140625 -29.4375 Z M 14.796875 -24.609375 C 14.128906 -24.648438 13.492188 -24.648438 12.890625 -24.609375 C 12.285156 -24.566406 11.695312 -24.472656 11.125 -24.328125 C 8.5 -23.691406 6.648438 -22.421875 5.578125 -20.515625 C 4.472656 -18.566406 4.285156 -16.085938 5.015625 -13.078125 C 5.722656 -10.171875 6.976562 -8.335938 8.78125 -7.578125 C 10.113281 -6.984375 11.65625 -6.898438 13.40625 -7.328125 C 15.050781 -7.722656 16.785156 -8.265625 18.609375 -8.953125 Z M 14.796875 -24.609375 "/></g></g></g><g fill="#ffffff" fill-opacity="1"><g transform="translate(818.44408, 699.079935)"><g><path d="M -6.21875 -22.578125 C -3.320312 -25.679688 -0.519531 -27.78125 2.1875 -28.875 C 4.40625 -29.6875 6.25 -30.035156 7.71875 -29.921875 C 8.207031 -29.890625 8.6875 -29.820312 9.15625 -29.71875 C 9.632812 -29.613281 10.085938 -29.457031 10.515625 -29.25 C 10.941406 -29.050781 11.367188 -28.816406 11.796875 -28.546875 C 13.035156 -27.734375 14.007812 -26.378906 14.71875 -24.484375 L 20.90625 -7.734375 L 21.34375 -6.5625 L 20.171875 -6.125 L 17.140625 -5 L 15.96875 -4.578125 L 15.53125 -5.75 L 15.453125 -5.9375 C 12.316406 -3.59375 10.15625 -2.203125 8.96875 -1.765625 L 8.828125 -1.71875 C 5.578125 -0.519531 2.945312 -0.734375 0.9375 -2.359375 C 0.175781 -2.972656 -0.375 -3.660156 -0.71875 -4.421875 C -1.019531 -5.023438 -1.25 -5.539062 -1.40625 -5.96875 C -1.9375 -7.40625 -1.863281 -8.882812 -1.1875 -10.40625 C -0.875 -11.113281 -0.472656 -11.753906 0.015625 -12.328125 C 0.503906 -12.910156 1.070312 -13.429688 1.71875 -13.890625 C 2.632812 -14.492188 3.84375 -15.207031 5.34375 -16.03125 C 6.84375 -16.851562 8.632812 -17.757812 10.71875 -18.75 L 9.71875 -21.46875 C 9.195312 -22.875 8.507812 -23.765625 7.65625 -24.140625 C 6.8125 -24.515625 5.628906 -24.421875 4.109375 -23.859375 C 1.796875 -23.003906 -0.492188 -21.375 -2.765625 -18.96875 L -3.703125 -17.9375 L -4.578125 -19 L -6.265625 -20.921875 L -6.984375 -21.765625 Z M 3.921875 -7.5 C 4.191406 -6.75 4.632812 -6.285156 5.25 -6.109375 C 5.875 -5.941406 6.851562 -6.101562 8.1875 -6.59375 C 10.25 -7.351562 12.160156 -8.523438 13.921875 -10.109375 L 12.25 -14.625 C 8.445312 -12.550781 6.117188 -11.175781 5.265625 -10.5 C 4.546875 -9.957031 4.09375 -9.453125 3.90625 -8.984375 C 3.71875 -8.523438 3.722656 -8.03125 3.921875 -7.5 Z M 3.921875 -7.5 "/></g></g></g><g fill="#ffffff" fill-opacity="1"><g transform="translate(876.231477, 673.703831)"><g><path d="M 7.421875 -34.625 C 9.921875 -30.582031 10.398438 -26.90625 8.859375 -23.59375 L 22.703125 -14.703125 L 24.3125 -13.59375 L 22.671875 -12.5625 L 19.578125 -10.65625 L 18.890625 -10.234375 L 18.21875 -10.640625 L 5.140625 -19.0625 C 4.753906 -18.757812 4.335938 -18.445312 3.890625 -18.125 C 3.453125 -17.8125 2.992188 -17.507812 2.515625 -17.21875 L 0.3125 -15.859375 L 7.328125 -4.546875 L 7.984375 -3.484375 L 6.921875 -2.828125 L 4.046875 -1.03125 L 3 -0.390625 L 2.34375 -1.453125 L -16.03125 -31.125 L -16.6875 -32.1875 L -15.640625 -32.828125 L -9.5 -36.640625 C -5.820312 -38.921875 -2.738281 -40.007812 -0.25 -39.90625 C 2.757812 -39.78125 5.316406 -38.019531 7.421875 -34.625 Z M -8.953125 -30.828125 L -2.4375 -20.3125 L -0.4375 -21.546875 C 1.820312 -22.941406 3.21875 -24.410156 3.75 -25.953125 C 4.269531 -27.390625 3.859375 -29.195312 2.515625 -31.375 C 1.941406 -32.300781 1.332031 -32.992188 0.6875 -33.453125 C 0.0507812 -33.910156 -0.628906 -34.160156 -1.359375 -34.203125 C -2.085938 -34.242188 -2.90625 -34.082031 -3.8125 -33.71875 C -4.320312 -33.519531 -4.832031 -33.28125 -5.34375 -33 C -5.851562 -32.71875 -6.390625 -32.40625 -6.953125 -32.0625 Z M -8.953125 -30.828125 "/></g></g></g><g fill="#ffffff" fill-opacity="1"><g transform="translate(910.695633, 651.340996)"><g><path d="M -1.53125 -13.46875 C 0.125 -11.40625 1.757812 -10.265625 3.375 -10.046875 C 5 -9.835938 6.785156 -10.507812 8.734375 -12.0625 C 10.472656 -13.457031 11.867188 -14.960938 12.921875 -16.578125 C 13.035156 -16.742188 13.132812 -16.90625 13.21875 -17.0625 C 13.3125 -17.226562 13.378906 -17.332031 13.421875 -17.375 L 14.046875 -18.75 L 15.265625 -17.875 L 17.5 -16.28125 L 18.296875 -15.703125 L 17.953125 -14.84375 C 17.410156 -13.394531 15.972656 -11.519531 13.640625 -9.21875 C 13.296875 -8.90625 12.945312 -8.59375 12.59375 -8.28125 C 12.238281 -7.96875 11.867188 -7.65625 11.484375 -7.34375 C 9.097656 -5.4375 6.597656 -4.429688 3.984375 -4.328125 C 0.398438 -4.191406 -2.910156 -6.019531 -5.953125 -9.8125 C -7.398438 -11.625 -8.460938 -13.453125 -9.140625 -15.296875 C -9.816406 -17.148438 -10.0625 -19 -9.875 -20.84375 C -9.5625 -24.46875 -7.976562 -27.425781 -5.125 -29.71875 C -2.238281 -32.03125 0.722656 -32.828125 3.765625 -32.109375 C 6.085938 -31.503906 8.203125 -30.015625 10.109375 -27.640625 C 10.546875 -27.085938 10.988281 -26.492188 11.4375 -25.859375 L 12.046875 -24.90625 L 11.15625 -24.1875 L -1.796875 -13.796875 Z M -1.46875 -25.484375 C -2.832031 -24.390625 -3.660156 -23.046875 -3.953125 -21.453125 C -4.171875 -20.378906 -4.164062 -19.273438 -3.9375 -18.140625 L 4.890625 -25.21875 C 4.460938 -25.644531 4.03125 -25.984375 3.59375 -26.234375 C 3.164062 -26.484375 2.75 -26.644531 2.34375 -26.71875 C 1.9375 -26.800781 1.535156 -26.8125 1.140625 -26.75 C 0.742188 -26.6875 0.34375 -26.554688 -0.0625 -26.359375 L -0.125 -26.296875 C -0.351562 -26.203125 -0.578125 -26.085938 -0.796875 -25.953125 C -1.023438 -25.816406 -1.25 -25.660156 -1.46875 -25.484375 Z M -1.46875 -25.484375 "/></g></g></g><g fill="#ffffff" fill-opacity="1"><g transform="translate(939.860625, 626.7247)"><g><path d="M 1.625 -1.5625 L -24.15625 -28.328125 L -24.9375 -29.140625 L -24.203125 -30.015625 L -22.03125 -32.453125 L -21.140625 -33.453125 L -20.203125 -32.484375 L 5.75 -5.546875 L 6.625 -4.640625 L 5.71875 -3.765625 L 3.390625 -1.515625 L 2.5 -0.65625 Z M 1.625 -1.5625 "/></g></g></g><g fill="#ffffff" fill-opacity="1"><g transform="translate(954.911642, 611.918305)"><g><path d="M -16.265625 -16.859375 C -15.191406 -20.960938 -13.734375 -24.140625 -11.890625 -26.390625 C -10.335938 -28.171875 -8.890625 -29.363281 -7.546875 -29.96875 C -7.097656 -30.175781 -6.640625 -30.34375 -6.171875 -30.46875 C -5.703125 -30.601562 -5.234375 -30.6875 -4.765625 -30.71875 C -4.296875 -30.75 -3.8125 -30.742188 -3.3125 -30.703125 C -1.8125 -30.585938 -0.300781 -29.867188 1.21875 -28.546875 L 14.671875 -16.796875 L 15.609375 -15.96875 L 14.78125 -15.03125 L 12.65625 -12.59375 L 11.828125 -11.640625 L 10.890625 -12.46875 L 10.734375 -12.609375 C 9.097656 -9.054688 7.863281 -6.800781 7.03125 -5.84375 L 6.9375 -5.734375 C 4.65625 -3.128906 2.242188 -2.0625 -0.296875 -2.53125 C -1.253906 -2.695312 -2.070312 -3.03125 -2.75 -3.53125 C -3.289062 -3.914062 -3.734375 -4.257812 -4.078125 -4.5625 C -5.234375 -5.570312 -5.878906 -6.910156 -6.015625 -8.578125 C -6.085938 -9.347656 -6.046875 -10.101562 -5.890625 -10.84375 C -5.734375 -11.582031 -5.476562 -12.304688 -5.125 -13.015625 C -4.625 -13.984375 -3.910156 -15.1875 -2.984375 -16.625 C -2.054688 -18.070312 -0.910156 -19.722656 0.453125 -21.578125 L -1.734375 -23.5 C -2.859375 -24.476562 -3.882812 -24.929688 -4.8125 -24.859375 C -5.738281 -24.785156 -6.738281 -24.132812 -7.8125 -22.90625 C -9.425781 -21.050781 -10.65625 -18.523438 -11.5 -15.328125 L -11.828125 -13.984375 L -13.09375 -14.5 L -15.5 -15.390625 L -16.546875 -15.78125 Z M -0.15625 -8.46875 C 0.445312 -7.945312 1.0625 -7.753906 1.6875 -7.890625 C 2.320312 -8.023438 3.109375 -8.632812 4.046875 -9.71875 C 5.484375 -11.363281 6.597656 -13.296875 7.390625 -15.515625 L 3.765625 -18.703125 C 1.410156 -15.054688 0.0195312 -12.738281 -0.40625 -11.75 C -0.769531 -10.914062 -0.925781 -10.253906 -0.875 -9.765625 C -0.820312 -9.273438 -0.582031 -8.84375 -0.15625 -8.46875 Z M -0.15625 -8.46875 "/></g></g></g><g fill="#ffffff" fill-opacity="1"><g transform="translate(977.963653, 584.483462)"><g><path d="M 9.359375 -5.28125 C 9.742188 -6.46875 9.851562 -7.320312 9.6875 -7.84375 C 9.550781 -8.351562 9.425781 -8.664062 9.3125 -8.78125 C 9.019531 -9.019531 8.75 -9.222656 8.5 -9.390625 C 8.476562 -9.410156 8.425781 -9.445312 8.34375 -9.5 C 6.882812 -7.601562 5.234375 -6.265625 3.390625 -5.484375 C 1.546875 -4.703125 -0.457031 -4.46875 -2.625 -4.78125 C -4.46875 -5.101562 -6.46875 -6.015625 -8.625 -7.515625 C -9.90625 -8.398438 -11.019531 -9.34375 -11.96875 -10.34375 C -12.914062 -11.34375 -13.695312 -12.40625 -14.3125 -13.53125 C -14.925781 -14.664062 -15.332031 -15.851562 -15.53125 -17.09375 C -16.1875 -20.738281 -15.347656 -24.242188 -13.015625 -27.609375 C -12.273438 -28.671875 -11.363281 -29.691406 -10.28125 -30.671875 C -9.082031 -31.753906 -7.882812 -32.429688 -6.6875 -32.703125 L -6.1875 -32.8125 L -5.734375 -32.5 L -0.359375 -28.765625 L 0.53125 -28.140625 L 0.0625 -27.203125 L -0.71875 -25.75 L -1.046875 -25 L -1.671875 -23.734375 L -2.859375 -24.5 L -6.53125 -26.796875 C -7.289062 -26.117188 -7.953125 -25.367188 -8.515625 -24.546875 C -9.960938 -22.472656 -10.457031 -20.367188 -10 -18.234375 C -9.53125 -16.035156 -8.039062 -14.066406 -5.53125 -12.328125 C -3.3125 -10.796875 -1.394531 -10.144531 0.21875 -10.375 C 1.84375 -10.613281 3.347656 -11.734375 4.734375 -13.734375 C 5.898438 -15.421875 6.832031 -17.378906 7.53125 -19.609375 C 7.539062 -19.679688 7.554688 -19.75 7.578125 -19.8125 C 7.597656 -19.882812 7.613281 -19.941406 7.625 -19.984375 C 7.644531 -20.035156 7.664062 -20.078125 7.6875 -20.109375 C 7.707031 -20.140625 7.703125 -20.160156 7.671875 -20.171875 L 7.703125 -21.78125 L 9.359375 -21.265625 L 12.015625 -20.390625 L 12.90625 -20.078125 L 12.859375 -19.140625 C 12.804688 -18.191406 12.460938 -17.023438 11.828125 -15.640625 C 11.316406 -14.492188 10.921875 -13.660156 10.640625 -13.140625 C 10.691406 -13.109375 10.726562 -13.082031 10.75 -13.0625 C 11.019531 -12.875 11.273438 -12.660156 11.515625 -12.421875 C 11.765625 -12.191406 11.984375 -11.945312 12.171875 -11.6875 C 12.367188 -11.4375 12.546875 -11.164062 12.703125 -10.875 C 12.859375 -10.582031 12.992188 -10.273438 13.109375 -9.953125 C 13.722656 -8.171875 13.644531 -6.289062 12.875 -4.3125 L 12.5 -3.328125 L 11.53125 -3.46875 L 10.375 -3.65625 L 8.96875 -3.90625 Z M 9.359375 -5.28125 "/></g></g></g><g fill="#ffffff" fill-opacity="1"><g transform="translate(998.53629, 553.526625)"><g><path d="M -19.59375 -12.859375 C -19.457031 -17.085938 -18.738281 -20.507812 -17.4375 -23.125 C -16.3125 -25.207031 -15.15625 -26.6875 -13.96875 -27.5625 C -13.582031 -27.863281 -13.175781 -28.128906 -12.75 -28.359375 C -12.320312 -28.585938 -11.882812 -28.765625 -11.4375 -28.890625 C -10.988281 -29.023438 -10.515625 -29.132812 -10.015625 -29.21875 C -8.523438 -29.4375 -6.894531 -29.066406 -5.125 -28.109375 L 10.59375 -19.625 L 11.6875 -19.03125 L 11.09375 -17.921875 L 9.5625 -15.078125 L 8.96875 -13.984375 L 7.875 -14.578125 L 7.703125 -14.671875 C 6.878906 -10.835938 6.171875 -8.367188 5.578125 -7.265625 L 5.5 -7.125 C 3.851562 -4.082031 1.738281 -2.503906 -0.84375 -2.390625 C -1.820312 -2.359375 -2.691406 -2.507812 -3.453125 -2.84375 C -4.078125 -3.09375 -4.585938 -3.328125 -4.984375 -3.546875 C -6.335938 -4.273438 -7.265625 -5.4375 -7.765625 -7.03125 C -8.003906 -7.769531 -8.128906 -8.515625 -8.140625 -9.265625 C -8.148438 -10.023438 -8.0625 -10.796875 -7.875 -11.578125 C -7.601562 -12.628906 -7.171875 -13.957031 -6.578125 -15.5625 C -5.992188 -17.164062 -5.238281 -19.03125 -4.3125 -21.15625 L -6.875 -22.546875 C -8.1875 -23.253906 -9.285156 -23.46875 -10.171875 -23.1875 C -11.066406 -22.90625 -11.898438 -22.050781 -12.671875 -20.625 C -13.847656 -18.445312 -14.492188 -15.707031 -14.609375 -12.40625 L -14.625 -11.03125 L -15.984375 -11.234375 L -18.515625 -11.578125 L -19.625 -11.734375 Z M -2.015625 -8.234375 C -1.316406 -7.847656 -0.675781 -7.789062 -0.09375 -8.0625 C 0.488281 -8.34375 1.117188 -9.109375 1.796875 -10.359375 C 2.835938 -12.296875 3.503906 -14.4375 3.796875 -16.78125 L -0.453125 -19.078125 C -1.941406 -14.992188 -2.785156 -12.421875 -2.984375 -11.359375 C -3.160156 -10.472656 -3.164062 -9.796875 -3 -9.328125 C -2.84375 -8.867188 -2.515625 -8.503906 -2.015625 -8.234375 Z M -22.5 -20.65625 C -22.613281 -20.445312 -22.710938 -20.25 -22.796875 -20.0625 C -22.878906 -19.882812 -22.925781 -19.734375 -22.9375 -19.609375 C -22.945312 -19.484375 -22.957031 -19.375 -22.96875 -19.28125 C -22.976562 -19.195312 -22.960938 -19.117188 -22.921875 -19.046875 C -22.890625 -18.972656 -22.859375 -18.914062 -22.828125 -18.875 C -22.796875 -18.832031 -22.734375 -18.789062 -22.640625 -18.75 L -21.65625 -17.9375 L -22.515625 -16.96875 L -23.640625 -15.65625 L -24.453125 -14.671875 L -25.359375 -15.5 C -26.421875 -16.394531 -27.023438 -17.453125 -27.171875 -18.671875 C -27.328125 -19.898438 -27.054688 -21.160156 -26.359375 -22.453125 C -26.023438 -23.066406 -25.59375 -23.726562 -25.0625 -24.4375 C -24.53125 -25.15625 -23.851562 -25.957031 -23.03125 -26.84375 C -22.351562 -27.613281 -21.785156 -28.28125 -21.328125 -28.84375 C -20.867188 -29.40625 -20.582031 -29.785156 -20.46875 -29.984375 C -20.394531 -30.128906 -20.328125 -30.273438 -20.265625 -30.421875 C -20.210938 -30.566406 -20.160156 -30.679688 -20.109375 -30.765625 C -20.066406 -30.847656 -20.046875 -30.929688 -20.046875 -31.015625 C -20.097656 -31.179688 -20.300781 -31.425781 -20.65625 -31.75 L -21.5625 -32.5 L -20.828125 -33.46875 L -19.671875 -34.828125 L -18.859375 -35.8125 L -17.90625 -34.96875 C -15.84375 -33.195312 -15.171875 -31.332031 -15.890625 -29.375 C -15.960938 -29.238281 -16.039062 -29.066406 -16.125 -28.859375 C -16.21875 -28.660156 -16.332031 -28.429688 -16.46875 -28.171875 C -16.59375 -27.941406 -16.796875 -27.644531 -17.078125 -27.28125 C -17.367188 -26.925781 -17.679688 -26.5625 -18.015625 -26.1875 C -18.347656 -25.820312 -18.8125 -25.304688 -19.40625 -24.640625 C -20.914062 -23.015625 -21.945312 -21.6875 -22.5 -20.65625 Z M -22.5 -20.65625 "/></g></g></g><g fill="#ffffff" fill-opacity="1"><g transform="translate(1015.08988, 521.611072)"><g><path d="M -4.6875 -4.28125 C -5.644531 -4.300781 -6.617188 -4.414062 -7.609375 -4.625 C -8.609375 -4.832031 -9.628906 -5.144531 -10.671875 -5.5625 C -14.785156 -7.1875 -17.582031 -9.648438 -19.0625 -12.953125 C -20.539062 -16.265625 -20.578125 -19.703125 -19.171875 -23.265625 C -18.097656 -25.984375 -16.609375 -28.046875 -14.703125 -29.453125 C -12.796875 -30.859375 -10.546875 -31.550781 -7.953125 -31.53125 C -6.085938 -31.539062 -4.09375 -31.128906 -1.96875 -30.296875 C 2.144531 -28.660156 4.945312 -26.1875 6.4375 -22.875 C 7.894531 -19.539062 7.925781 -16.113281 6.53125 -12.59375 C 5.457031 -9.863281 3.96875 -7.785156 2.0625 -6.359375 C 0.15625 -4.941406 -2.09375 -4.25 -4.6875 -4.28125 Z M -2.328125 -10.625 C -0.515625 -11.34375 0.78125 -12.691406 1.5625 -14.671875 C 2.351562 -16.648438 2.296875 -18.582031 1.390625 -20.46875 C 0.492188 -22.363281 -1.21875 -23.8125 -3.75 -24.8125 C -6.28125 -25.8125 -8.457031 -25.957031 -10.28125 -25.25 C -12.101562 -24.539062 -13.410156 -23.1875 -14.203125 -21.1875 C -14.992188 -19.195312 -14.9375 -17.257812 -14.03125 -15.375 C -13.125 -13.476562 -11.40625 -12.03125 -8.875 -11.03125 C -6.34375 -10.03125 -4.160156 -9.894531 -2.328125 -10.625 Z M -2.328125 -10.625 "/></g></g></g><g clip-path="url(#id1)"><path fill="#ffffff" d="M 426.988281 370.878906 C 416.839844 370.878906 408.613281 379.105469 408.613281 389.253906 C 408.613281 399.402344 416.839844 407.628906 426.988281 407.628906 C 437.136719 407.628906 445.363281 399.402344 445.363281 389.253906 C 445.363281 379.105469 437.136719 370.878906 426.988281 370.878906 " fill-opacity="1" fill-rule="nonzero"/></g><g clip-path="url(#id2)"><path fill="#ffffff" d="M 1014.105469 370.878906 C 1003.957031 370.878906 995.730469 379.105469 995.730469 389.253906 C 995.730469 399.402344 1003.957031 407.628906 1014.105469 407.628906 C 1024.25 407.628906 1032.480469 399.402344 1032.480469 389.253906 C 1032.480469 379.105469 1024.25 370.878906 1014.105469 370.878906 " fill-opacity="1" fill-rule="nonzero"/></g><g fill="#ffffff" fill-opacity="1"><g transform="translate(493.360846, 488.813803)"><g><path d="M 21.167969 -185.210938 L 21.167969 0 L 37.308594 0 L 37.308594 -185.210938 Z M 21.167969 -185.210938 "/></g></g></g><g fill="#ffffff" fill-opacity="1"><g transform="translate(552.095593, 488.813803)"><g><path d="M 21.167969 -185.210938 L 21.167969 0 L 37.308594 0 L 37.308594 -185.210938 Z M 21.167969 -185.210938 "/></g></g></g><g fill="#ffffff" fill-opacity="1"><g transform="translate(610.83034, 488.813803)"><g><path d="M 79.113281 -128.324219 L 83.082031 -133.089844 C 91.546875 -143.40625 97.367188 -150.816406 97.367188 -161.664062 C 97.367188 -174.628906 87.578125 -185.210938 68.265625 -185.210938 L 20.109375 -185.210938 L 20.109375 0 L 37.835938 0 C 87.050781 0 107.160156 -36.511719 107.160156 -70.644531 C 107.160156 -100.015625 96.046875 -115.359375 79.113281 -128.324219 Z M 36.25 -169.867188 L 65.882812 -169.867188 C 77.523438 -169.867188 81.230469 -165.632812 81.230469 -159.8125 C 81.230469 -154.253906 78.054688 -148.964844 73.554688 -143.40625 L 36.25 -97.898438 Z M 42.597656 -15.347656 L 36.25 -15.347656 L 36.25 -76.203125 L 68.792969 -115.625 C 80.433594 -107.6875 90.488281 -94.988281 90.488281 -70.378906 C 90.488281 -34.132812 64.824219 -15.347656 42.597656 -15.347656 Z M 42.597656 -15.347656 "/></g></g></g><g fill="#ffffff" fill-opacity="1"><g transform="translate(722.214691, 488.813803)"><g><path d="M 97.632812 -158.222656 C 97.632812 -174.628906 86.519531 -185.210938 62.972656 -185.210938 L 20.375 -185.210938 L 20.375 0 L 36.511719 0 L 36.511719 -68.265625 L 76.464844 -116.683594 C 91.8125 -135.46875 97.632812 -142.878906 97.632812 -158.222656 Z M 66.941406 -127.003906 L 36.511719 -89.960938 L 36.511719 -169.867188 L 63.238281 -169.867188 C 74.878906 -169.867188 80.964844 -165.632812 80.964844 -156.109375 C 80.964844 -146.316406 78.320312 -141.027344 66.941406 -127.003906 Z M 66.941406 -127.003906 "/></g></g></g><g fill="#ffffff" fill-opacity="1"><g transform="translate(824.339044, 488.813803)"><g><path d="M 52.917969 -88.109375 L 91.8125 2.382812 L 106.363281 -5.027344 L 64.558594 -102.132812 L 76.464844 -116.683594 C 91.8125 -135.46875 97.632812 -142.878906 97.632812 -156.902344 C 97.632812 -174.628906 86.519531 -185.210938 62.972656 -185.210938 L 20.375 -185.210938 L 20.375 0 L 36.511719 0 L 36.511719 -68.265625 Z M 36.511719 -89.960938 L 36.511719 -169.867188 L 63.238281 -169.867188 C 74.878906 -169.867188 80.964844 -165.632812 80.964844 -156.109375 C 80.964844 -146.316406 78.320312 -141.027344 66.941406 -127.003906 Z M 36.511719 -89.960938 "/></g></g></g><g clip-path="url(#id3)"><path fill="#ffffff" d="M 550.695312 232.730469 C 540.546875 232.730469 532.320312 240.957031 532.320312 251.105469 C 532.320312 261.253906 540.546875 269.480469 550.695312 269.480469 C 560.84375 269.480469 569.070312 261.253906 569.070312 251.105469 C 569.070312 240.957031 560.84375 232.730469 550.695312 232.730469 " fill-opacity="1" fill-rule="nonzero"/></g><g fill="#ffffff" fill-opacity="1"><g transform="translate(625.901231, 100.238305)"><g><path d="M 12.921875 -36.265625 L 6.984375 -28.890625 L 6.53125 -28.34375 L 5.84375 -28.4375 L 3.59375 -28.84375 L 1.640625 -29.1875 L 2.796875 -30.78125 L 7.984375 -38.109375 L 8.375 -38.765625 L 9.125 -38.671875 L 12.125 -38.3125 L 14.375 -38.0625 Z M 12.921875 -36.265625 "/></g></g></g></svg>