<svg id="Camada_1" data-name="Camada 1" xmlns="http://www.w3.org/2000/svg" xmlns:xlink="http://www.w3.org/1999/xlink" viewBox="0 0 1080 1080"><defs><style>.cls-1{fill:#5fb33e;}.cls-2{fill:#a6d16c;}.cls-3,.cls-5{fill:#6cb350;}.cls-4{fill:#bab2ba;}.cls-5{stroke:#6cb350;stroke-miterlimit:10;stroke-width:2px;}.cls-6{fill:url(#Gradiente_sem_nome_13);}</style><linearGradient id="Gradiente_sem_nome_13" x1="105.11" y1="739.56" x2="791.78" y2="739.56" gradientUnits="userSpaceOnUse"><stop offset="0" stop-color="#bbb3bb"/><stop offset="0.25" stop-color="#cac1cb"/><stop offset="0.4" stop-color="#ded5df"/><stop offset="0.61" stop-color="#b7b0b8"/><stop offset="1" stop-color="#bab1ba"/></linearGradient></defs><path class="cls-1" d="M121,434.91h19.52v224H121Z"/><path class="cls-2" d="M192.06,434.91h19.52v224H192.06Z"/><path class="cls-3" d="M333.17,503.71c20.48,15.68,33.92,34.25,33.92,69.77,0,41.28-24.32,85.44-83.84,85.44H261.81v-224h58.24c23.36,0,35.2,12.8,35.2,28.48,0,13.12-7,22.08-17.28,34.56Zm-51.84-50.24v87l45.12-55c5.44-6.72,9.28-13.12,9.28-19.84,0-7-4.48-12.16-18.56-12.16ZM289,640.36c26.88,0,57.92-22.72,57.92-66.56,0-29.76-12.16-45.13-26.24-54.73l-39.36,47.69v73.6Z"/><path class="cls-3" d="M463.09,517.79l-48.32,58.57v82.56H395.25v-224h51.52c28.48,0,41.92,12.8,41.92,32.64C488.69,486.11,481.65,495.07,463.09,517.79Zm-11.52-12.48c13.76-17,17-23.36,17-35.2,0-11.52-7.36-16.64-21.44-16.64H414.77v96.65Z"/><path class="cls-3" d="M555.57,552.36l-19.84,24v82.56H516.21v-224h51.52c28.48,0,41.92,12.8,41.92,34.24,0,17-7,25.92-25.6,48.64l-14.4,17.61,50.56,117.44-17.6,9Zm-19.84-2.24,36.8-44.81c13.76-17,17-23.36,17-35.2,0-11.52-7.36-16.64-21.44-16.64H535.73Z"/><circle class="cls-3" cx="164" cy="370" r="24"/><circle class="cls-4" cx="647.5" cy="536.5" r="20.5"/><path class="cls-5" d="M722.42,469.28l.05-.68,2.65-.35a.66.66,0,0,0,.61-.63h0v-31h0c-.07-.43-.27-.65-.61-.69l-2.65-.24-.05-.74,10.24-.05s0,.28.05.74l-3.46.29V468.3l3.46.2s0,.28-.05.73Z"/><path class="cls-5" d="M737.29,469.28l.05-.68,2.65-.35c.31,0,.46-.26.46-.68V446.35c-.07-.26-.17-.39-.31-.39l-3.1-.1.05-.69a40.17,40.17,0,0,1,4.33-.44c1.36,0,2.12.58,2.29,1.72h0v1a15.79,15.79,0,0,1,8-2.89,9.44,9.44,0,0,1,5.65,1.42,5.33,5.33,0,0,1,1.55,2,7,7,0,0,1,.69,3.21v17.05l3.82.25s0,.28-.05.73l-10.19,0a3,3,0,0,1,.06-.68l2.64-.35c.28,0,.41-.26.41-.68V452.43a9.4,9.4,0,0,0-.53-3.34,5.63,5.63,0,0,0-1.2-2,4.31,4.31,0,0,0-1.63-1,6.85,6.85,0,0,0-2.34-.4,14.36,14.36,0,0,0-6.88,2.31v20.23l3.82.25s0,.28-.05.73Z"/><path class="cls-5" d="M776.71,468.65a4.32,4.32,0,0,0,.62,0,6.78,6.78,0,0,0,4.43-1.6,5.65,5.65,0,0,0,1.78-4.53q0-2.94-4.79-4.26c-1.32-.36-2.65-.75-4-1.18a8.41,8.41,0,0,1-3.39-2,4.78,4.78,0,0,1-1.4-3.57,6,6,0,0,1,2.5-5,10.21,10.21,0,0,1,6.31-1.88,17.74,17.74,0,0,1,5.76,1l.92.34v5.64l-1,.34-.21-4.17c-2-1.5-3.61-2.25-4.94-2.25a6.09,6.09,0,0,0-4.43,1.59,5.69,5.69,0,0,0-1.63,4.24,2.84,2.84,0,0,0,1.4,2.45,11.72,11.72,0,0,0,3.39,1.47c1.33.36,2.65.76,4,1.2a8,8,0,0,1,3.39,2.16,5.46,5.46,0,0,1,1.4,3.89,6,6,0,0,1-2.52,5.12q-2.52,1.89-7.16,1.89a13.21,13.21,0,0,1-7.69-2.11v-5.63l.92-.35.25,4.17a5.81,5.81,0,0,0,2.58,2.2A7.72,7.72,0,0,0,776.71,468.65Z"/><path class="cls-5" d="M802.69,468.3l2-.09.15.48-.71.15a15.54,15.54,0,0,1-3.41.35,12.6,12.6,0,0,1-3.16-.57,5.77,5.77,0,0,1-2.65-2,5.84,5.84,0,0,1-1.22-3.85V445.62h-2.6l.41-.4,2.24-.44.4-4.7,2.86-.25v4.9h6.16v.89H797V462c0,2.48.54,4.16,1.63,5A6.28,6.28,0,0,0,802.69,468.3Z"/><path class="cls-5" d="M815.32,446.74v21.51l3.82.25s0,.28,0,.73l-10.19,0a3,3,0,0,1,.06-.68l2.64-.35c.21,0,.34-.14.41-.44V446.3c-.07-.23-.17-.34-.3-.34l-3.06-.1.05-.69a29.26,29.26,0,0,1,4.18-.44,2.39,2.39,0,0,1,1.93.64A2.16,2.16,0,0,1,815.32,446.74Zm-1.73-8.57a2.06,2.06,0,0,1-1.58-.61,2.33,2.33,0,0,1-.56-1.62,2.26,2.26,0,0,1,.59-1.62,2.1,2.1,0,0,1,1.6-.61,2.3,2.3,0,0,1,1.66.61,2.23,2.23,0,0,1,.63,1.67,2,2,0,0,1-.66,1.61A2.48,2.48,0,0,1,813.59,438.17Z"/><path class="cls-5" d="M833.56,468.3l2-.09.16.48-.72.15a15.48,15.48,0,0,1-3.41.35,12.68,12.68,0,0,1-3.16-.57,5.82,5.82,0,0,1-2.65-2,5.9,5.9,0,0,1-1.22-3.85V445.62h-2.6l.41-.4,2.24-.44.41-4.7,2.85-.25v4.9H834v.89h-6.16V462c0,2.48.54,4.16,1.63,5A6.33,6.33,0,0,0,833.56,468.3Z"/><path class="cls-5" d="M840.58,445.52l-.05-.74,6.88,0v17.06a8.9,8.9,0,0,0,.56,3.3,5.63,5.63,0,0,0,1.25,2,4.93,4.93,0,0,0,1.6,1,6,6,0,0,0,2.4.39q3.1,0,7.08-3.09v-19a1,1,0,0,0-.87-.69l-2.65-.24a5,5,0,0,1,0-.74l6.88,0V467c.06.82.34,1.23.81,1.23l3.06.14-.05.74a32.35,32.35,0,0,1-5.1.39,2.38,2.38,0,0,1-1.32-.66,1.93,1.93,0,0,1-.71-1.55v-.88a16.34,16.34,0,0,1-8.76,3,12.57,12.57,0,0,1-4.08-.83,4.61,4.61,0,0,1-2.44-2,6.94,6.94,0,0,1-.92-3.74V446.5a.63.63,0,0,0-.28-.47,1.43,1.43,0,0,0-.59-.27Z"/><path class="cls-5" d="M882.4,468.3l2-.09.15.48-.71.15a15.57,15.57,0,0,1-3.42.35,12.6,12.6,0,0,1-3.15-.57,5.72,5.72,0,0,1-2.65-2,5.85,5.85,0,0,1-1.23-3.85V445.62h-2.59l.4-.4,2.25-.44.4-4.7,2.86-.25v4.9h6.16v.89H876.7V462c0,2.48.54,4.16,1.63,5A6.28,6.28,0,0,0,882.4,468.3Z"/><path class="cls-5" d="M899.69,469.43a12.42,12.42,0,0,1-8.61-2.94q-3.29-2.94-3.28-9c0-4,1.16-7.2,3.49-9.51a12,12,0,0,1,8.78-3.45,12.49,12.49,0,0,1,8.61,2.94q3.32,2.94,3.31,9T908.5,466A12,12,0,0,1,899.69,469.43Zm.33-24a7.83,7.83,0,0,0-6.36,3.18q-2.55,3.19-2.55,8.65t2.42,8.38a7.71,7.71,0,0,0,6.24,2.92,7.81,7.81,0,0,0,6.36-3.19c1.7-2.12,2.55-5,2.55-8.62s-.81-6.42-2.42-8.38A7.7,7.7,0,0,0,900,445.42Z"/><path class="cls-5" d="M934.61,469.28l0-.68,2.65-.35a.67.67,0,0,0,.61-.63H938v-31h-.05c-.07-.43-.28-.65-.61-.69l-2.65-.24,0-.74,10.23-.05s0,.28,0,.74l-3.46.29V468.3l3.46.2s0,.28,0,.73Z"/><path class="cls-5" d="M959.31,468.3l2-.09.16.48-.72.15a15.41,15.41,0,0,1-3.41.35,12.68,12.68,0,0,1-3.16-.57,5.75,5.75,0,0,1-2.64-2,5.85,5.85,0,0,1-1.23-3.85V445.62H947.7l.4-.4,2.24-.44.41-4.7,2.85-.25v4.9h6.17v.89H953.6V462c0,2.48.55,4.16,1.63,5A6.33,6.33,0,0,0,959.31,468.3Z"/><path class="cls-5" d="M981.87,467.37h-.15a21.75,21.75,0,0,1-8.91,2.06q-6.78,0-7.19-5.15a4.83,4.83,0,0,1,0-.63q0-3.78,5.15-5,3-.63,11-1.52v-4.31a10.83,10.83,0,0,0-.51-3.53,6.83,6.83,0,0,0-1.12-2.18,4,4,0,0,0-1.58-1.1,7.16,7.16,0,0,0-2.72-.49,9.8,9.8,0,0,0-3.44.73,20.4,20.4,0,0,0-5,2.85l-.21,3.82-1,.24v-5.93l.51-.19a30.14,30.14,0,0,1,6.06-2,26.06,26.06,0,0,1,3.06-.37c.65,0,1.27,0,1.86,0a11.54,11.54,0,0,1,2.32.44,8.34,8.34,0,0,1,2.47,1.1,5.87,5.87,0,0,1,1.81,2.13,7.06,7.06,0,0,1,.76,3.38v15c0,1,.27,1.52.81,1.52l3.11.14-.05.74a38,38,0,0,1-5.09.39,2.32,2.32,0,0,1-1.28-.61A1.89,1.89,0,0,1,981.87,467.37Zm-8.15,1.28a15.58,15.58,0,0,0,8-2.55V458c-5.09.17-8.3.45-9.6.86a4.46,4.46,0,0,0-2.7,1.91,5.2,5.2,0,0,0-.74,2.57v.49a4.8,4.8,0,0,0,1.58,3.68A5.41,5.41,0,0,0,973.72,468.65Zm7.95-36.17,1.53.35-6.06,7.25-.77-.39Z"/><path class="cls-5" d="M992.52,469.28l.05-.68,2.64-.35a.53.53,0,0,0,.46-.49V434.25q0-.54-.3-.54l-3.11-.1,0-.69a39.89,39.89,0,0,1,4.41-.44,2.16,2.16,0,0,1,1.73.64,2.08,2.08,0,0,1,.53,1.37v33.76l3.82.25s0,.28,0,.73Z"/><path class="cls-5" d="M1020.3,469.43a12.42,12.42,0,0,1-8.61-2.94q-3.29-2.94-3.28-9c0-4,1.16-7.2,3.49-9.51a12,12,0,0,1,8.78-3.45,12.49,12.49,0,0,1,8.61,2.94q3.32,2.94,3.31,9t-3.49,9.51A12,12,0,0,1,1020.3,469.43Zm.33-24a7.85,7.85,0,0,0-6.37,3.18q-2.53,3.19-2.54,8.65c0,3.65.8,6.44,2.42,8.38a7.71,7.71,0,0,0,6.24,2.92,7.82,7.82,0,0,0,6.36-3.19c1.7-2.12,2.55-5,2.55-8.62s-.81-6.42-2.42-8.38A7.7,7.7,0,0,0,1020.63,445.42Z"/><path class="cls-5" d="M722.42,494.47l.05-.74h10.9q11,0,11,8.28,0,3.19-4.38,7,6.46,1.53,6.47,8.92,0,5.79-3,8c-2,1.46-5.12,2.18-9.29,2.18h-1.48l-10.24.05.05-.68,2.65-.35a.66.66,0,0,0,.61-.63v-31c-.07-.43-.27-.65-.61-.69Zm13,14.06a23.61,23.61,0,0,1,3.26.2,11.79,11.79,0,0,0,2.24-6.42q0-7.85-7.79-7.84h-3.93v14.06Zm-.26.74h-6v18h4.69q9.12,0,9.12-9.21c0-3.14-.66-5.39-2-6.77S737.77,509.27,735.15,509.27Z"/><path class="cls-5" d="M757.11,505.54v3.92q4-5.68,7.89-5.78h.61l2.85.34L767.14,507a3.45,3.45,0,0,0-2.5-.93c-2.47,0-5,1.62-7.53,4.76v16.26l4.33.25s0,.28-.06.73l-10.69.05a3.86,3.86,0,0,1,0-.68l2.65-.35c.27,0,.41-.26.41-.68V505.1c-.07-.23-.17-.34-.31-.34l-3.06-.1.06-.69a29.15,29.15,0,0,1,4.17-.44,2.41,2.41,0,0,1,1.94.64A2.16,2.16,0,0,1,757.11,505.54Z"/><path class="cls-5" d="M789.09,526.17h-.15a21.75,21.75,0,0,1-8.91,2.06q-6.78,0-7.19-5.15a4.83,4.83,0,0,1-.05-.63q0-3.78,5.15-5.05,3.06-.63,11-1.52v-4.31a10.83,10.83,0,0,0-.51-3.53,6.72,6.72,0,0,0-1.12-2.18,4,4,0,0,0-1.58-1.1,7.16,7.16,0,0,0-2.72-.49,9.8,9.8,0,0,0-3.44.73,20.4,20.4,0,0,0-5,2.85l-.21,3.82-1,.24V506l.51-.19a29.74,29.74,0,0,1,6.06-2,25.71,25.71,0,0,1,3-.37c.65,0,1.27,0,1.86,0a11.54,11.54,0,0,1,2.32.44,8.34,8.34,0,0,1,2.47,1.1,5.87,5.87,0,0,1,1.81,2.13,7.06,7.06,0,0,1,.76,3.38v15c0,1,.27,1.51.82,1.51l3.1.15,0,.74a38,38,0,0,1-5.09.39,2.35,2.35,0,0,1-1.28-.61A1.89,1.89,0,0,1,789.09,526.17Zm-8.15,1.28a15.58,15.58,0,0,0,8-2.55v-8.09c-5.09.17-8.29.45-9.6.86a4.46,4.46,0,0,0-2.7,1.91,5.2,5.2,0,0,0-.74,2.57v.49a4.8,4.8,0,0,0,1.58,3.68A5.41,5.41,0,0,0,780.94,527.45Z"/><path class="cls-5" d="M808.34,527.45a4.32,4.32,0,0,0,.62-.05,6.78,6.78,0,0,0,4.43-1.6,5.65,5.65,0,0,0,1.78-4.53q0-2.94-4.79-4.26c-1.32-.36-2.65-.75-4-1.18a8.35,8.35,0,0,1-3.39-2,4.78,4.78,0,0,1-1.4-3.57,6,6,0,0,1,2.5-5,10.21,10.21,0,0,1,6.31-1.88,17.79,17.79,0,0,1,5.76,1l.92.34v5.64l-1,.34-.21-4.17c-2-1.5-3.61-2.25-4.94-2.25a6.09,6.09,0,0,0-4.43,1.59,5.69,5.69,0,0,0-1.63,4.24,2.84,2.84,0,0,0,1.4,2.45,11.72,11.72,0,0,0,3.39,1.47c1.32.36,2.65.76,4,1.2a8,8,0,0,1,3.39,2.16,5.46,5.46,0,0,1,1.4,3.89,6,6,0,0,1-2.52,5.12q-2.52,1.89-7.16,1.89a13.21,13.21,0,0,1-7.69-2.11v-5.63l.92-.35.25,4.17a5.81,5.81,0,0,0,2.58,2.2A7.72,7.72,0,0,0,808.34,527.45Z"/><path class="cls-5" d="M830.25,505.54v21.51l3.82.25s0,.28-.06.73l-10.18.05a3.08,3.08,0,0,1,0-.68l2.65-.35c.2,0,.34-.14.41-.44V505.1c-.07-.23-.18-.34-.31-.34l-3.06-.1,0-.69a29.4,29.4,0,0,1,4.18-.44,2.41,2.41,0,0,1,1.94.64A2.16,2.16,0,0,1,830.25,505.54ZM828.51,497a2,2,0,0,1-1.57-.62,2.57,2.57,0,0,1,0-3.23,2.12,2.12,0,0,1,1.61-.61,2.29,2.29,0,0,1,1.65.61,2.22,2.22,0,0,1,.64,1.67,2,2,0,0,1-.66,1.61A2.52,2.52,0,0,1,828.51,497Z"/><path class="cls-5" d="M839.16,528.08l.05-.68,2.65-.35c.24,0,.39-.19.46-.49V493.05c0-.36-.11-.54-.31-.54l-3.11-.1.06-.69a39.56,39.56,0,0,1,4.4-.44,2.14,2.14,0,0,1,1.73.64,2.09,2.09,0,0,1,.54,1.37v33.76l3.82.25s0,.28-.05.73Z"/><path class="cls-5" d="M858.36,516.76q0,10.59,8.56,10.59a26.83,26.83,0,0,0,4.79-.47A12.87,12.87,0,0,0,875,526l.36.49a11.6,11.6,0,0,1-3.84,1.23,27.13,27.13,0,0,1-4.89.49,16.66,16.66,0,0,1-4-.44,13.23,13.23,0,0,1-3.59-1.57,7.61,7.61,0,0,1-2.9-3.53,14.47,14.47,0,0,1-1.07-5.88q0-6.46,3.46-9.9a11.61,11.61,0,0,1,8.41-3.57c3.19,0,5.62.85,7.31,2.55a9.71,9.71,0,0,1,2.52,7.15,14.61,14.61,0,0,1-.16,2.11H858.41C858.38,515.51,858.36,516.05,858.36,516.76Zm15.38-4.06a10.05,10.05,0,0,0-1.68-6,5.35,5.35,0,0,0-4.58-2.32,7.93,7.93,0,0,0-6.37,3.18,12.57,12.57,0,0,0-2.6,6.67h15.18C873.72,513.86,873.74,513.35,873.74,512.7Z"/><path class="cls-5" d="M888.51,505.54v21.51l3.82.25s0,.28-.05.73l-10.18.05a3.08,3.08,0,0,1,0-.68l2.64-.35c.21,0,.34-.14.41-.44V505.1c-.07-.23-.17-.34-.3-.34l-3.06-.1,0-.69a29.4,29.4,0,0,1,4.18-.44,2.39,2.39,0,0,1,1.93.64A2.16,2.16,0,0,1,888.51,505.54ZM886.78,497a2,2,0,0,1-1.58-.62,2.29,2.29,0,0,1-.56-1.61,2.26,2.26,0,0,1,.59-1.62,2.1,2.1,0,0,1,1.6-.61,2.3,2.3,0,0,1,1.66.61,2.22,2.22,0,0,1,.63,1.67,2,2,0,0,1-.66,1.61A2.48,2.48,0,0,1,886.78,497Z"/><path class="cls-5" d="M903.33,505.54v3.92q4-5.68,7.9-5.78h.61l2.85.34L913.37,507a3.47,3.47,0,0,0-2.5-.93q-3.72.06-7.54,4.76v16.26l4.33.25s0,.28,0,.73l-10.69.05a3.08,3.08,0,0,1,.05-.68l2.65-.35c.27,0,.4-.26.4-.68V505.1c-.06-.23-.17-.34-.3-.34l-3.06-.1.05-.69a29.4,29.4,0,0,1,4.18-.44,2.41,2.41,0,0,1,1.94.64A2.15,2.15,0,0,1,903.33,505.54Z"/><path class="cls-5" d="M929.13,528.23a12.42,12.42,0,0,1-8.61-2.94q-3.28-2.94-3.28-9c0-4,1.16-7.2,3.49-9.51a12,12,0,0,1,8.78-3.45,12.49,12.49,0,0,1,8.61,2.94q3.32,2.94,3.31,9t-3.49,9.51A12,12,0,0,1,929.13,528.23Zm.33-24a7.83,7.83,0,0,0-6.36,3.18q-2.55,3.19-2.55,8.65t2.42,8.38a7.71,7.71,0,0,0,6.24,2.92,7.84,7.84,0,0,0,6.37-3.19c1.69-2.12,2.54-5,2.54-8.62s-.81-6.42-2.42-8.38A7.7,7.7,0,0,0,929.46,504.22Z"/><path class="cls-5" d="M984.57,493.29v32.2c0,1,.27,1.51.82,1.51l3.05.15-.05.74a32.31,32.31,0,0,1-5.09.39,2.31,2.31,0,0,1-1.2-.54,1.88,1.88,0,0,1-.74-1.27,12.71,12.71,0,0,1-6.72,1.76,12.58,12.58,0,0,1-6.88-2,7.88,7.88,0,0,1-2.87-3.55,14.33,14.33,0,0,1-1.1-5.91q0-6.42,3.41-9.8a11.37,11.37,0,0,1,8.26-3.62,13.27,13.27,0,0,1,5.8,1.42V493.05q0-.54-.3-.54l-3.11-.1,0-.69a39.89,39.89,0,0,1,4.41-.44,2.17,2.17,0,0,1,1.73.64A2.13,2.13,0,0,1,984.57,493.29Zm-9.27,34.06a13.89,13.89,0,0,0,6-1.33V505.54a8.83,8.83,0,0,0-11.48,1.91q-2.68,3.24-2.68,9.26Q967.1,527.34,975.3,527.35Z"/><path class="cls-5" d="M997.87,516.76q0,10.59,8.55,10.59a26.74,26.74,0,0,0,4.79-.47,13,13,0,0,0,3.26-.86l.36.49a11.76,11.76,0,0,1-3.85,1.23,27,27,0,0,1-4.89.49,16.51,16.51,0,0,1-4-.44,13.1,13.1,0,0,1-3.59-1.57,7.62,7.62,0,0,1-2.91-3.53,14.47,14.47,0,0,1-1.07-5.88q0-6.46,3.47-9.9a11.59,11.59,0,0,1,8.4-3.57q4.79,0,7.31,2.55a9.71,9.71,0,0,1,2.52,7.15,16.09,16.09,0,0,1-.15,2.11H997.92C997.88,515.51,997.87,516.05,997.87,516.76Zm15.38-4.06a10.05,10.05,0,0,0-1.68-6,5.36,5.36,0,0,0-4.59-2.32,7.92,7.92,0,0,0-6.36,3.18,12.49,12.49,0,0,0-2.6,6.67h15.18C1013.23,513.86,1013.25,513.35,1013.25,512.7Z"/><path class="cls-5" d="M722.42,553.12l.1-.59h10.6q6.25,0,9.29,2.06t3,7.77q0,5.7-3.13,8.43t-9.19,2.72h-3.93V585.9l3.52.2s0,.28-.05.73l-10.19,0a3.86,3.86,0,0,1,0-.68l2.65-.35a.72.72,0,0,0,.56-.44V554.05a.75.75,0,0,0-.56-.49l-2.7-.29A.21.21,0,0,1,722.42,553.12Zm10.44.15h-3.67v19.5h3.67q4.59,0,6.85-2.35t2.27-7.87c0-3.67-.75-6.14-2.24-7.39S736,553.27,732.86,553.27Z"/><path class="cls-5" d="M756.49,586.25a4.32,4.32,0,0,0,.62,0,6.73,6.73,0,0,0,4.43-1.6,5.68,5.68,0,0,0,1.78-4.53q0-2.94-4.79-4.26c-1.32-.36-2.65-.75-4-1.18a8.35,8.35,0,0,1-3.39-2,4.78,4.78,0,0,1-1.4-3.57,6,6,0,0,1,2.5-5,10.21,10.21,0,0,1,6.31-1.88,17.79,17.79,0,0,1,5.76,1l.91.34v5.64l-1,.34-.21-4.17c-2-1.5-3.61-2.25-4.94-2.25a6.09,6.09,0,0,0-4.43,1.59,5.65,5.65,0,0,0-1.63,4.24,2.84,2.84,0,0,0,1.4,2.45,11.6,11.6,0,0,0,3.39,1.47c1.32.36,2.65.76,4,1.2a8,8,0,0,1,3.39,2.16,5.46,5.46,0,0,1,1.4,3.89,6,6,0,0,1-2.52,5.12Q761.59,587,757,587a13.21,13.21,0,0,1-7.69-2.11v-5.63l.92-.34.25,4.16a5.83,5.83,0,0,0,2.58,2.21A7.83,7.83,0,0,0,756.49,586.25Z"/><path class="cls-5" d="M778.4,564.34v21.51l3.81.25s0,.28-.05.73l-10.18,0a3.08,3.08,0,0,1,0-.68l2.65-.35c.2,0,.34-.14.4-.44V563.9c-.06-.23-.17-.34-.3-.34l-3.06-.1,0-.68a28.28,28.28,0,0,1,4.18-.45,2.41,2.41,0,0,1,1.94.64A2.22,2.22,0,0,1,778.4,564.34Zm-1.74-8.57a2.07,2.07,0,0,1-1.58-.61,2.33,2.33,0,0,1-.56-1.62,2.26,2.26,0,0,1,.59-1.62,2.11,2.11,0,0,1,1.6-.61,2.3,2.3,0,0,1,1.66.61,2.24,2.24,0,0,1,.64,1.67,2,2,0,0,1-.67,1.61A2.48,2.48,0,0,1,776.66,555.77Z"/><path class="cls-5" d="M801.32,563a8.64,8.64,0,0,0-7,3.26q-2.67,3.26-2.67,9.23,0,10.63,8.4,10.64a23.11,23.11,0,0,0,5.66-.61,18.82,18.82,0,0,0,2.54-.76l.36.54a11.93,11.93,0,0,1-3.87,1.22,27.31,27.31,0,0,1-4.89.49,16.69,16.69,0,0,1-4-.44,12.77,12.77,0,0,1-3.6-1.57,7.63,7.63,0,0,1-2.87-3.55,14.52,14.52,0,0,1-1.07-5.91q0-6.4,3.41-9.7a13.17,13.17,0,0,1,9.63-3.77,17.65,17.65,0,0,1,3.89.46,7.34,7.34,0,0,1,3.19,1.45v6.42l-1,.34-.26-5.14a9.31,9.31,0,0,0-2.72-1.87A7.58,7.58,0,0,0,801.32,563Z"/><path class="cls-5" d="M824.57,587a12.42,12.42,0,0,1-8.61-2.94q-3.29-2.94-3.29-9c0-4,1.17-7.2,3.49-9.51a12,12,0,0,1,8.79-3.45,12.49,12.49,0,0,1,8.61,2.94q3.3,2.94,3.31,9t-3.49,9.51A12,12,0,0,1,824.57,587Zm.33-24a7.83,7.83,0,0,0-6.37,3.19q-2.55,3.18-2.55,8.64t2.42,8.38a7.74,7.74,0,0,0,6.24,2.92A7.83,7.83,0,0,0,831,583c1.7-2.12,2.55-5,2.55-8.62s-.81-6.42-2.42-8.38A7.73,7.73,0,0,0,824.9,563Z"/><path class="cls-5" d="M841.71,586.88l0-.68,2.64-.35c.24,0,.39-.19.46-.49V551.85q0-.54-.3-.54l-3.11-.1,0-.68a38.22,38.22,0,0,1,4.41-.45,2.16,2.16,0,0,1,1.73.64,2.08,2.08,0,0,1,.53,1.37v33.76l3.82.25s0,.28,0,.73Z"/><path class="cls-5" d="M869.49,587a12.42,12.42,0,0,1-8.61-2.94q-3.28-2.94-3.28-9c0-4,1.16-7.2,3.48-9.51a12,12,0,0,1,8.79-3.45,12.49,12.49,0,0,1,8.61,2.94q3.32,2.94,3.31,9t-3.49,9.51A12,12,0,0,1,869.49,587Zm.33-24a7.83,7.83,0,0,0-6.37,3.19c-1.7,2.12-2.54,5-2.54,8.64s.8,6.44,2.42,8.38a7.71,7.71,0,0,0,6.24,2.92,7.82,7.82,0,0,0,6.36-3.19c1.7-2.12,2.55-5,2.55-8.62s-.81-6.42-2.42-8.38A7.7,7.7,0,0,0,869.82,563Z"/><path class="cls-5" d="M885.15,591.88q0-4.61,5.81-7.89c-1.67-.88-2.5-2-2.5-3.35a3.5,3.5,0,0,1,2-3.17c-2.65-1.14-4-3.55-4-7.25a7,7,0,0,1,3-5.93,12.51,12.51,0,0,1,7.54-2.15,16.38,16.38,0,0,1,4.07.49l8.51-.49-.1,1.86-6.07-.34a6.83,6.83,0,0,1,3.32,6.22,7.62,7.62,0,0,1-2.81,6.37,11.31,11.31,0,0,1-7.23,2.21,19.54,19.54,0,0,1-4.84-.5,3.07,3.07,0,0,0-.86,2.16,3.36,3.36,0,0,0,1.83,3.19,23.59,23.59,0,0,0,7,2c.78.13,1.35.23,1.71.31s.87.19,1.55.32a13.32,13.32,0,0,1,1.53.37c.34.12.77.28,1.3.49a6.11,6.11,0,0,1,1.19.61c.27.2.58.44.92.74a2.92,2.92,0,0,1,.76,1,7.2,7.2,0,0,1,.56,3,5.43,5.43,0,0,1-1.07,3.21,6.66,6.66,0,0,1-3,2.31,21.85,21.85,0,0,1-8.4,1.51q-6.27,0-9-2.13A6.23,6.23,0,0,1,885.15,591.88Zm6.62-7.5q-3.32,3.48-3.31,6.82a6.62,6.62,0,0,0,2,5.16q2,1.85,6.14,1.84a13.56,13.56,0,0,0,6.8-1.52,5.17,5.17,0,0,0,2.67-4.85,4.46,4.46,0,0,0-1.7-3.87,12.12,12.12,0,0,0-4.82-1.81A50.41,50.41,0,0,1,891.77,584.38Zm0-19.72q-1.93,1.89-1.93,5.66c0,2.52.49,4.39,1.47,5.64s2.59,1.86,4.82,1.86a6.68,6.68,0,0,0,5.24-2.13,8.28,8.28,0,0,0,1.91-5.76q0-7.15-6.42-7.15A7,7,0,0,0,891.77,564.66Z"/><path class="cls-5" d="M920.6,564.34v21.51l3.82.25s0,.28,0,.73l-10.19,0a3.86,3.86,0,0,1,.05-.68l2.65-.35c.2,0,.34-.14.41-.44V563.9c-.07-.23-.17-.34-.31-.34l-3.05-.1.05-.68a28,28,0,0,1,4.17-.45,2.41,2.41,0,0,1,1.94.64A2.16,2.16,0,0,1,920.6,564.34Zm-1.73-8.57a2.06,2.06,0,0,1-1.58-.61,2.33,2.33,0,0,1-.56-1.62,2.25,2.25,0,0,1,.58-1.62,2.12,2.12,0,0,1,1.61-.61,2.26,2.26,0,0,1,1.65.61,2.2,2.2,0,0,1,.64,1.67,2,2,0,0,1-.66,1.61A2.48,2.48,0,0,1,918.87,555.77Z"/><path class="cls-5" d="M946.07,585h-.16A21.68,21.68,0,0,1,937,587q-6.78,0-7.18-5.15a3.55,3.55,0,0,1-.05-.63q0-3.78,5.14-5,3.06-.63,11-1.52v-4.31a10.83,10.83,0,0,0-.51-3.53,6.83,6.83,0,0,0-1.12-2.18,4,4,0,0,0-1.57-1.1,7.25,7.25,0,0,0-2.73-.49,9.85,9.85,0,0,0-3.44.73,20.4,20.4,0,0,0-5,2.85l-.2,3.82-1,.24v-5.93l.51-.19a30.14,30.14,0,0,1,6.06-2,25.71,25.71,0,0,1,3-.37c.65,0,1.27,0,1.86,0a11.42,11.42,0,0,1,2.32.44,8.23,8.23,0,0,1,2.47,1.1,5.78,5.78,0,0,1,1.81,2.13,7.06,7.06,0,0,1,.76,3.38v15c0,1,.28,1.51.82,1.51l3.11.15-.06.74a37.89,37.89,0,0,1-5.09.39,2.29,2.29,0,0,1-1.27-.61A1.89,1.89,0,0,1,946.07,585Zm-8.15,1.28a15.58,15.58,0,0,0,8-2.55v-8.09c-5.09.17-8.29.45-9.6.86a4.49,4.49,0,0,0-2.7,1.91,5.19,5.19,0,0,0-.73,2.57v.49a4.79,4.79,0,0,0,1.57,3.68A5.44,5.44,0,0,0,937.92,586.25Z"/><path class="cls-5" d="M996,552.09v32.2c0,1,.27,1.51.82,1.51l3,.15,0,.74a32.31,32.31,0,0,1-5.09.39,2.27,2.27,0,0,1-1.2-.54,1.88,1.88,0,0,1-.74-1.27A12.71,12.71,0,0,1,986.1,587a12.58,12.58,0,0,1-6.88-2,7.9,7.9,0,0,1-2.88-3.55,14.34,14.34,0,0,1-1.09-5.91q0-6.4,3.41-9.8a11.37,11.37,0,0,1,8.25-3.62,13.31,13.31,0,0,1,5.81,1.42V551.85c0-.36-.1-.54-.31-.54l-3.1-.1.05-.68a38.32,38.32,0,0,1,4.4-.45,2.18,2.18,0,0,1,1.74.64A2.13,2.13,0,0,1,996,552.09Zm-9.27,34.06a14,14,0,0,0,6-1.32V564.34a8.85,8.85,0,0,0-11.49,1.91q-2.67,3.24-2.67,9.26Q978.56,586.15,986.76,586.15Z"/><path class="cls-5" d="M1021.55,585h-.15a21.76,21.76,0,0,1-8.92,2.06q-6.76,0-7.18-5.15a4.83,4.83,0,0,1,0-.63q0-3.78,5.14-5,3.06-.63,11-1.52v-4.31a11.11,11.11,0,0,0-.51-3.53,7,7,0,0,0-1.12-2.18,4.12,4.12,0,0,0-1.58-1.1,7.25,7.25,0,0,0-2.73-.49,9.85,9.85,0,0,0-3.44.73,20.59,20.59,0,0,0-5,2.85l-.2,3.82-1,.24v-5.93l.51-.19a30.14,30.14,0,0,1,6.06-2,25.59,25.59,0,0,1,3.06-.37c.64,0,1.26,0,1.86,0a11.47,11.47,0,0,1,2.31.44,8.23,8.23,0,0,1,2.47,1.1,5.78,5.78,0,0,1,1.81,2.13,7.06,7.06,0,0,1,.77,3.38v15c0,1,.27,1.51.81,1.51l3.11.15-.05.74a38.14,38.14,0,0,1-5.1.39,2.32,2.32,0,0,1-1.27-.61A1.89,1.89,0,0,1,1021.55,585Zm-8.15,1.28a15.61,15.61,0,0,0,8-2.55v-8.09c-5.1.17-8.3.45-9.61.86a4.52,4.52,0,0,0-2.7,1.91,5.19,5.19,0,0,0-.73,2.57v.49a4.77,4.77,0,0,0,1.58,3.68A5.41,5.41,0,0,0,1013.4,586.25Z"/><path class="cls-5" d="M722.27,612.07l.05-.74H734.7q5.24,0,8.09,2.21a7.76,7.76,0,0,1,2.86,6.56,10.1,10.1,0,0,1-2.27,5.93,11.77,11.77,0,0,1-4.25,4l9.42,14.75,2.49.15s0,.28,0,.73l-5.55,0-9.67-15.09H729V644.7l3.57.2s0,.28,0,.73l-10.24,0,.05-.68,2.65-.35a.76.76,0,0,0,.56-.44V612.85a.67.67,0,0,0-.56-.49Zm12.17,0H729v17.79h8.71a18.78,18.78,0,0,0,3.57-5.12,11.42,11.42,0,0,0,.91-4.34c0-2.74-.66-4.82-2-6.22A7.54,7.54,0,0,0,734.44,612.07Z"/><path class="cls-5" d="M756,634.36q0,10.59,8.55,10.59a26.74,26.74,0,0,0,4.79-.47,13,13,0,0,0,3.26-.86l.36.5a12,12,0,0,1-3.85,1.22,27,27,0,0,1-4.89.49,16.57,16.57,0,0,1-4-.44,13.1,13.1,0,0,1-3.59-1.57,7.68,7.68,0,0,1-2.91-3.53,14.48,14.48,0,0,1-1.06-5.88q0-6.46,3.46-9.9a11.59,11.59,0,0,1,8.4-3.57q4.78,0,7.31,2.55a9.71,9.71,0,0,1,2.52,7.15,16.09,16.09,0,0,1-.15,2.11H756.09C756.05,633.11,756,633.65,756,634.36Zm15.38-4.06a10.05,10.05,0,0,0-1.68-6,5.36,5.36,0,0,0-4.59-2.32,7.92,7.92,0,0,0-6.36,3.18,12.49,12.49,0,0,0-2.6,6.67h15.18C771.4,631.46,771.42,631,771.42,630.3Z"/><path class="cls-5" d="M779.77,645.68l.05-.68,2.65-.35c.24,0,.39-.19.46-.49V610.65c0-.36-.1-.54-.31-.54l-3.1-.1.05-.68a38.32,38.32,0,0,1,4.4-.45,2.18,2.18,0,0,1,1.74.64,2.13,2.13,0,0,1,.53,1.37v33.76l3.82.25s0,.28,0,.73Z"/><path class="cls-5" d="M811.2,643.77H811a21.68,21.68,0,0,1-8.91,2.06q-6.76,0-7.18-5.15a4.83,4.83,0,0,1-.05-.63q0-3.78,5.14-5,3.06-.63,11-1.52v-4.31a11.12,11.12,0,0,0-.5-3.53,7,7,0,0,0-1.12-2.18,4.12,4.12,0,0,0-1.58-1.1,7.25,7.25,0,0,0-2.73-.49,9.85,9.85,0,0,0-3.44.73,20.4,20.4,0,0,0-5,2.85l-.2,3.82-1,.24v-5.93l.51-.19a30.14,30.14,0,0,1,6.06-2,25.59,25.59,0,0,1,3.06-.37c.64,0,1.26,0,1.86,0a11.47,11.47,0,0,1,2.31.44,8.23,8.23,0,0,1,2.47,1.1,5.78,5.78,0,0,1,1.81,2.13,7.06,7.06,0,0,1,.77,3.38v15c0,1,.27,1.51.81,1.51l3.11.15,0,.74a38.14,38.14,0,0,1-5.1.39,2.32,2.32,0,0,1-1.27-.61A1.89,1.89,0,0,1,811.2,643.77Zm-8.15,1.28a15.55,15.55,0,0,0,8-2.55v-8.09c-5.09.17-8.29.45-9.6.86a4.52,4.52,0,0,0-2.7,1.91,5.19,5.19,0,0,0-.73,2.57v.49a4.79,4.79,0,0,0,1.57,3.68A5.46,5.46,0,0,0,803.05,645.05Z"/><path class="cls-5" d="M833.81,621.82a8.62,8.62,0,0,0-7,3.26c-1.78,2.17-2.68,5.25-2.68,9.23q0,10.63,8.41,10.64a22.46,22.46,0,0,0,5.65-.62,19,19,0,0,0,2.55-.75l.35.54a11.93,11.93,0,0,1-3.87,1.22,27.31,27.31,0,0,1-4.89.49,16.75,16.75,0,0,1-4-.44,12.72,12.72,0,0,1-3.59-1.57,7.65,7.65,0,0,1-2.88-3.55,14.69,14.69,0,0,1-1.07-5.91q0-6.42,3.42-9.7a13.13,13.13,0,0,1,9.62-3.77,17.81,17.81,0,0,1,3.9.46,7.35,7.35,0,0,1,3.18,1.45v6.42l-1,.34-.25-5.14a9.3,9.3,0,0,0-2.73-1.87A7.58,7.58,0,0,0,833.81,621.82Zm-5,29.6q3.82-1.27,3.82-3.53a6.82,6.82,0,0,0-.36-2.26l1.79-.29a5.16,5.16,0,0,1,.4,1.86,4.49,4.49,0,0,1-1.5,3.31,7.57,7.57,0,0,1-3.64,1.93Z"/><path class="cls-5" d="M863.91,643.77h-.15a21.75,21.75,0,0,1-8.91,2.06q-6.78,0-7.19-5.15a4.83,4.83,0,0,1,0-.63q0-3.78,5.15-5,3-.63,11-1.52v-4.31a10.83,10.83,0,0,0-.51-3.53,6.83,6.83,0,0,0-1.12-2.18,4,4,0,0,0-1.58-1.1,7.16,7.16,0,0,0-2.72-.49,9.8,9.8,0,0,0-3.44.73,20.4,20.4,0,0,0-5,2.85l-.21,3.82-1,.24v-5.93l.51-.19a30.14,30.14,0,0,1,6.06-2,26.06,26.06,0,0,1,3.06-.37c.65,0,1.27,0,1.86,0a11.54,11.54,0,0,1,2.32.44,8.34,8.34,0,0,1,2.47,1.1,5.87,5.87,0,0,1,1.81,2.13,7.06,7.06,0,0,1,.76,3.38v15c0,1,.27,1.51.81,1.51l3.11.15,0,.74a38,38,0,0,1-5.09.39,2.32,2.32,0,0,1-1.28-.61A1.89,1.89,0,0,1,863.91,643.77Zm-11.25-30.18a36.06,36.06,0,0,1,5.24.83,33.34,33.34,0,0,0,5.58.83,3.19,3.19,0,0,0,2-.44,3.12,3.12,0,0,0,.82-1.52l.81.2a5.11,5.11,0,0,1-1.4,2.82,3.34,3.34,0,0,1-2.24.81,31.23,31.23,0,0,1-5.22-.86,30.62,30.62,0,0,0-5.86-.86c-1.87,0-2.95.57-3.26,1.72l-.71-.2C848.84,614.7,850.24,613.59,852.66,613.59Zm3.1,31.46a15.58,15.58,0,0,0,8-2.55v-8.09c-5.09.17-8.3.45-9.6.86a4.46,4.46,0,0,0-2.7,1.91,5.2,5.2,0,0,0-.74,2.57v.49a4.8,4.8,0,0,0,1.58,3.68A5.41,5.41,0,0,0,855.76,645.05Z"/><path class="cls-5" d="M885.63,645.83a12.41,12.41,0,0,1-8.6-2.94q-3.28-2.94-3.29-9c0-4,1.17-7.2,3.49-9.51a12,12,0,0,1,8.79-3.45,12.45,12.45,0,0,1,8.6,2.94q3.32,2.94,3.32,9t-3.49,9.51A12,12,0,0,1,885.63,645.83Zm.34-24A7.85,7.85,0,0,0,879.6,625q-2.55,3.19-2.55,8.65t2.42,8.38a7.73,7.73,0,0,0,6.24,2.92,7.83,7.83,0,0,0,6.37-3.19c1.7-2.12,2.54-5,2.54-8.62s-.8-6.42-2.41-8.38A7.73,7.73,0,0,0,886,621.82Z"/><path class="cls-6" d="M108,746s257-77,380-32,205,40,205,40,47,4,89-43c0,0,22-5,0,16s-62,40-62,40-91.5,39.5-220.5-23.5c0,0-77-43-264-10,0,0-98,15-120,25C115.5,758.5,98.5,760.5,108,746Z"/></svg>