<svg width="916" height="578" viewBox="0 0 916 578" fill="none" xmlns="http://www.w3.org/2000/svg">
<path d="M21.3628 118.884H47.3908V417.557H21.3628V118.884Z" fill="#5FB33E"/>
<path d="M116.076 118.884H142.104V417.557H116.076V118.884Z" fill="#A6D16C"/>
<path d="M245.35 392.81C281.191 392.81 322.578 362.515 322.578 304.061C322.578 264.381 306.365 243.899 287.591 231.099L235.11 294.674V392.81H245.35ZM235.11 143.631V259.687L295.271 186.299C302.525 177.338 307.645 168.805 307.645 159.845C307.645 150.458 301.671 143.631 282.898 143.631H235.11ZM304.231 210.619C331.539 231.526 349.459 256.274 349.459 303.634C349.459 358.675 317.031 417.558 237.67 417.558H209.083V118.885H286.738C317.885 118.885 333.673 135.95 333.673 156.858C333.673 174.351 324.286 186.299 310.631 202.939L304.231 210.619Z" fill="#6CB350"/>
<path d="M462.099 212.753C480.446 190.139 484.712 181.606 484.712 165.818C484.712 150.458 474.899 143.631 456.126 143.631H413.031V272.487L462.099 212.753ZM477.459 229.393L413.031 307.475V417.558H387.004V118.885H455.699C493.674 118.885 511.594 135.95 511.594 162.405C511.594 187.153 502.207 199.099 477.459 229.393" fill="#6CB350"/>
<path d="M574.308 272.487L623.375 212.752C641.723 190.139 645.99 181.605 645.99 165.819C645.99 150.457 636.176 143.631 617.403 143.631H574.308V272.487ZM600.762 275.473L574.308 307.475V417.557H548.28V118.884H616.975C654.95 118.884 672.87 135.951 672.87 164.539C672.87 187.152 663.483 199.099 638.736 229.393L619.535 252.86L686.951 409.451L663.483 421.397L600.762 275.473Z" fill="#6CB350"/>
<path d="M110.667 32.3335C110.667 50.0068 96.3398 64.3335 78.6665 64.3335C60.9932 64.3335 46.6665 50.0068 46.6665 32.3335C46.6665 14.6602 60.9932 0.333494 78.6665 0.333494C96.3398 0.333494 110.667 14.6602 110.667 32.3335Z" fill="#6CB350"/>
<path d="M750.667 254.333C750.667 269.429 738.429 281.667 723.333 281.667C708.237 281.667 696 269.429 696 254.333C696 239.237 708.237 227 723.333 227C738.429 227 750.667 239.237 750.667 254.333Z" fill="#BAB2BA"/>
<path d="M4.00019 533.667C-8.66647 553 14.0002 550.333 14.0002 550.333C43.3335 537 174 517 174 517C423.334 473 526 530.333 526 530.333C698 614.333 820 561.667 820 561.667C820 561.667 873.334 536.333 902.667 508.333C932 480.333 902.667 487 902.667 487C846.667 549.667 784 544.333 784 544.333C784 544.333 674.667 551 510.667 491C473.58 477.432 427.362 472.181 378.031 472.181C209.216 472.183 4.00019 533.667 4.00019 533.667Z" fill="url(#paint0_linear_9_213)"/>
<defs>
<linearGradient id="paint0_linear_9_213" x1="0.152832" y1="525.075" x2="915.704" y2="525.075" gradientUnits="userSpaceOnUse">
<stop stop-color="#BBB3BB"/>
<stop offset="0.252551" stop-color="#CAC1CB"/>
<stop offset="0.401405" stop-color="#DED5DF"/>
<stop offset="0.614614" stop-color="#B7B0B8"/>
<stop offset="1" stop-color="#BAB1BA"/>
</linearGradient>
</defs>
</svg>
