<svg width="837" height="1080" viewBox="0 0 837 1080" fill="none" xmlns="http://www.w3.org/2000/svg">
<path d="M237.86 362.15H282.46V874H237.86V362.15Z" fill="#5FB33E"/>
<path d="M530.68 519.36C577.48 555.19 608.19 597.6 608.19 678.76C608.19 773.08 552.61 873.99 416.61 873.99H367.61V362.15H500.7C554.08 362.15 581.13 391.4 581.13 427.23C581.13 457.23 565.05 477.68 541.65 506.23L530.68 519.36ZM412.22 404.56V603.45L515.32 477.68C527.75 462.33 536.53 447.68 536.53 432.35C536.53 416.26 526.29 404.56 494.12 404.56H412.22ZM429.77 831.56C491.19 831.56 562.12 779.64 562.12 679.47C562.12 611.47 534.33 576.37 502.12 554.47L412.22 663.41V831.58L429.77 831.56Z" fill="#A6D16C"/>
<path d="M458.47 625.93L413.13 680.77V869.42H368.53V357.58H486.25C551.33 357.58 582.04 386.83 582.04 435.82C582.04 474.57 565.95 495.05 523.54 546.96L490.64 587.18L606.17 855.53L566 876L458.47 625.93ZM413.13 620.81L497.22 518.45C528.66 479.69 536 465.07 536 438C536 411.68 519.18 400 487 400H413.13V620.81Z" fill="#A6D16C"/>
<path d="M381.6 303.1C415.041 303.1 442.15 275.991 442.15 242.55C442.15 209.109 415.041 182 381.6 182C348.159 182 321.05 209.109 321.05 242.55C321.05 275.991 348.159 303.1 381.6 303.1Z" fill="#BAB2BA"/>
</svg>
