<?xml version="1.0" encoding="UTF-8" standalone="no"?>
<svg
   xmlns:dc="http://purl.org/dc/elements/1.1/"
   xmlns:cc="http://creativecommons.org/ns#"
   xmlns:rdf="http://www.w3.org/1999/02/22-rdf-syntax-ns#"
   xmlns:svg="http://www.w3.org/2000/svg"
   xmlns="http://www.w3.org/2000/svg"
   xmlns:sodipodi="http://sodipodi.sourceforge.net/DTD/sodipodi-0.dtd"
   xmlns:inkscape="http://www.inkscape.org/namespaces/inkscape"
   version="1.1"
   id="svg2"
   xml:space="preserve"
   width="1440"
   height="1440"
   viewBox="0 0 1440 1440"
   sodipodi:docname="IIBPR Final.ai"><metadata
     id="metadata8"><rdf:RDF><cc:Work
         rdf:about=""><dc:format>image/svg+xml</dc:format><dc:type
           rdf:resource="http://purl.org/dc/dcmitype/StillImage" /></cc:Work></rdf:RDF></metadata><defs
     id="defs6"><clipPath
       clipPathUnits="userSpaceOnUse"
       id="clipPath22"><path
         d="M 0,1080 H 1080 V 0 H 0 Z"
         id="path20" /></clipPath><linearGradient
       x1="0"
       y1="0"
       x2="1"
       y2="0"
       gradientUnits="userSpaceOnUse"
       gradientTransform="matrix(686.66327,0,0,-686.66327,105.11448,340.44379)"
       spreadMethod="pad"
       id="linearGradient426"><stop
         style="stop-opacity:1;stop-color:#bbb3bb"
         offset="0"
         id="stop416" /><stop
         style="stop-opacity:1;stop-color:#cac1cb"
         offset="0.252551"
         id="stop418" /><stop
         style="stop-opacity:1;stop-color:#ded5df"
         offset="0.401405"
         id="stop420" /><stop
         style="stop-opacity:1;stop-color:#b7b0b8"
         offset="0.614614"
         id="stop422" /><stop
         style="stop-opacity:1;stop-color:#bab1ba"
         offset="1"
         id="stop424" /></linearGradient></defs><sodipodi:namedview
     pagecolor="#ffffff"
     bordercolor="#666666"
     borderopacity="1"
     objecttolerance="10"
     gridtolerance="10"
     guidetolerance="10"
     inkscape:pageopacity="0"
     inkscape:pageshadow="2"
     inkscape:window-width="640"
     inkscape:window-height="480"
     id="namedview4" /><g
     id="g10"
     inkscape:groupmode="layer"
     inkscape:label="IIBPR Final"
     transform="matrix(1.3333333,0,0,-1.3333333,0,1440)"><path
       d="m 121.022,645.087 h 19.521 V 421.082 h -19.521 z"
       style="fill:#5fb33e;fill-opacity:1;fill-rule:nonzero;stroke:none"
       id="path12" /><path
       d="m 192.057,645.087 h 19.521 V 421.082 h -19.521 z"
       style="fill:#a6d16c;fill-opacity:1;fill-rule:nonzero;stroke:none"
       id="path14" /><g
       id="g16"><g
         id="g18"
         clip-path="url(#clipPath22)"><g
           id="g24"
           transform="translate(289.0127,439.6426)"><path
             d="m 0,0 c 26.881,0 57.921,22.721 57.921,66.562 0,29.76 -12.16,45.121 -26.24,54.721 L -7.68,73.602 V 0 Z M -7.68,186.884 V 99.842 l 45.121,55.041 c 5.44,6.721 9.28,13.121 9.28,19.841 0,7.04 -4.48,12.16 -18.56,12.16 z m 51.841,-50.241 c 20.481,-15.68 33.921,-34.241 33.921,-69.761 0,-41.281 -24.321,-85.443 -83.842,-85.443 H -27.2 v 224.005 h 58.241 c 23.36,0 35.201,-12.799 35.201,-28.48 0,-13.12 -7.04,-22.081 -17.281,-34.561 z"
             style="fill:#6cb350;fill-opacity:1;fill-rule:nonzero;stroke:none"
             id="path26" /></g><g
           id="g28"
           transform="translate(451.5742,574.6855)"><path
             d="m 0,0 c 13.76,16.96 16.96,23.36 16.96,35.201 0,11.52 -7.36,16.64 -21.44,16.64 h -32.321 v -96.642 z m 11.52,-12.48 -48.321,-58.562 v -82.562 h -19.52 V 70.401 H -4.8 c 28.481,0 41.921,-12.799 41.921,-32.64 0,-18.561 -7.04,-27.521 -25.601,-50.241"
             style="fill:#6cb350;fill-opacity:1;fill-rule:nonzero;stroke:none"
             id="path30" /></g><g
           id="g32"
           transform="translate(535.731,529.8848)"><path
             d="m 0,0 36.8,44.801 c 13.761,16.96 16.961,23.36 16.961,35.2 0,11.521 -7.36,16.641 -21.44,16.641 H 0 Z M 19.84,-2.24 0,-26.241 v -82.562 H -19.521 V 115.202 H 32 c 28.481,0 41.921,-12.8 41.921,-34.241 0,-16.96 -7.04,-25.92 -25.6,-48.641 l -14.401,-17.6 50.562,-117.443 -17.601,-8.96 z"
             style="fill:#6cb350;fill-opacity:1;fill-rule:nonzero;stroke:none"
             id="path34" /></g><g
           id="g36"
           transform="translate(188,710)"><path
             d="m 0,0 c 0,-13.255 -10.745,-24 -24,-24 -13.255,0 -24,10.745 -24,24 0,13.255 10.745,24 24,24 C -10.745,24 0,13.255 0,0"
             style="fill:#6cb350;fill-opacity:1;fill-rule:nonzero;stroke:none"
             id="path38" /></g><g
           id="g40"
           transform="translate(668,543.5)"><path
             d="m 0,0 c 0,-11.322 -9.178,-20.5 -20.5,-20.5 -11.322,0 -20.5,9.178 -20.5,20.5 0,11.322 9.178,20.5 20.5,20.5 C -9.178,20.5 0,11.322 0,0"
             style="fill:#bab2ba;fill-opacity:1;fill-rule:nonzero;stroke:none"
             id="path42" /></g><g
           id="g44"
           transform="translate(722.4209,610.7173)"><path
             d="m 0,0 0.051,0.686 2.648,0.343 c 0.339,0.032 0.543,0.245 0.612,0.637 h 0.05 V 32.634 H 3.311 C 3.242,33.058 3.038,33.287 2.699,33.32 L 0.051,33.565 0,34.3 10.237,34.349 c 0,-0.033 0.017,-0.278 0.051,-0.735 L 6.825,33.32 V 0.98 l 3.463,-0.196 c 0,-0.033 -0.017,-0.278 -0.051,-0.735 z"
             style="fill:#6cb350;fill-opacity:1;fill-rule:nonzero;stroke:none"
             id="path46" /></g><g
           id="g48"
           transform="translate(722.4209,610.7173)"><path
             d="m 0,0 0.051,0.686 2.648,0.343 c 0.339,0.032 0.543,0.245 0.612,0.637 h 0.05 V 32.634 H 3.311 C 3.242,33.058 3.038,33.287 2.699,33.32 L 0.051,33.565 0,34.3 10.237,34.349 c 0,-0.033 0.017,-0.278 0.051,-0.735 L 6.825,33.32 V 0.98 l 3.463,-0.196 c 0,-0.033 -0.017,-0.278 -0.051,-0.735 z"
             style="fill:none;stroke:#6cb350;stroke-width:2;stroke-linecap:butt;stroke-linejoin:miter;stroke-miterlimit:10;stroke-dasharray:none;stroke-opacity:1"
             id="path50" /></g><g
           id="g52"
           transform="translate(737.293,610.7173)"><path
             d="M 0,0 0.051,0.686 2.699,1.029 C 3.005,1.061 3.157,1.29 3.157,1.715 v 21.217 c -0.068,0.261 -0.17,0.392 -0.305,0.392 l -3.107,0.098 0.051,0.686 c 2.139,0.294 3.582,0.441 4.329,0.441 1.357,0 2.122,-0.572 2.292,-1.715 h 0.051 v -1.029 c 2.784,1.829 5.45,2.793 7.997,2.891 2.477,0 4.362,-0.474 5.653,-1.421 0.577,-0.425 1.095,-1.087 1.554,-1.984 0.458,-0.899 0.687,-1.969 0.687,-3.21 V 1.029 L 26.18,0.784 c 0,-0.033 -0.018,-0.278 -0.052,-0.735 L 15.941,0 c 0,0.294 0.017,0.522 0.051,0.686 l 2.649,0.343 c 0.271,0.032 0.408,0.261 0.408,0.686 v 15.141 c 0,1.306 -0.179,2.417 -0.535,3.332 -0.357,0.914 -0.756,1.584 -1.198,2.009 -0.441,0.424 -0.984,0.751 -1.629,0.98 -0.748,0.261 -1.528,0.392 -2.343,0.392 C 11.307,23.536 9.015,22.768 6.468,21.266 V 1.029 l 3.82,-0.245 c 0,-0.033 -0.017,-0.278 -0.051,-0.735 z"
             style="fill:#6cb350;fill-opacity:1;fill-rule:nonzero;stroke:none"
             id="path54" /></g><g
           id="g56"
           transform="translate(737.293,610.7173)"><path
             d="M 0,0 0.051,0.686 2.699,1.029 C 3.005,1.061 3.157,1.29 3.157,1.715 v 21.217 c -0.068,0.261 -0.17,0.392 -0.305,0.392 l -3.107,0.098 0.051,0.686 c 2.139,0.294 3.582,0.441 4.329,0.441 1.357,0 2.122,-0.572 2.292,-1.715 h 0.051 v -1.029 c 2.784,1.829 5.45,2.793 7.997,2.891 2.477,0 4.362,-0.474 5.653,-1.421 0.577,-0.425 1.095,-1.087 1.554,-1.984 0.458,-0.899 0.687,-1.969 0.687,-3.21 V 1.029 L 26.18,0.784 c 0,-0.033 -0.018,-0.278 -0.052,-0.735 L 15.941,0 c 0,0.294 0.017,0.522 0.051,0.686 l 2.649,0.343 c 0.271,0.032 0.408,0.261 0.408,0.686 v 15.141 c 0,1.306 -0.179,2.417 -0.535,3.332 -0.357,0.914 -0.756,1.584 -1.198,2.009 -0.441,0.424 -0.984,0.751 -1.629,0.98 -0.748,0.261 -1.528,0.392 -2.343,0.392 C 11.307,23.536 9.015,22.768 6.468,21.266 V 1.029 l 3.82,-0.245 c 0,-0.033 -0.017,-0.278 -0.051,-0.735 z"
             style="fill:none;stroke:#6cb350;stroke-width:2;stroke-linecap:butt;stroke-linejoin:miter;stroke-miterlimit:10;stroke-dasharray:none;stroke-opacity:1"
             id="path58" /></g><g
           id="g60"
           transform="translate(776.7148,611.354)"><path
             d="m 0,0 c 0.204,0 0.408,0.016 0.611,0.049 1.766,0.032 3.243,0.564 4.432,1.593 1.187,1.028 1.782,2.539 1.782,4.532 0,1.96 -1.596,3.381 -4.787,4.263 -1.325,0.359 -2.649,0.751 -3.974,1.176 -1.324,0.424 -2.453,1.094 -3.386,2.009 -0.935,0.914 -1.401,2.107 -1.401,3.577 0,2.09 0.831,3.765 2.495,5.023 1.665,1.257 3.77,1.886 6.317,1.886 1.901,0 3.819,-0.327 5.755,-0.98 L 8.761,22.785 V 17.15 L 7.793,16.807 7.589,20.972 c -1.969,1.502 -3.616,2.254 -4.941,2.254 -1.867,0 -3.344,-0.531 -4.43,-1.592 -1.087,-1.062 -1.63,-2.475 -1.63,-4.239 0,-1.013 0.466,-1.83 1.4,-2.45 0.934,-0.621 2.063,-1.111 3.388,-1.47 1.324,-0.36 2.648,-0.759 3.973,-1.201 1.324,-0.441 2.452,-1.159 3.386,-2.155 0.934,-0.997 1.401,-2.296 1.401,-3.896 0,-2.156 -0.84,-3.863 -2.521,-5.12 -1.681,-1.258 -4.067,-1.887 -7.156,-1.887 -3.091,0 -5.654,0.702 -7.691,2.107 v 5.635 l 0.917,0.343 0.254,-4.165 C -5.586,2.286 -4.729,1.551 -3.488,0.931 -2.249,0.31 -1.087,0 0,0"
             style="fill:#6cb350;fill-opacity:1;fill-rule:nonzero;stroke:none"
             id="path62" /></g><g
           id="g64"
           transform="translate(776.7148,611.354)"><path
             d="m 0,0 c 0.204,0 0.408,0.016 0.611,0.049 1.766,0.032 3.243,0.564 4.432,1.593 1.187,1.028 1.782,2.539 1.782,4.532 0,1.96 -1.596,3.381 -4.787,4.263 -1.325,0.359 -2.649,0.751 -3.974,1.176 -1.324,0.424 -2.453,1.094 -3.386,2.009 -0.935,0.914 -1.401,2.107 -1.401,3.577 0,2.09 0.831,3.765 2.495,5.023 1.665,1.257 3.77,1.886 6.317,1.886 1.901,0 3.819,-0.327 5.755,-0.98 L 8.761,22.785 V 17.15 L 7.793,16.807 7.589,20.972 c -1.969,1.502 -3.616,2.254 -4.941,2.254 -1.867,0 -3.344,-0.531 -4.43,-1.592 -1.087,-1.062 -1.63,-2.475 -1.63,-4.239 0,-1.013 0.466,-1.83 1.4,-2.45 0.934,-0.621 2.063,-1.111 3.388,-1.47 1.324,-0.36 2.648,-0.759 3.973,-1.201 1.324,-0.441 2.452,-1.159 3.386,-2.155 0.934,-0.997 1.401,-2.296 1.401,-3.896 0,-2.156 -0.84,-3.863 -2.521,-5.12 -1.681,-1.258 -4.067,-1.887 -7.156,-1.887 -3.091,0 -5.654,0.702 -7.691,2.107 v 5.635 l 0.917,0.343 0.254,-4.165 C -5.586,2.286 -4.729,1.551 -3.488,0.931 -2.249,0.31 -1.087,0 0,0 Z"
             style="fill:none;stroke:#6cb350;stroke-width:2;stroke-linecap:butt;stroke-linejoin:miter;stroke-miterlimit:10;stroke-dasharray:none;stroke-opacity:1"
             id="path66" /></g><g
           id="g68"
           transform="translate(802.6914,611.6973)"><path
             d="m 0,0 1.986,0.098 0.153,-0.49 c -0.035,0 -0.272,-0.049 -0.713,-0.147 -1.019,-0.229 -2.156,-0.343 -3.412,-0.343 -1.156,0.065 -2.208,0.253 -3.159,0.563 -0.951,0.31 -1.834,0.964 -2.648,1.96 -0.815,0.996 -1.223,2.279 -1.223,3.847 v 17.199 h -2.597 l 0.407,0.392 2.241,0.441 0.408,4.704 2.852,0.245 v -4.9 H 0.458 V 22.687 H -5.705 V 6.321 c 0,-2.483 0.543,-4.157 1.63,-5.023 C -2.988,0.433 -1.63,0 0,0"
             style="fill:#6cb350;fill-opacity:1;fill-rule:nonzero;stroke:none"
             id="path70" /></g><g
           id="g72"
           transform="translate(802.6914,611.6973)"><path
             d="m 0,0 1.986,0.098 0.153,-0.49 c -0.035,0 -0.272,-0.049 -0.713,-0.147 -1.019,-0.229 -2.156,-0.343 -3.412,-0.343 -1.156,0.065 -2.208,0.253 -3.159,0.563 -0.951,0.31 -1.834,0.964 -2.648,1.96 -0.815,0.996 -1.223,2.279 -1.223,3.847 v 17.199 h -2.597 l 0.407,0.392 2.241,0.441 0.408,4.704 2.852,0.245 v -4.9 H 0.458 V 22.687 H -5.705 V 6.321 c 0,-2.483 0.543,-4.157 1.63,-5.023 C -2.988,0.433 -1.63,0 0,0 Z"
             style="fill:none;stroke:#6cb350;stroke-width:2;stroke-linecap:butt;stroke-linejoin:miter;stroke-miterlimit:10;stroke-dasharray:none;stroke-opacity:1"
             id="path74" /></g><g
           id="g76"
           transform="translate(813.5898,641.832)"><path
             d="m 0,0 c -0.68,0 -1.205,0.204 -1.578,0.613 -0.374,0.408 -0.561,0.947 -0.561,1.616 0,0.67 0.196,1.209 0.586,1.618 0.39,0.408 0.925,0.612 1.605,0.612 0.678,0 1.229,-0.204 1.655,-0.612 C 2.131,3.438 2.344,2.883 2.344,2.181 2.344,1.478 2.122,0.939 1.682,0.563 1.239,0.187 0.68,0 0,0 m 1.732,-8.575 v -21.511 l 3.82,-0.245 c 0,-0.033 -0.018,-0.278 -0.051,-0.735 l -10.187,-0.049 c 0,0.294 0.017,0.522 0.051,0.686 l 2.649,0.343 c 0.204,0 0.34,0.147 0.408,0.441 v 21.511 c -0.068,0.228 -0.171,0.343 -0.306,0.343 l -3.056,0.098 0.05,0.686 c 1.834,0.294 3.226,0.441 4.177,0.441 0.95,0 1.596,-0.213 1.936,-0.637 0.339,-0.425 0.509,-0.882 0.509,-1.372"
             style="fill:#6cb350;fill-opacity:1;fill-rule:nonzero;stroke:none"
             id="path78" /></g><g
           id="g80"
           transform="translate(813.5898,641.832)"><path
             d="m 0,0 c -0.68,0 -1.205,0.204 -1.578,0.613 -0.374,0.408 -0.561,0.947 -0.561,1.616 0,0.67 0.196,1.209 0.586,1.618 0.39,0.408 0.925,0.612 1.605,0.612 0.678,0 1.229,-0.204 1.655,-0.612 C 2.131,3.438 2.344,2.883 2.344,2.181 2.344,1.478 2.122,0.939 1.682,0.563 1.239,0.187 0.68,0 0,0 Z m 1.732,-8.575 v -21.511 l 3.82,-0.245 c 0,-0.033 -0.018,-0.278 -0.051,-0.735 l -10.187,-0.049 c 0,0.294 0.017,0.522 0.051,0.686 l 2.649,0.343 c 0.204,0 0.34,0.147 0.408,0.441 v 21.511 c -0.068,0.228 -0.171,0.343 -0.306,0.343 l -3.056,0.098 0.05,0.686 c 1.834,0.294 3.226,0.441 4.177,0.441 0.95,0 1.596,-0.213 1.936,-0.637 0.339,-0.425 0.509,-0.882 0.509,-1.372 z"
             style="fill:none;stroke:#6cb350;stroke-width:2;stroke-linecap:butt;stroke-linejoin:miter;stroke-miterlimit:10;stroke-dasharray:none;stroke-opacity:1"
             id="path82" /></g><g
           id="g84"
           transform="translate(833.5566,611.6973)"><path
             d="m 0,0 1.986,0.098 0.153,-0.49 c -0.035,0 -0.272,-0.049 -0.713,-0.147 -1.019,-0.229 -2.156,-0.343 -3.412,-0.343 -1.156,0.065 -2.208,0.253 -3.159,0.563 -0.951,0.31 -1.834,0.964 -2.648,1.96 -0.815,0.996 -1.223,2.279 -1.223,3.847 v 17.199 h -2.597 l 0.407,0.392 2.241,0.441 0.408,4.704 2.852,0.245 v -4.9 H 0.458 V 22.687 H -5.705 V 6.321 c 0,-2.483 0.543,-4.157 1.63,-5.023 C -2.988,0.433 -1.63,0 0,0"
             style="fill:#6cb350;fill-opacity:1;fill-rule:nonzero;stroke:none"
             id="path86" /></g><g
           id="g88"
           transform="translate(833.5566,611.6973)"><path
             d="m 0,0 1.986,0.098 0.153,-0.49 c -0.035,0 -0.272,-0.049 -0.713,-0.147 -1.019,-0.229 -2.156,-0.343 -3.412,-0.343 -1.156,0.065 -2.208,0.253 -3.159,0.563 -0.951,0.31 -1.834,0.964 -2.648,1.96 -0.815,0.996 -1.223,2.279 -1.223,3.847 v 17.199 h -2.597 l 0.407,0.392 2.241,0.441 0.408,4.704 2.852,0.245 v -4.9 H 0.458 V 22.687 H -5.705 V 6.321 c 0,-2.483 0.543,-4.157 1.63,-5.023 C -2.988,0.433 -1.63,0 0,0 Z"
             style="fill:none;stroke:#6cb350;stroke-width:2;stroke-linecap:butt;stroke-linejoin:miter;stroke-miterlimit:10;stroke-dasharray:none;stroke-opacity:1"
             id="path90" /></g><g
           id="g92"
           transform="translate(840.584,634.4819)"><path
             d="m 0,0 -0.051,0.735 6.876,0.049 v -17.052 c 0,-1.274 0.187,-2.377 0.561,-3.307 0.373,-0.931 0.789,-1.61 1.248,-2.034 0.458,-0.425 0.993,-0.752 1.604,-0.98 0.95,-0.327 1.748,-0.458 2.394,-0.392 2.071,0.032 4.431,1.062 7.08,3.087 v 18.963 c -0.137,0.392 -0.425,0.62 -0.866,0.686 L 16.197,0 c -0.034,0.196 -0.051,0.441 -0.051,0.735 l 6.876,0.049 v -22.246 c 0.068,-0.817 0.339,-1.225 0.815,-1.225 l 3.057,-0.147 -0.052,-0.735 c -1.63,-0.261 -3.328,-0.392 -5.093,-0.392 -0.407,0.033 -0.85,0.253 -1.324,0.662 -0.476,0.408 -0.713,0.922 -0.713,1.543 v 0.882 c -3.091,-1.993 -6.011,-2.989 -8.761,-2.989 -1.155,0 -2.513,0.278 -4.075,0.833 -1.019,0.359 -1.833,1.037 -2.444,2.034 C 3.82,-20 3.515,-18.751 3.515,-17.248 V -0.98 c 0,0.163 -0.094,0.319 -0.281,0.466 -0.186,0.147 -0.381,0.236 -0.585,0.269 z"
             style="fill:#6cb350;fill-opacity:1;fill-rule:nonzero;stroke:none"
             id="path94" /></g><g
           id="g96"
           transform="translate(840.584,634.4819)"><path
             d="m 0,0 -0.051,0.735 6.876,0.049 v -17.052 c 0,-1.274 0.187,-2.377 0.561,-3.307 0.373,-0.931 0.789,-1.61 1.248,-2.034 0.458,-0.425 0.993,-0.752 1.604,-0.98 0.95,-0.327 1.748,-0.458 2.394,-0.392 2.071,0.032 4.431,1.062 7.08,3.087 v 18.963 c -0.137,0.392 -0.425,0.62 -0.866,0.686 L 16.197,0 c -0.034,0.196 -0.051,0.441 -0.051,0.735 l 6.876,0.049 v -22.246 c 0.068,-0.817 0.339,-1.225 0.815,-1.225 l 3.057,-0.147 -0.052,-0.735 c -1.63,-0.261 -3.328,-0.392 -5.093,-0.392 -0.407,0.033 -0.85,0.253 -1.324,0.662 -0.476,0.408 -0.713,0.922 -0.713,1.543 v 0.882 c -3.091,-1.993 -6.011,-2.989 -8.761,-2.989 -1.155,0 -2.513,0.278 -4.075,0.833 -1.019,0.359 -1.833,1.037 -2.444,2.034 C 3.82,-20 3.515,-18.751 3.515,-17.248 V -0.98 c 0,0.163 -0.094,0.319 -0.281,0.466 -0.186,0.147 -0.381,0.236 -0.585,0.269 z"
             style="fill:none;stroke:#6cb350;stroke-width:2;stroke-linecap:butt;stroke-linejoin:miter;stroke-miterlimit:10;stroke-dasharray:none;stroke-opacity:1"
             id="path98" /></g><g
           id="g100"
           transform="translate(882.4004,611.6973)"><path
             d="m 0,0 1.986,0.098 0.153,-0.49 c -0.035,0 -0.272,-0.049 -0.713,-0.147 -1.019,-0.229 -2.156,-0.343 -3.412,-0.343 -1.156,0.065 -2.208,0.253 -3.159,0.563 -0.951,0.31 -1.834,0.964 -2.648,1.96 -0.815,0.996 -1.223,2.279 -1.223,3.847 v 17.199 h -2.597 l 0.407,0.392 2.241,0.441 0.408,4.704 2.852,0.245 v -4.9 H 0.458 V 22.687 H -5.705 V 6.321 c 0,-2.483 0.543,-4.157 1.63,-5.023 C -2.988,0.433 -1.63,0 0,0"
             style="fill:#6cb350;fill-opacity:1;fill-rule:nonzero;stroke:none"
             id="path102" /></g><g
           id="g104"
           transform="translate(882.4004,611.6973)"><path
             d="m 0,0 1.986,0.098 0.153,-0.49 c -0.035,0 -0.272,-0.049 -0.713,-0.147 -1.019,-0.229 -2.156,-0.343 -3.412,-0.343 -1.156,0.065 -2.208,0.253 -3.159,0.563 -0.951,0.31 -1.834,0.964 -2.648,1.96 -0.815,0.996 -1.223,2.279 -1.223,3.847 v 17.199 h -2.597 l 0.407,0.392 2.241,0.441 0.408,4.704 2.852,0.245 v -4.9 H 0.458 V 22.687 H -5.705 V 6.321 c 0,-2.483 0.543,-4.157 1.63,-5.023 C -2.988,0.433 -1.63,0 0,0 Z"
             style="fill:none;stroke:#6cb350;stroke-width:2;stroke-linecap:butt;stroke-linejoin:miter;stroke-miterlimit:10;stroke-dasharray:none;stroke-opacity:1"
             id="path106" /></g><g
           id="g108"
           transform="translate(900.0225,634.5801)"><path
             d="m 0,0 c -2.546,0 -4.669,-1.062 -6.366,-3.185 -1.698,-2.124 -2.547,-5.006 -2.547,-8.648 0,-3.643 0.807,-6.437 2.419,-8.379 1.613,-1.944 3.693,-2.916 6.24,-2.916 2.546,0 4.668,1.061 6.366,3.185 1.698,2.123 2.547,4.998 2.547,8.624 0,3.626 -0.807,6.419 -2.42,8.379 C 4.627,-0.98 2.547,0 0,0 m -0.331,-24.01 c -3.548,0 -6.417,0.98 -8.607,2.94 -2.191,1.96 -3.286,4.957 -3.286,8.991 0,4.035 1.163,7.204 3.49,9.507 2.325,2.302 5.254,3.454 8.785,3.454 3.531,0 6.4,-0.98 8.608,-2.94 2.207,-1.96 3.311,-4.958 3.311,-8.991 0,-4.035 -1.164,-7.203 -3.49,-9.507 -2.326,-2.302 -5.263,-3.454 -8.811,-3.454"
             style="fill:#6cb350;fill-opacity:1;fill-rule:nonzero;stroke:none"
             id="path110" /></g><g
           id="g112"
           transform="translate(900.0225,634.5801)"><path
             d="m 0,0 c -2.546,0 -4.669,-1.062 -6.366,-3.185 -1.698,-2.124 -2.547,-5.006 -2.547,-8.648 0,-3.643 0.807,-6.437 2.419,-8.379 1.613,-1.944 3.693,-2.916 6.24,-2.916 2.546,0 4.668,1.061 6.366,3.185 1.698,2.123 2.547,4.998 2.547,8.624 0,3.626 -0.807,6.419 -2.42,8.379 C 4.627,-0.98 2.547,0 0,0 Z m -0.331,-24.01 c -3.548,0 -6.417,0.98 -8.607,2.94 -2.191,1.96 -3.286,4.957 -3.286,8.991 0,4.035 1.163,7.204 3.49,9.507 2.325,2.302 5.254,3.454 8.785,3.454 3.531,0 6.4,-0.98 8.608,-2.94 2.207,-1.96 3.311,-4.958 3.311,-8.991 0,-4.035 -1.164,-7.203 -3.49,-9.507 -2.326,-2.302 -5.263,-3.454 -8.811,-3.454 z"
             style="fill:none;stroke:#6cb350;stroke-width:2;stroke-linecap:butt;stroke-linejoin:miter;stroke-miterlimit:10;stroke-dasharray:none;stroke-opacity:1"
             id="path114" /></g><g
           id="g116"
           transform="translate(934.6064,610.7173)"><path
             d="m 0,0 0.051,0.686 2.648,0.343 c 0.339,0.032 0.543,0.245 0.612,0.637 h 0.05 V 32.634 H 3.311 C 3.242,33.058 3.038,33.287 2.699,33.32 L 0.051,33.565 0,34.3 10.237,34.349 c 0,-0.033 0.017,-0.278 0.051,-0.735 L 6.825,33.32 V 0.98 l 3.463,-0.196 c 0,-0.033 -0.017,-0.278 -0.051,-0.735 z"
             style="fill:#6cb350;fill-opacity:1;fill-rule:nonzero;stroke:none"
             id="path118" /></g><g
           id="g120"
           transform="translate(934.6064,610.7173)"><path
             d="m 0,0 0.051,0.686 2.648,0.343 c 0.339,0.032 0.543,0.245 0.612,0.637 h 0.05 V 32.634 H 3.311 C 3.242,33.058 3.038,33.287 2.699,33.32 L 0.051,33.565 0,34.3 10.237,34.349 c 0,-0.033 0.017,-0.278 0.051,-0.735 L 6.825,33.32 V 0.98 l 3.463,-0.196 c 0,-0.033 -0.017,-0.278 -0.051,-0.735 z"
             style="fill:none;stroke:#6cb350;stroke-width:2;stroke-linecap:butt;stroke-linejoin:miter;stroke-miterlimit:10;stroke-dasharray:none;stroke-opacity:1"
             id="path122" /></g><g
           id="g124"
           transform="translate(959.3086,611.6973)"><path
             d="m 0,0 1.986,0.098 0.153,-0.49 c -0.035,0 -0.272,-0.049 -0.713,-0.147 -1.019,-0.229 -2.156,-0.343 -3.412,-0.343 -1.156,0.065 -2.208,0.253 -3.159,0.563 -0.951,0.31 -1.834,0.964 -2.648,1.96 -0.815,0.996 -1.223,2.279 -1.223,3.847 v 17.199 h -2.597 l 0.407,0.392 2.241,0.441 0.408,4.704 2.852,0.245 v -4.9 H 0.458 V 22.687 H -5.705 V 6.321 c 0,-2.483 0.543,-4.157 1.63,-5.023 C -2.988,0.433 -1.63,0 0,0"
             style="fill:#6cb350;fill-opacity:1;fill-rule:nonzero;stroke:none"
             id="path126" /></g><g
           id="g128"
           transform="translate(959.3086,611.6973)"><path
             d="m 0,0 1.986,0.098 0.153,-0.49 c -0.035,0 -0.272,-0.049 -0.713,-0.147 -1.019,-0.229 -2.156,-0.343 -3.412,-0.343 -1.156,0.065 -2.208,0.253 -3.159,0.563 -0.951,0.31 -1.834,0.964 -2.648,1.96 -0.815,0.996 -1.223,2.279 -1.223,3.847 v 17.199 h -2.597 l 0.407,0.392 2.241,0.441 0.408,4.704 2.852,0.245 v -4.9 H 0.458 V 22.687 H -5.705 V 6.321 c 0,-2.483 0.543,-4.157 1.63,-5.023 C -2.988,0.433 -1.63,0 0,0 Z"
             style="fill:none;stroke:#6cb350;stroke-width:2;stroke-linecap:butt;stroke-linejoin:miter;stroke-miterlimit:10;stroke-dasharray:none;stroke-opacity:1"
             id="path130" /></g><g
           id="g132"
           transform="translate(981.668,647.5161)"><path
             d="m 0,0 1.528,-0.343 -6.06,-7.252 -0.765,0.392 z m -7.945,-36.162 c 2.512,0 5.177,0.849 7.997,2.548 v 8.085 c -5.094,-0.164 -8.295,-0.45 -9.602,-0.858 -1.307,-0.408 -2.207,-1.045 -2.699,-1.91 -0.492,-0.867 -0.738,-1.724 -0.738,-2.573 v -0.49 c 0.101,-1.699 0.628,-2.924 1.579,-3.675 0.95,-0.752 2.104,-1.127 3.463,-1.127 m 8.149,1.274 H 0.052 c -3.057,-1.372 -6.029,-2.058 -8.914,-2.058 -4.516,0 -6.91,1.715 -7.182,5.145 -0.034,0.228 -0.051,0.441 -0.051,0.637 0,2.515 1.715,4.197 5.145,5.047 2.037,0.424 5.704,0.931 11.002,1.519 v 4.312 c 0,1.372 -0.171,2.548 -0.51,3.528 -0.34,0.98 -0.713,1.707 -1.12,2.18 -0.408,0.474 -0.935,0.841 -1.579,1.103 -0.816,0.326 -1.724,0.49 -2.726,0.49 -1.002,0 -2.147,-0.245 -3.437,-0.735 -1.868,-0.752 -3.533,-1.699 -4.992,-2.842 l -0.204,-3.822 -0.967,-0.245 v 5.929 l 0.509,0.196 c 2.649,1.11 4.668,1.78 6.061,2.009 1.392,0.228 2.411,0.35 3.056,0.368 0.645,0.016 1.264,0.007 1.859,-0.025 0.594,-0.033 1.366,-0.18 2.317,-0.441 0.951,-0.262 1.775,-0.629 2.471,-1.102 0.695,-0.474 1.299,-1.185 1.808,-2.132 0.509,-0.948 0.764,-2.075 0.764,-3.381 v -14.994 c 0,-1.013 0.272,-1.519 0.815,-1.519 l 3.107,-0.147 -0.052,-0.735 c -1.901,-0.261 -3.598,-0.392 -5.092,-0.392 -0.408,0.033 -0.833,0.237 -1.274,0.613 -0.441,0.375 -0.662,0.873 -0.662,1.494"
             style="fill:#6cb350;fill-opacity:1;fill-rule:nonzero;stroke:none"
             id="path134" /></g><g
           id="g136"
           transform="translate(981.668,647.5161)"><path
             d="m 0,0 1.528,-0.343 -6.06,-7.252 -0.765,0.392 z m -7.945,-36.162 c 2.512,0 5.177,0.849 7.997,2.548 v 8.085 c -5.094,-0.164 -8.295,-0.45 -9.602,-0.858 -1.307,-0.408 -2.207,-1.045 -2.699,-1.91 -0.492,-0.867 -0.738,-1.724 -0.738,-2.573 v -0.49 c 0.101,-1.699 0.628,-2.924 1.579,-3.675 0.95,-0.752 2.104,-1.127 3.463,-1.127 z m 8.149,1.274 H 0.052 c -3.057,-1.372 -6.029,-2.058 -8.914,-2.058 -4.516,0 -6.91,1.715 -7.182,5.145 -0.034,0.228 -0.051,0.441 -0.051,0.637 0,2.515 1.715,4.197 5.145,5.047 2.037,0.424 5.704,0.931 11.002,1.519 v 4.312 c 0,1.372 -0.171,2.548 -0.51,3.528 -0.34,0.98 -0.713,1.707 -1.12,2.18 -0.408,0.474 -0.935,0.841 -1.579,1.103 -0.816,0.326 -1.724,0.49 -2.726,0.49 -1.002,0 -2.147,-0.245 -3.437,-0.735 -1.868,-0.752 -3.533,-1.699 -4.992,-2.842 l -0.204,-3.822 -0.967,-0.245 v 5.929 l 0.509,0.196 c 2.649,1.11 4.668,1.78 6.061,2.009 1.392,0.228 2.411,0.35 3.056,0.368 0.645,0.016 1.264,0.007 1.859,-0.025 0.594,-0.033 1.366,-0.18 2.317,-0.441 0.951,-0.262 1.775,-0.629 2.471,-1.102 0.695,-0.474 1.299,-1.185 1.808,-2.132 0.509,-0.948 0.764,-2.075 0.764,-3.381 v -14.994 c 0,-1.013 0.272,-1.519 0.815,-1.519 l 3.107,-0.147 -0.052,-0.735 c -1.901,-0.261 -3.598,-0.392 -5.092,-0.392 -0.408,0.033 -0.833,0.237 -1.274,0.613 -0.441,0.375 -0.662,0.873 -0.662,1.494 z"
             style="fill:none;stroke:#6cb350;stroke-width:2;stroke-linecap:butt;stroke-linejoin:miter;stroke-miterlimit:10;stroke-dasharray:none;stroke-opacity:1"
             id="path138" /></g><g
           id="g140"
           transform="translate(992.5156,610.7173)"><path
             d="m 0,0 0.051,0.686 2.648,0.343 c 0.238,0.032 0.391,0.196 0.459,0.49 v 33.516 c 0,0.359 -0.102,0.539 -0.305,0.539 l -3.108,0.098 0.051,0.686 c 2.14,0.294 3.608,0.441 4.406,0.441 0.798,0 1.375,-0.213 1.732,-0.637 C 6.29,35.737 6.469,35.28 6.469,34.79 V 1.029 l 3.82,-0.245 c 0,-0.033 -0.018,-0.278 -0.052,-0.735 z"
             style="fill:#6cb350;fill-opacity:1;fill-rule:nonzero;stroke:none"
             id="path142" /></g><g
           id="g144"
           transform="translate(992.5156,610.7173)"><path
             d="m 0,0 0.051,0.686 2.648,0.343 c 0.238,0.032 0.391,0.196 0.459,0.49 v 33.516 c 0,0.359 -0.102,0.539 -0.305,0.539 l -3.108,0.098 0.051,0.686 c 2.14,0.294 3.608,0.441 4.406,0.441 0.798,0 1.375,-0.213 1.732,-0.637 C 6.29,35.737 6.469,35.28 6.469,34.79 V 1.029 l 3.82,-0.245 c 0,-0.033 -0.018,-0.278 -0.052,-0.735 z"
             style="fill:none;stroke:#6cb350;stroke-width:2;stroke-linecap:butt;stroke-linejoin:miter;stroke-miterlimit:10;stroke-dasharray:none;stroke-opacity:1"
             id="path146" /></g><g
           id="g148"
           transform="translate(1020.6309,634.5801)"><path
             d="m 0,0 c -2.546,0 -4.669,-1.062 -6.366,-3.185 -1.698,-2.124 -2.547,-5.006 -2.547,-8.648 0,-3.643 0.807,-6.437 2.419,-8.379 1.613,-1.944 3.693,-2.916 6.24,-2.916 2.546,0 4.668,1.061 6.366,3.185 1.698,2.123 2.547,4.998 2.547,8.624 0,3.626 -0.807,6.419 -2.42,8.379 C 4.627,-0.98 2.547,0 0,0 m -0.331,-24.01 c -3.548,0 -6.417,0.98 -8.607,2.94 -2.191,1.96 -3.286,4.957 -3.286,8.991 0,4.035 1.163,7.204 3.49,9.507 2.325,2.302 5.254,3.454 8.785,3.454 3.531,0 6.4,-0.98 8.608,-2.94 2.207,-1.96 3.311,-4.958 3.311,-8.991 0,-4.035 -1.164,-7.203 -3.49,-9.507 -2.326,-2.302 -5.263,-3.454 -8.811,-3.454"
             style="fill:#6cb350;fill-opacity:1;fill-rule:nonzero;stroke:none"
             id="path150" /></g><g
           id="g152"
           transform="translate(1020.6309,634.5801)"><path
             d="m 0,0 c -2.546,0 -4.669,-1.062 -6.366,-3.185 -1.698,-2.124 -2.547,-5.006 -2.547,-8.648 0,-3.643 0.807,-6.437 2.419,-8.379 1.613,-1.944 3.693,-2.916 6.24,-2.916 2.546,0 4.668,1.061 6.366,3.185 1.698,2.123 2.547,4.998 2.547,8.624 0,3.626 -0.807,6.419 -2.42,8.379 C 4.627,-0.98 2.547,0 0,0 Z m -0.331,-24.01 c -3.548,0 -6.417,0.98 -8.607,2.94 -2.191,1.96 -3.286,4.957 -3.286,8.991 0,4.035 1.163,7.204 3.49,9.507 2.325,2.302 5.254,3.454 8.785,3.454 3.531,0 6.4,-0.98 8.608,-2.94 2.207,-1.96 3.311,-4.958 3.311,-8.991 0,-4.035 -1.164,-7.203 -3.49,-9.507 -2.326,-2.302 -5.263,-3.454 -8.811,-3.454 z"
             style="fill:none;stroke:#6cb350;stroke-width:2;stroke-linecap:butt;stroke-linejoin:miter;stroke-miterlimit:10;stroke-dasharray:none;stroke-opacity:1"
             id="path154" /></g><g
           id="g156"
           transform="translate(735.1543,570.7334)"><path
             d="m 0,0 h -5.96 v -18.032 h 4.687 c 6.077,0 9.117,3.07 9.117,9.212 0,3.136 -0.655,5.39 -1.961,6.762 C 4.575,-0.686 2.614,0 0,0 m 0.254,0.735 c 1.256,0 2.344,-0.066 3.26,-0.196 1.494,2.254 2.241,4.393 2.241,6.419 0,5.226 -2.598,7.84 -7.793,7.84 H -5.96 V 0.735 Z m -12.987,14.063 0.05,0.735 h 10.9 c 7.335,0 11.002,-2.761 11.002,-8.281 0,-2.124 -1.461,-4.443 -4.381,-6.958 4.312,-1.013 6.469,-3.986 6.469,-8.918 0,-3.855 -1.011,-6.509 -3.031,-7.962 -2.02,-1.455 -5.119,-2.181 -9.295,-2.181 h -1.477 l -10.237,-0.049 0.05,0.686 2.649,0.343 c 0.339,0.032 0.543,0.245 0.611,0.637 v 30.968 c -0.068,0.424 -0.272,0.653 -0.611,0.686 z"
             style="fill:#6cb350;fill-opacity:1;fill-rule:nonzero;stroke:none"
             id="path158" /></g><g
           id="g160"
           transform="translate(735.1543,570.7334)"><path
             d="m 0,0 h -5.96 v -18.032 h 4.687 c 6.077,0 9.117,3.07 9.117,9.212 0,3.136 -0.655,5.39 -1.961,6.762 C 4.575,-0.686 2.614,0 0,0 Z m 0.254,0.735 c 1.256,0 2.344,-0.066 3.26,-0.196 1.494,2.254 2.241,4.393 2.241,6.419 0,5.226 -2.598,7.84 -7.793,7.84 H -5.96 V 0.735 Z m -12.987,14.063 0.05,0.735 h 10.9 c 7.335,0 11.002,-2.761 11.002,-8.281 0,-2.124 -1.461,-4.443 -4.381,-6.958 4.312,-1.013 6.469,-3.986 6.469,-8.918 0,-3.855 -1.011,-6.509 -3.031,-7.962 -2.02,-1.455 -5.119,-2.181 -9.295,-2.181 h -1.477 l -10.237,-0.049 0.05,0.686 2.649,0.343 c 0.339,0.032 0.543,0.245 0.611,0.637 v 30.968 c -0.068,0.424 -0.272,0.653 -0.611,0.686 z"
             style="fill:none;stroke:#6cb350;stroke-width:2;stroke-linecap:butt;stroke-linejoin:miter;stroke-miterlimit:10;stroke-dasharray:none;stroke-opacity:1"
             id="path162" /></g><g
           id="g164"
           transform="translate(757.1064,574.4575)"><path
             d="m 0,0 v -3.92 c 2.682,3.789 5.313,5.716 7.895,5.782 h 0.611 l 2.852,-0.343 -1.324,-2.94 C 9.389,-0.801 8.557,-0.49 7.538,-0.49 5.06,-0.523 2.547,-2.107 0,-5.243 v -16.268 l 4.329,-0.245 c 0,-0.033 -0.017,-0.278 -0.051,-0.735 L -6.417,-22.54 c 0,0.294 0.017,0.522 0.051,0.686 l 2.648,0.343 c 0.272,0.032 0.407,0.261 0.407,0.686 V 0.441 C -3.379,0.669 -3.48,0.784 -3.616,0.784 l -3.056,0.098 0.051,0.686 c 1.834,0.294 3.225,0.441 4.177,0.441 0.95,0 1.595,-0.213 1.935,-0.637 C -0.17,0.947 0,0.49 0,0"
             style="fill:#6cb350;fill-opacity:1;fill-rule:nonzero;stroke:none"
             id="path166" /></g><g
           id="g168"
           transform="translate(757.1064,574.4575)"><path
             d="m 0,0 v -3.92 c 2.682,3.789 5.313,5.716 7.895,5.782 h 0.611 l 2.852,-0.343 -1.324,-2.94 C 9.389,-0.801 8.557,-0.49 7.538,-0.49 5.06,-0.523 2.547,-2.107 0,-5.243 v -16.268 l 4.329,-0.245 c 0,-0.033 -0.017,-0.278 -0.051,-0.735 L -6.417,-22.54 c 0,0.294 0.017,0.522 0.051,0.686 l 2.648,0.343 c 0.272,0.032 0.407,0.261 0.407,0.686 V 0.441 C -3.379,0.669 -3.48,0.784 -3.616,0.784 l -3.056,0.098 0.051,0.686 c 1.834,0.294 3.225,0.441 4.177,0.441 0.95,0 1.595,-0.213 1.935,-0.637 C -0.17,0.947 0,0.49 0,0 Z"
             style="fill:none;stroke:#6cb350;stroke-width:2;stroke-linecap:butt;stroke-linejoin:miter;stroke-miterlimit:10;stroke-dasharray:none;stroke-opacity:1"
             id="path170" /></g><g
           id="g172"
           transform="translate(780.9434,552.5542)"><path
             d="m 0,0 c 2.513,0 5.178,0.849 7.997,2.548 v 8.085 C 2.903,10.469 -0.298,10.184 -1.604,9.775 -2.912,9.367 -3.812,8.73 -4.304,7.865 -4.796,6.999 -5.042,6.141 -5.042,5.292 V 4.802 C -4.94,3.103 -4.414,1.878 -3.463,1.127 -2.513,0.375 -1.358,0 0,0 M 8.149,1.274 H 7.997 C 4.94,-0.098 1.969,-0.784 -0.917,-0.784 c -4.516,0 -6.91,1.715 -7.182,5.145 -0.034,0.228 -0.05,0.441 -0.05,0.637 0,2.515 1.714,4.197 5.144,5.047 2.037,0.424 5.704,0.931 11.002,1.519 v 4.312 c 0,1.372 -0.171,2.548 -0.51,3.528 -0.34,0.98 -0.713,1.707 -1.12,2.18 -0.408,0.474 -0.934,0.841 -1.579,1.103 -0.815,0.326 -1.724,0.49 -2.725,0.49 -1.002,0 -2.148,-0.245 -3.438,-0.735 C -3.243,21.69 -4.907,20.743 -6.366,19.6 L -6.57,15.778 -7.538,15.533 v 5.929 l 0.51,0.196 c 2.648,1.11 4.668,1.78 6.06,2.009 1.392,0.229 2.411,0.351 3.056,0.368 0.645,0.016 1.265,0.007 1.859,-0.025 0.594,-0.033 1.366,-0.18 2.318,-0.441 0.95,-0.262 1.774,-0.629 2.47,-1.102 0.696,-0.474 1.299,-1.185 1.808,-2.132 0.51,-0.948 0.765,-2.075 0.765,-3.381 V 1.96 c 0,-1.013 0.271,-1.519 0.814,-1.519 L 15.229,0.294 15.178,-0.441 C 13.276,-0.702 11.579,-0.833 10.085,-0.833 9.678,-0.8 9.252,-0.596 8.812,-0.22 8.37,0.155 8.149,0.653 8.149,1.274"
             style="fill:#6cb350;fill-opacity:1;fill-rule:nonzero;stroke:none"
             id="path174" /></g><g
           id="g176"
           transform="translate(780.9434,552.5542)"><path
             d="m 0,0 c 2.513,0 5.178,0.849 7.997,2.548 v 8.085 C 2.903,10.469 -0.298,10.184 -1.604,9.775 -2.912,9.367 -3.812,8.73 -4.304,7.865 -4.796,6.999 -5.042,6.141 -5.042,5.292 V 4.802 C -4.94,3.103 -4.414,1.878 -3.463,1.127 -2.513,0.375 -1.358,0 0,0 Z M 8.149,1.274 H 7.997 C 4.94,-0.098 1.969,-0.784 -0.917,-0.784 c -4.516,0 -6.91,1.715 -7.182,5.145 -0.034,0.228 -0.05,0.441 -0.05,0.637 0,2.515 1.714,4.197 5.144,5.047 2.037,0.424 5.704,0.931 11.002,1.519 v 4.312 c 0,1.372 -0.171,2.548 -0.51,3.528 -0.34,0.98 -0.713,1.707 -1.12,2.18 -0.408,0.474 -0.934,0.841 -1.579,1.103 -0.815,0.326 -1.724,0.49 -2.725,0.49 -1.002,0 -2.148,-0.245 -3.438,-0.735 C -3.243,21.69 -4.907,20.743 -6.366,19.6 L -6.57,15.778 -7.538,15.533 v 5.929 l 0.51,0.196 c 2.648,1.11 4.668,1.78 6.06,2.009 1.392,0.229 2.411,0.351 3.056,0.368 0.645,0.016 1.265,0.007 1.859,-0.025 0.594,-0.033 1.366,-0.18 2.318,-0.441 0.95,-0.262 1.774,-0.629 2.47,-1.102 0.696,-0.474 1.299,-1.185 1.808,-2.132 0.51,-0.948 0.765,-2.075 0.765,-3.381 V 1.96 c 0,-1.013 0.271,-1.519 0.814,-1.519 L 15.229,0.294 15.178,-0.441 C 13.276,-0.702 11.579,-0.833 10.085,-0.833 9.678,-0.8 9.252,-0.596 8.812,-0.22 8.37,0.155 8.149,0.653 8.149,1.274 Z"
             style="fill:none;stroke:#6cb350;stroke-width:2;stroke-linecap:butt;stroke-linejoin:miter;stroke-miterlimit:10;stroke-dasharray:none;stroke-opacity:1"
             id="path178" /></g><g
           id="g180"
           transform="translate(808.3447,552.5542)"><path
             d="m 0,0 c 0.204,0 0.408,0.016 0.611,0.049 1.766,0.032 3.243,0.564 4.432,1.593 1.187,1.028 1.782,2.539 1.782,4.532 0,1.96 -1.596,3.381 -4.787,4.263 -1.325,0.359 -2.649,0.751 -3.974,1.176 -1.324,0.424 -2.453,1.094 -3.386,2.009 -0.935,0.914 -1.401,2.107 -1.401,3.577 0,2.09 0.831,3.765 2.495,5.023 1.665,1.257 3.77,1.886 6.317,1.886 1.901,0 3.819,-0.327 5.755,-0.98 L 8.761,22.785 V 17.15 L 7.793,16.807 7.589,20.972 c -1.969,1.502 -3.616,2.254 -4.941,2.254 -1.867,0 -3.344,-0.531 -4.43,-1.592 -1.087,-1.062 -1.63,-2.475 -1.63,-4.239 0,-1.013 0.466,-1.83 1.4,-2.45 0.934,-0.621 2.063,-1.111 3.388,-1.47 1.324,-0.36 2.648,-0.759 3.973,-1.201 1.324,-0.441 2.452,-1.159 3.386,-2.155 0.934,-0.997 1.401,-2.296 1.401,-3.896 0,-2.156 -0.84,-3.863 -2.521,-5.12 -1.681,-1.258 -4.067,-1.887 -7.156,-1.887 -3.091,0 -5.654,0.702 -7.691,2.107 v 5.635 l 0.917,0.343 0.254,-4.165 C -5.586,2.286 -4.729,1.551 -3.488,0.931 -2.249,0.31 -1.087,0 0,0"
             style="fill:#6cb350;fill-opacity:1;fill-rule:nonzero;stroke:none"
             id="path182" /></g><g
           id="g184"
           transform="translate(808.3447,552.5542)"><path
             d="m 0,0 c 0.204,0 0.408,0.016 0.611,0.049 1.766,0.032 3.243,0.564 4.432,1.593 1.187,1.028 1.782,2.539 1.782,4.532 0,1.96 -1.596,3.381 -4.787,4.263 -1.325,0.359 -2.649,0.751 -3.974,1.176 -1.324,0.424 -2.453,1.094 -3.386,2.009 -0.935,0.914 -1.401,2.107 -1.401,3.577 0,2.09 0.831,3.765 2.495,5.023 1.665,1.257 3.77,1.886 6.317,1.886 1.901,0 3.819,-0.327 5.755,-0.98 L 8.761,22.785 V 17.15 L 7.793,16.807 7.589,20.972 c -1.969,1.502 -3.616,2.254 -4.941,2.254 -1.867,0 -3.344,-0.531 -4.43,-1.592 -1.087,-1.062 -1.63,-2.475 -1.63,-4.239 0,-1.013 0.466,-1.83 1.4,-2.45 0.934,-0.621 2.063,-1.111 3.388,-1.47 1.324,-0.36 2.648,-0.759 3.973,-1.201 1.324,-0.441 2.452,-1.159 3.386,-2.155 0.934,-0.997 1.401,-2.296 1.401,-3.896 0,-2.156 -0.84,-3.863 -2.521,-5.12 -1.681,-1.258 -4.067,-1.887 -7.156,-1.887 -3.091,0 -5.654,0.702 -7.691,2.107 v 5.635 l 0.917,0.343 0.254,-4.165 C -5.586,2.286 -4.729,1.551 -3.488,0.931 -2.249,0.31 -1.087,0 0,0 Z"
             style="fill:none;stroke:#6cb350;stroke-width:2;stroke-linecap:butt;stroke-linejoin:miter;stroke-miterlimit:10;stroke-dasharray:none;stroke-opacity:1"
             id="path186" /></g><g
           id="g188"
           transform="translate(828.5137,583.0322)"><path
             d="m 0,0 c -0.68,0 -1.205,0.204 -1.578,0.613 -0.374,0.408 -0.561,0.947 -0.561,1.616 0,0.67 0.196,1.209 0.586,1.618 0.39,0.408 0.925,0.612 1.605,0.612 0.678,0 1.229,-0.204 1.655,-0.612 C 2.131,3.438 2.344,2.883 2.344,2.181 2.344,1.478 2.122,0.939 1.682,0.563 1.239,0.187 0.68,0 0,0 m 1.732,-8.575 v -21.511 l 3.82,-0.245 c 0,-0.033 -0.018,-0.278 -0.051,-0.735 l -10.187,-0.049 c 0,0.294 0.017,0.522 0.051,0.686 l 2.649,0.343 c 0.204,0 0.34,0.147 0.408,0.441 v 21.511 c -0.068,0.228 -0.171,0.343 -0.306,0.343 l -3.056,0.098 0.05,0.686 c 1.834,0.294 3.226,0.441 4.177,0.441 0.95,0 1.596,-0.213 1.936,-0.637 0.339,-0.425 0.509,-0.882 0.509,-1.372"
             style="fill:#6cb350;fill-opacity:1;fill-rule:nonzero;stroke:none"
             id="path190" /></g><g
           id="g192"
           transform="translate(828.5137,583.0322)"><path
             d="m 0,0 c -0.68,0 -1.205,0.204 -1.578,0.613 -0.374,0.408 -0.561,0.947 -0.561,1.616 0,0.67 0.196,1.209 0.586,1.618 0.39,0.408 0.925,0.612 1.605,0.612 0.678,0 1.229,-0.204 1.655,-0.612 C 2.131,3.438 2.344,2.883 2.344,2.181 2.344,1.478 2.122,0.939 1.682,0.563 1.239,0.187 0.68,0 0,0 Z m 1.732,-8.575 v -21.511 l 3.82,-0.245 c 0,-0.033 -0.018,-0.278 -0.051,-0.735 l -10.187,-0.049 c 0,0.294 0.017,0.522 0.051,0.686 l 2.649,0.343 c 0.204,0 0.34,0.147 0.408,0.441 v 21.511 c -0.068,0.228 -0.171,0.343 -0.306,0.343 l -3.056,0.098 0.05,0.686 c 1.834,0.294 3.226,0.441 4.177,0.441 0.95,0 1.596,-0.213 1.936,-0.637 0.339,-0.425 0.509,-0.882 0.509,-1.372 z"
             style="fill:none;stroke:#6cb350;stroke-width:2;stroke-linecap:butt;stroke-linejoin:miter;stroke-miterlimit:10;stroke-dasharray:none;stroke-opacity:1"
             id="path194" /></g><g
           id="g196"
           transform="translate(839.1592,551.9175)"><path
             d="m 0,0 0.051,0.686 2.648,0.343 c 0.238,0.032 0.391,0.196 0.459,0.49 v 33.516 c 0,0.359 -0.102,0.539 -0.305,0.539 l -3.108,0.098 0.051,0.686 c 2.14,0.294 3.608,0.441 4.406,0.441 0.798,0 1.375,-0.213 1.732,-0.637 C 6.29,35.737 6.469,35.28 6.469,34.79 V 1.029 l 3.82,-0.245 c 0,-0.033 -0.018,-0.278 -0.052,-0.735 z"
             style="fill:#6cb350;fill-opacity:1;fill-rule:nonzero;stroke:none"
             id="path198" /></g><g
           id="g200"
           transform="translate(839.1592,551.9175)"><path
             d="m 0,0 0.051,0.686 2.648,0.343 c 0.238,0.032 0.391,0.196 0.459,0.49 v 33.516 c 0,0.359 -0.102,0.539 -0.305,0.539 l -3.108,0.098 0.051,0.686 c 2.14,0.294 3.608,0.441 4.406,0.441 0.798,0 1.375,-0.213 1.732,-0.637 C 6.29,35.737 6.469,35.28 6.469,34.79 V 1.029 l 3.82,-0.245 c 0,-0.033 -0.018,-0.278 -0.052,-0.735 z"
             style="fill:none;stroke:#6cb350;stroke-width:2;stroke-linecap:butt;stroke-linejoin:miter;stroke-miterlimit:10;stroke-dasharray:none;stroke-opacity:1"
             id="path202" /></g><g
           id="g204"
           transform="translate(873.7422,567.3032)"><path
             d="m 0,0 c 0,2.45 -0.561,4.451 -1.681,6.002 -1.12,1.552 -2.648,2.328 -4.584,2.328 -2.513,0 -4.634,-1.062 -6.366,-3.185 -1.393,-1.666 -2.259,-3.888 -2.598,-6.664 H -0.051 C -0.018,-1.16 0,-0.654 0,0 m -15.382,-4.067 c 0,-7.056 2.853,-10.584 8.557,-10.584 1.494,0 3.09,0.155 4.788,0.465 1.697,0.311 2.783,0.596 3.26,0.858 l 0.356,-0.49 c -0.781,-0.49 -2.062,-0.899 -3.846,-1.225 -1.782,-0.326 -3.412,-0.49 -4.889,-0.49 -1.477,0 -2.801,0.147 -3.973,0.441 -1.171,0.294 -2.368,0.816 -3.591,1.568 -1.222,0.751 -2.19,1.927 -2.903,3.528 -0.713,1.6 -1.069,3.56 -1.069,5.88 0,4.312 1.154,7.611 3.463,9.898 2.411,2.384 5.212,3.577 8.404,3.577 3.191,0 5.628,-0.85 7.309,-2.548 1.681,-1.699 2.521,-4.084 2.521,-7.154 0,-0.654 -0.051,-1.356 -0.152,-2.107 h -18.184 c -0.034,-0.36 -0.051,-0.899 -0.051,-1.617"
             style="fill:#6cb350;fill-opacity:1;fill-rule:nonzero;stroke:none"
             id="path206" /></g><g
           id="g208"
           transform="translate(873.7422,567.3032)"><path
             d="m 0,0 c 0,2.45 -0.561,4.451 -1.681,6.002 -1.12,1.552 -2.648,2.328 -4.584,2.328 -2.513,0 -4.634,-1.062 -6.366,-3.185 -1.393,-1.666 -2.259,-3.888 -2.598,-6.664 H -0.051 C -0.018,-1.16 0,-0.654 0,0 Z m -15.382,-4.067 c 0,-7.056 2.853,-10.584 8.557,-10.584 1.494,0 3.09,0.155 4.788,0.465 1.697,0.311 2.783,0.596 3.26,0.858 l 0.356,-0.49 c -0.781,-0.49 -2.062,-0.899 -3.846,-1.225 -1.782,-0.326 -3.412,-0.49 -4.889,-0.49 -1.477,0 -2.801,0.147 -3.973,0.441 -1.171,0.294 -2.368,0.816 -3.591,1.568 -1.222,0.751 -2.19,1.927 -2.903,3.528 -0.713,1.6 -1.069,3.56 -1.069,5.88 0,4.312 1.154,7.611 3.463,9.898 2.411,2.384 5.212,3.577 8.404,3.577 3.191,0 5.628,-0.85 7.309,-2.548 1.681,-1.699 2.521,-4.084 2.521,-7.154 0,-0.654 -0.051,-1.356 -0.152,-2.107 h -18.184 c -0.034,-0.36 -0.051,-0.899 -0.051,-1.617 z"
             style="fill:none;stroke:#6cb350;stroke-width:2;stroke-linecap:butt;stroke-linejoin:miter;stroke-miterlimit:10;stroke-dasharray:none;stroke-opacity:1"
             id="path210" /></g><g
           id="g212"
           transform="translate(886.7812,583.0322)"><path
             d="m 0,0 c -0.68,0 -1.205,0.204 -1.578,0.613 -0.374,0.408 -0.561,0.947 -0.561,1.616 0,0.67 0.196,1.209 0.586,1.618 0.39,0.408 0.925,0.612 1.605,0.612 0.678,0 1.229,-0.204 1.655,-0.612 C 2.131,3.438 2.344,2.883 2.344,2.181 2.344,1.478 2.122,0.939 1.682,0.563 1.239,0.187 0.68,0 0,0 m 1.732,-8.575 v -21.511 l 3.82,-0.245 c 0,-0.033 -0.018,-0.278 -0.051,-0.735 l -10.187,-0.049 c 0,0.294 0.017,0.522 0.051,0.686 l 2.649,0.343 c 0.204,0 0.34,0.147 0.408,0.441 v 21.511 c -0.068,0.228 -0.171,0.343 -0.306,0.343 l -3.056,0.098 0.05,0.686 c 1.834,0.294 3.226,0.441 4.177,0.441 0.95,0 1.596,-0.213 1.936,-0.637 0.339,-0.425 0.509,-0.882 0.509,-1.372"
             style="fill:#6cb350;fill-opacity:1;fill-rule:nonzero;stroke:none"
             id="path214" /></g><g
           id="g216"
           transform="translate(886.7812,583.0322)"><path
             d="m 0,0 c -0.68,0 -1.205,0.204 -1.578,0.613 -0.374,0.408 -0.561,0.947 -0.561,1.616 0,0.67 0.196,1.209 0.586,1.618 0.39,0.408 0.925,0.612 1.605,0.612 0.678,0 1.229,-0.204 1.655,-0.612 C 2.131,3.438 2.344,2.883 2.344,2.181 2.344,1.478 2.122,0.939 1.682,0.563 1.239,0.187 0.68,0 0,0 Z m 1.732,-8.575 v -21.511 l 3.82,-0.245 c 0,-0.033 -0.018,-0.278 -0.051,-0.735 l -10.187,-0.049 c 0,0.294 0.017,0.522 0.051,0.686 l 2.649,0.343 c 0.204,0 0.34,0.147 0.408,0.441 v 21.511 c -0.068,0.228 -0.171,0.343 -0.306,0.343 l -3.056,0.098 0.05,0.686 c 1.834,0.294 3.226,0.441 4.177,0.441 0.95,0 1.596,-0.213 1.936,-0.637 0.339,-0.425 0.509,-0.882 0.509,-1.372 z"
             style="fill:none;stroke:#6cb350;stroke-width:2;stroke-linecap:butt;stroke-linejoin:miter;stroke-miterlimit:10;stroke-dasharray:none;stroke-opacity:1"
             id="path218" /></g><g
           id="g220"
           transform="translate(903.335,574.4575)"><path
             d="m 0,0 v -3.92 c 2.682,3.789 5.313,5.716 7.895,5.782 h 0.611 l 2.852,-0.343 -1.324,-2.94 C 9.389,-0.801 8.557,-0.49 7.538,-0.49 5.06,-0.523 2.547,-2.107 0,-5.243 v -16.268 l 4.329,-0.245 c 0,-0.033 -0.017,-0.278 -0.051,-0.735 L -6.417,-22.54 c 0,0.294 0.017,0.522 0.051,0.686 l 2.648,0.343 c 0.272,0.032 0.407,0.261 0.407,0.686 V 0.441 C -3.379,0.669 -3.48,0.784 -3.616,0.784 l -3.056,0.098 0.051,0.686 c 1.834,0.294 3.225,0.441 4.177,0.441 0.95,0 1.595,-0.213 1.935,-0.637 C -0.17,0.947 0,0.49 0,0"
             style="fill:#6cb350;fill-opacity:1;fill-rule:nonzero;stroke:none"
             id="path222" /></g><g
           id="g224"
           transform="translate(903.335,574.4575)"><path
             d="m 0,0 v -3.92 c 2.682,3.789 5.313,5.716 7.895,5.782 h 0.611 l 2.852,-0.343 -1.324,-2.94 C 9.389,-0.801 8.557,-0.49 7.538,-0.49 5.06,-0.523 2.547,-2.107 0,-5.243 v -16.268 l 4.329,-0.245 c 0,-0.033 -0.017,-0.278 -0.051,-0.735 L -6.417,-22.54 c 0,0.294 0.017,0.522 0.051,0.686 l 2.648,0.343 c 0.272,0.032 0.407,0.261 0.407,0.686 V 0.441 C -3.379,0.669 -3.48,0.784 -3.616,0.784 l -3.056,0.098 0.051,0.686 c 1.834,0.294 3.225,0.441 4.177,0.441 0.95,0 1.595,-0.213 1.935,-0.637 C -0.17,0.947 0,0.49 0,0 Z"
             style="fill:none;stroke:#6cb350;stroke-width:2;stroke-linecap:butt;stroke-linejoin:miter;stroke-miterlimit:10;stroke-dasharray:none;stroke-opacity:1"
             id="path226" /></g><g
           id="g228"
           transform="translate(929.4629,575.7803)"><path
             d="m 0,0 c -2.546,0 -4.669,-1.062 -6.366,-3.185 -1.698,-2.124 -2.547,-5.006 -2.547,-8.648 0,-3.643 0.807,-6.437 2.419,-8.379 1.613,-1.944 3.693,-2.916 6.24,-2.916 2.546,0 4.668,1.061 6.366,3.185 1.698,2.123 2.547,4.998 2.547,8.624 0,3.626 -0.807,6.419 -2.42,8.379 C 4.627,-0.98 2.547,0 0,0 m -0.331,-24.01 c -3.548,0 -6.417,0.98 -8.607,2.94 -2.191,1.96 -3.286,4.957 -3.286,8.991 0,4.035 1.163,7.204 3.49,9.507 2.325,2.302 5.254,3.454 8.785,3.454 3.531,0 6.4,-0.98 8.608,-2.94 2.207,-1.96 3.311,-4.958 3.311,-8.991 0,-4.035 -1.164,-7.203 -3.49,-9.507 -2.326,-2.302 -5.263,-3.454 -8.811,-3.454"
             style="fill:#6cb350;fill-opacity:1;fill-rule:nonzero;stroke:none"
             id="path230" /></g><g
           id="g232"
           transform="translate(929.4629,575.7803)"><path
             d="m 0,0 c -2.546,0 -4.669,-1.062 -6.366,-3.185 -1.698,-2.124 -2.547,-5.006 -2.547,-8.648 0,-3.643 0.807,-6.437 2.419,-8.379 1.613,-1.944 3.693,-2.916 6.24,-2.916 2.546,0 4.668,1.061 6.366,3.185 1.698,2.123 2.547,4.998 2.547,8.624 0,3.626 -0.807,6.419 -2.42,8.379 C 4.627,-0.98 2.547,0 0,0 Z m -0.331,-24.01 c -3.548,0 -6.417,0.98 -8.607,2.94 -2.191,1.96 -3.286,4.957 -3.286,8.991 0,4.035 1.163,7.204 3.49,9.507 2.325,2.302 5.254,3.454 8.785,3.454 3.531,0 6.4,-0.98 8.608,-2.94 2.207,-1.96 3.311,-4.958 3.311,-8.991 0,-4.035 -1.164,-7.203 -3.49,-9.507 -2.326,-2.302 -5.263,-3.454 -8.811,-3.454 z"
             style="fill:none;stroke:#6cb350;stroke-width:2;stroke-linecap:butt;stroke-linejoin:miter;stroke-miterlimit:10;stroke-dasharray:none;stroke-opacity:1"
             id="path234" /></g><g
           id="g236"
           transform="translate(975.3018,552.6523)"><path
             d="m 0,0 c 2.071,0 4.058,0.441 5.959,1.323 v 20.482 c -1.494,0.882 -2.972,1.323 -4.431,1.323 -2.921,0 -5.271,-1.078 -7.054,-3.234 C -7.309,17.738 -8.2,14.651 -8.2,10.633 -8.2,3.544 -5.467,0 0,0 M 9.27,34.055 V 1.862 c 0,-1.013 0.271,-1.519 0.815,-1.519 L 13.141,0.196 13.09,-0.539 C 11.46,-0.8 9.762,-0.931 7.997,-0.931 7.623,-0.898 7.224,-0.718 6.8,-0.392 6.375,-0.066 6.129,0.359 6.062,0.882 4.126,-0.294 1.885,-0.882 -0.662,-0.882 c -2.479,0 -4.771,0.669 -6.876,2.009 -1.189,0.751 -2.148,1.936 -2.878,3.553 -0.73,1.616 -1.095,3.584 -1.095,5.904 0,4.279 1.138,7.546 3.412,9.8 2.412,2.417 5.161,3.626 8.252,3.626 1.901,0 3.836,-0.474 5.806,-1.421 V 34.3 c 0,0.359 -0.102,0.539 -0.306,0.539 l -3.106,0.098 0.051,0.686 c 2.139,0.294 3.607,0.441 4.406,0.441 0.797,0 1.375,-0.213 1.731,-0.637 0.357,-0.425 0.535,-0.882 0.535,-1.372"
             style="fill:#6cb350;fill-opacity:1;fill-rule:nonzero;stroke:none"
             id="path238" /></g><g
           id="g240"
           transform="translate(975.3018,552.6523)"><path
             d="m 0,0 c 2.071,0 4.058,0.441 5.959,1.323 v 20.482 c -1.494,0.882 -2.972,1.323 -4.431,1.323 -2.921,0 -5.271,-1.078 -7.054,-3.234 C -7.309,17.738 -8.2,14.651 -8.2,10.633 -8.2,3.544 -5.467,0 0,0 Z M 9.27,34.055 V 1.862 c 0,-1.013 0.271,-1.519 0.815,-1.519 L 13.141,0.196 13.09,-0.539 C 11.46,-0.8 9.762,-0.931 7.997,-0.931 7.623,-0.898 7.224,-0.718 6.8,-0.392 6.375,-0.066 6.129,0.359 6.062,0.882 4.126,-0.294 1.885,-0.882 -0.662,-0.882 c -2.479,0 -4.771,0.669 -6.876,2.009 -1.189,0.751 -2.148,1.936 -2.878,3.553 -0.73,1.616 -1.095,3.584 -1.095,5.904 0,4.279 1.138,7.546 3.412,9.8 2.412,2.417 5.161,3.626 8.252,3.626 1.901,0 3.836,-0.474 5.806,-1.421 V 34.3 c 0,0.359 -0.102,0.539 -0.306,0.539 l -3.106,0.098 0.051,0.686 c 2.139,0.294 3.607,0.441 4.406,0.441 0.797,0 1.375,-0.213 1.731,-0.637 0.357,-0.425 0.535,-0.882 0.535,-1.372 z"
             style="fill:none;stroke:#6cb350;stroke-width:2;stroke-linecap:butt;stroke-linejoin:miter;stroke-miterlimit:10;stroke-dasharray:none;stroke-opacity:1"
             id="path242" /></g><g
           id="g244"
           transform="translate(1013.2471,567.3032)"><path
             d="m 0,0 c 0,2.45 -0.561,4.451 -1.681,6.002 -1.12,1.552 -2.648,2.328 -4.584,2.328 -2.513,0 -4.634,-1.062 -6.366,-3.185 -1.393,-1.666 -2.259,-3.888 -2.598,-6.664 H -0.051 C -0.018,-1.16 0,-0.654 0,0 m -15.382,-4.067 c 0,-7.056 2.853,-10.584 8.557,-10.584 1.494,0 3.09,0.155 4.788,0.465 1.697,0.311 2.783,0.596 3.26,0.858 l 0.356,-0.49 c -0.781,-0.49 -2.062,-0.899 -3.846,-1.225 -1.782,-0.326 -3.412,-0.49 -4.889,-0.49 -1.477,0 -2.801,0.147 -3.973,0.441 -1.171,0.294 -2.368,0.816 -3.591,1.568 -1.222,0.751 -2.19,1.927 -2.903,3.528 -0.713,1.6 -1.069,3.56 -1.069,5.88 0,4.312 1.154,7.611 3.463,9.898 2.411,2.384 5.212,3.577 8.404,3.577 3.191,0 5.628,-0.85 7.309,-2.548 1.681,-1.699 2.521,-4.084 2.521,-7.154 0,-0.654 -0.051,-1.356 -0.152,-2.107 h -18.184 c -0.034,-0.36 -0.051,-0.899 -0.051,-1.617"
             style="fill:#6cb350;fill-opacity:1;fill-rule:nonzero;stroke:none"
             id="path246" /></g><g
           id="g248"
           transform="translate(1013.2471,567.3032)"><path
             d="m 0,0 c 0,2.45 -0.561,4.451 -1.681,6.002 -1.12,1.552 -2.648,2.328 -4.584,2.328 -2.513,0 -4.634,-1.062 -6.366,-3.185 -1.393,-1.666 -2.259,-3.888 -2.598,-6.664 H -0.051 C -0.018,-1.16 0,-0.654 0,0 Z m -15.382,-4.067 c 0,-7.056 2.853,-10.584 8.557,-10.584 1.494,0 3.09,0.155 4.788,0.465 1.697,0.311 2.783,0.596 3.26,0.858 l 0.356,-0.49 c -0.781,-0.49 -2.062,-0.899 -3.846,-1.225 -1.782,-0.326 -3.412,-0.49 -4.889,-0.49 -1.477,0 -2.801,0.147 -3.973,0.441 -1.171,0.294 -2.368,0.816 -3.591,1.568 -1.222,0.751 -2.19,1.927 -2.903,3.528 -0.713,1.6 -1.069,3.56 -1.069,5.88 0,4.312 1.154,7.611 3.463,9.898 2.411,2.384 5.212,3.577 8.404,3.577 3.191,0 5.628,-0.85 7.309,-2.548 1.681,-1.699 2.521,-4.084 2.521,-7.154 0,-0.654 -0.051,-1.356 -0.152,-2.107 h -18.184 c -0.034,-0.36 -0.051,-0.899 -0.051,-1.617 z"
             style="fill:none;stroke:#6cb350;stroke-width:2;stroke-linecap:butt;stroke-linejoin:miter;stroke-miterlimit:10;stroke-dasharray:none;stroke-opacity:1"
             id="path250" /></g><g
           id="g252"
           transform="translate(732.8623,526.7314)"><path
             d="M 0,0 H -3.668 V -19.502 H 0 c 3.056,0 5.339,0.783 6.851,2.352 1.509,1.568 2.266,4.189 2.266,7.864 0,3.675 -0.748,6.141 -2.241,7.399 C 5.381,-0.63 3.089,0 0,0 m -10.441,0.146 0.101,0.588 H 0.254 c 4.177,0 7.275,-0.685 9.296,-2.057 2.019,-1.372 3.03,-3.962 3.03,-7.767 0,-3.806 -1.044,-6.615 -3.132,-8.428 -2.089,-1.813 -5.153,-2.719 -9.194,-2.719 h -3.922 v -12.398 l 3.515,-0.195 c 0,-0.033 -0.018,-0.278 -0.051,-0.735 l -10.187,-0.049 c 0,0.294 0.017,0.522 0.051,0.685 l 2.649,0.344 c 0.237,0.031 0.424,0.179 0.56,0.44 v 31.361 c -0.136,0.294 -0.323,0.457 -0.56,0.49 L -10.391,0 c -0.034,0.031 -0.05,0.081 -0.05,0.146"
             style="fill:#6cb350;fill-opacity:1;fill-rule:nonzero;stroke:none"
             id="path254" /></g><g
           id="g256"
           transform="translate(732.8623,526.7314)"><path
             d="M 0,0 H -3.668 V -19.502 H 0 c 3.056,0 5.339,0.783 6.851,2.352 1.509,1.568 2.266,4.189 2.266,7.864 0,3.675 -0.748,6.141 -2.241,7.399 C 5.381,-0.63 3.089,0 0,0 Z m -10.441,0.146 0.101,0.588 H 0.254 c 4.177,0 7.275,-0.685 9.296,-2.057 2.019,-1.372 3.03,-3.962 3.03,-7.767 0,-3.806 -1.044,-6.615 -3.132,-8.428 -2.089,-1.813 -5.153,-2.719 -9.194,-2.719 h -3.922 v -12.398 l 3.515,-0.195 c 0,-0.033 -0.018,-0.278 -0.051,-0.735 l -10.187,-0.049 c 0,0.294 0.017,0.522 0.051,0.685 l 2.649,0.344 c 0.237,0.031 0.424,0.179 0.56,0.44 v 31.361 c -0.136,0.294 -0.323,0.457 -0.56,0.49 L -10.391,0 c -0.034,0.031 -0.05,0.081 -0.05,0.146 z"
             style="fill:none;stroke:#6cb350;stroke-width:2;stroke-linecap:butt;stroke-linejoin:miter;stroke-miterlimit:10;stroke-dasharray:none;stroke-opacity:1"
             id="path258" /></g><g
           id="g260"
           transform="translate(756.4941,493.7539)"><path
             d="m 0,0 c 0.204,0 0.408,0.017 0.611,0.049 1.766,0.032 3.243,0.563 4.432,1.593 1.187,1.029 1.782,2.54 1.782,4.532 0,1.96 -1.596,3.381 -4.787,4.264 -1.325,0.358 -2.649,0.75 -3.974,1.175 -1.324,0.424 -2.453,1.094 -3.386,2.009 -0.935,0.914 -1.401,2.107 -1.401,3.577 0,2.09 0.831,3.765 2.495,5.023 1.665,1.257 3.77,1.886 6.317,1.886 1.901,0 3.819,-0.327 5.755,-0.98 L 8.761,22.785 V 17.15 L 7.793,16.807 7.589,20.972 c -1.969,1.503 -3.616,2.255 -4.941,2.255 -1.867,0 -3.344,-0.533 -4.43,-1.593 -1.087,-1.063 -1.63,-2.475 -1.63,-4.238 0,-1.014 0.466,-1.831 1.4,-2.451 0.934,-0.621 2.063,-1.111 3.388,-1.469 1.324,-0.361 2.648,-0.76 3.973,-1.202 1.324,-0.44 2.452,-1.16 3.386,-2.156 0.934,-0.996 1.401,-2.295 1.401,-3.895 0,-2.156 -0.84,-3.864 -2.521,-5.12 -1.681,-1.258 -4.067,-1.887 -7.156,-1.887 -3.091,0 -5.654,0.702 -7.691,2.107 v 5.635 l 0.917,0.343 0.254,-4.165 C -5.586,2.286 -4.729,1.551 -3.488,0.931 -2.249,0.311 -1.087,0 0,0"
             style="fill:#6cb350;fill-opacity:1;fill-rule:nonzero;stroke:none"
             id="path262" /></g><g
           id="g264"
           transform="translate(756.4941,493.7539)"><path
             d="m 0,0 c 0.204,0 0.408,0.017 0.611,0.049 1.766,0.032 3.243,0.563 4.432,1.593 1.187,1.029 1.782,2.54 1.782,4.532 0,1.96 -1.596,3.381 -4.787,4.264 -1.325,0.358 -2.649,0.75 -3.974,1.175 -1.324,0.424 -2.453,1.094 -3.386,2.009 -0.935,0.914 -1.401,2.107 -1.401,3.577 0,2.09 0.831,3.765 2.495,5.023 1.665,1.257 3.77,1.886 6.317,1.886 1.901,0 3.819,-0.327 5.755,-0.98 L 8.761,22.785 V 17.15 L 7.793,16.807 7.589,20.972 c -1.969,1.503 -3.616,2.255 -4.941,2.255 -1.867,0 -3.344,-0.533 -4.43,-1.593 -1.087,-1.063 -1.63,-2.475 -1.63,-4.238 0,-1.014 0.466,-1.831 1.4,-2.451 0.934,-0.621 2.063,-1.111 3.388,-1.469 1.324,-0.361 2.648,-0.76 3.973,-1.202 1.324,-0.44 2.452,-1.16 3.386,-2.156 0.934,-0.996 1.401,-2.295 1.401,-3.895 0,-2.156 -0.84,-3.864 -2.521,-5.12 -1.681,-1.258 -4.067,-1.887 -7.156,-1.887 -3.091,0 -5.654,0.702 -7.691,2.107 v 5.635 l 0.917,0.343 0.254,-4.165 C -5.586,2.286 -4.729,1.551 -3.488,0.931 -2.249,0.311 -1.087,0 0,0 Z"
             style="fill:none;stroke:#6cb350;stroke-width:2;stroke-linecap:butt;stroke-linejoin:miter;stroke-miterlimit:10;stroke-dasharray:none;stroke-opacity:1"
             id="path266" /></g><g
           id="g268"
           transform="translate(776.6631,524.2324)"><path
             d="m 0,0 c -0.68,0 -1.205,0.203 -1.578,0.612 -0.374,0.409 -0.561,0.948 -0.561,1.617 0,0.669 0.196,1.209 0.586,1.617 0.39,0.408 0.925,0.613 1.605,0.613 0.678,0 1.229,-0.205 1.655,-0.613 C 2.131,3.438 2.344,2.882 2.344,2.18 2.344,1.478 2.122,0.938 1.682,0.563 1.239,0.187 0.68,0 0,0 m 1.732,-8.575 v -21.511 l 3.82,-0.245 c 0,-0.033 -0.018,-0.278 -0.051,-0.735 l -10.187,-0.049 c 0,0.294 0.017,0.522 0.051,0.685 l 2.649,0.344 c 0.204,0 0.34,0.147 0.408,0.44 v 21.511 c -0.068,0.229 -0.171,0.344 -0.306,0.344 l -3.056,0.098 0.05,0.685 c 1.834,0.294 3.226,0.442 4.177,0.442 0.95,0 1.596,-0.213 1.936,-0.637 0.339,-0.425 0.509,-0.882 0.509,-1.372"
             style="fill:#6cb350;fill-opacity:1;fill-rule:nonzero;stroke:none"
             id="path270" /></g><g
           id="g272"
           transform="translate(776.6631,524.2324)"><path
             d="m 0,0 c -0.68,0 -1.205,0.203 -1.578,0.612 -0.374,0.409 -0.561,0.948 -0.561,1.617 0,0.669 0.196,1.209 0.586,1.617 0.39,0.408 0.925,0.613 1.605,0.613 0.678,0 1.229,-0.205 1.655,-0.613 C 2.131,3.438 2.344,2.882 2.344,2.18 2.344,1.478 2.122,0.938 1.682,0.563 1.239,0.187 0.68,0 0,0 Z m 1.732,-8.575 v -21.511 l 3.82,-0.245 c 0,-0.033 -0.018,-0.278 -0.051,-0.735 l -10.187,-0.049 c 0,0.294 0.017,0.522 0.051,0.685 l 2.649,0.344 c 0.204,0 0.34,0.147 0.408,0.44 v 21.511 c -0.068,0.229 -0.171,0.344 -0.306,0.344 l -3.056,0.098 0.05,0.685 c 1.834,0.294 3.226,0.442 4.177,0.442 0.95,0 1.596,-0.213 1.936,-0.637 0.339,-0.425 0.509,-0.882 0.509,-1.372 z"
             style="fill:none;stroke:#6cb350;stroke-width:2;stroke-linecap:butt;stroke-linejoin:miter;stroke-miterlimit:10;stroke-dasharray:none;stroke-opacity:1"
             id="path274" /></g><g
           id="g276"
           transform="translate(801.3154,516.9805)"><path
             d="m 0,0 c -2.887,0 -5.221,-1.087 -7.004,-3.259 -1.782,-2.173 -2.674,-5.252 -2.674,-9.236 0,-7.089 2.802,-10.634 8.405,-10.634 2.207,0 4.09,0.204 5.653,0.613 1.561,0.409 2.41,0.662 2.547,0.759 l 0.356,-0.539 c -0.781,-0.489 -2.071,-0.898 -3.871,-1.225 -1.8,-0.326 -3.43,-0.49 -4.89,-0.49 -1.46,0 -2.784,0.148 -3.972,0.442 -1.189,0.294 -2.386,0.816 -3.591,1.568 -1.206,0.751 -2.165,1.935 -2.878,3.552 -0.713,1.617 -1.069,3.585 -1.069,5.904 0,4.279 1.137,7.514 3.412,9.702 2.547,2.516 5.756,3.774 9.627,3.774 1.222,0 2.521,-0.156 3.896,-0.466 C 5.322,0.154 6.383,-0.327 7.13,-0.98 V -7.399 L 6.162,-7.742 5.908,-2.598 C 5.16,-1.847 4.253,-1.226 3.183,-0.735 2.113,-0.245 1.052,0 0,0"
             style="fill:#6cb350;fill-opacity:1;fill-rule:nonzero;stroke:none"
             id="path278" /></g><g
           id="g280"
           transform="translate(801.3154,516.9805)"><path
             d="m 0,0 c -2.887,0 -5.221,-1.087 -7.004,-3.259 -1.782,-2.173 -2.674,-5.252 -2.674,-9.236 0,-7.089 2.802,-10.634 8.405,-10.634 2.207,0 4.09,0.204 5.653,0.613 1.561,0.409 2.41,0.662 2.547,0.759 l 0.356,-0.539 c -0.781,-0.489 -2.071,-0.898 -3.871,-1.225 -1.8,-0.326 -3.43,-0.49 -4.89,-0.49 -1.46,0 -2.784,0.148 -3.972,0.442 -1.189,0.294 -2.386,0.816 -3.591,1.568 -1.206,0.751 -2.165,1.935 -2.878,3.552 -0.713,1.617 -1.069,3.585 -1.069,5.904 0,4.279 1.137,7.514 3.412,9.702 2.547,2.516 5.756,3.774 9.627,3.774 1.222,0 2.521,-0.156 3.896,-0.466 C 5.322,0.154 6.383,-0.327 7.13,-0.98 V -7.399 L 6.162,-7.742 5.908,-2.598 C 5.16,-1.847 4.253,-1.226 3.183,-0.735 2.113,-0.245 1.052,0 0,0 Z"
             style="fill:none;stroke:#6cb350;stroke-width:2;stroke-linecap:butt;stroke-linejoin:miter;stroke-miterlimit:10;stroke-dasharray:none;stroke-opacity:1"
             id="path282" /></g><g
           id="g284"
           transform="translate(824.8975,516.9805)"><path
             d="m 0,0 c -2.546,0 -4.669,-1.062 -6.366,-3.186 -1.698,-2.124 -2.547,-5.005 -2.547,-8.648 0,-3.643 0.807,-6.436 2.419,-8.379 1.613,-1.944 3.693,-2.916 6.24,-2.916 2.546,0 4.668,1.062 6.366,3.186 1.698,2.123 2.547,4.998 2.547,8.624 0,3.626 -0.807,6.419 -2.42,8.379 C 4.627,-0.98 2.547,0 0,0 m -0.331,-24.011 c -3.548,0 -6.417,0.981 -8.607,2.941 -2.191,1.96 -3.286,4.956 -3.286,8.991 0,4.034 1.163,7.203 3.49,9.506 2.325,2.303 5.254,3.455 8.785,3.455 3.531,0 6.4,-0.981 8.608,-2.941 2.207,-1.96 3.311,-4.957 3.311,-8.991 0,-4.035 -1.164,-7.203 -3.49,-9.506 -2.326,-2.303 -5.263,-3.455 -8.811,-3.455"
             style="fill:#6cb350;fill-opacity:1;fill-rule:nonzero;stroke:none"
             id="path286" /></g><g
           id="g288"
           transform="translate(824.8975,516.9805)"><path
             d="m 0,0 c -2.546,0 -4.669,-1.062 -6.366,-3.186 -1.698,-2.124 -2.547,-5.005 -2.547,-8.648 0,-3.643 0.807,-6.436 2.419,-8.379 1.613,-1.944 3.693,-2.916 6.24,-2.916 2.546,0 4.668,1.062 6.366,3.186 1.698,2.123 2.547,4.998 2.547,8.624 0,3.626 -0.807,6.419 -2.42,8.379 C 4.627,-0.98 2.547,0 0,0 Z m -0.331,-24.011 c -3.548,0 -6.417,0.981 -8.607,2.941 -2.191,1.96 -3.286,4.956 -3.286,8.991 0,4.034 1.163,7.203 3.49,9.506 2.325,2.303 5.254,3.455 8.785,3.455 3.531,0 6.4,-0.981 8.608,-2.941 2.207,-1.96 3.311,-4.957 3.311,-8.991 0,-4.035 -1.164,-7.203 -3.49,-9.506 -2.326,-2.303 -5.263,-3.455 -8.811,-3.455 z"
             style="fill:none;stroke:#6cb350;stroke-width:2;stroke-linecap:butt;stroke-linejoin:miter;stroke-miterlimit:10;stroke-dasharray:none;stroke-opacity:1"
             id="path290" /></g><g
           id="g292"
           transform="translate(841.7051,493.1172)"><path
             d="m 0,0 0.051,0.686 2.648,0.343 c 0.238,0.032 0.391,0.196 0.459,0.49 v 33.516 c 0,0.359 -0.102,0.539 -0.305,0.539 l -3.108,0.098 0.051,0.685 c 2.14,0.295 3.608,0.442 4.406,0.442 0.798,0 1.375,-0.213 1.732,-0.637 C 6.29,35.737 6.469,35.28 6.469,34.79 V 1.029 l 3.82,-0.245 c 0,-0.033 -0.018,-0.278 -0.052,-0.735 z"
             style="fill:#6cb350;fill-opacity:1;fill-rule:nonzero;stroke:none"
             id="path294" /></g><g
           id="g296"
           transform="translate(841.7051,493.1172)"><path
             d="m 0,0 0.051,0.686 2.648,0.343 c 0.238,0.032 0.391,0.196 0.459,0.49 v 33.516 c 0,0.359 -0.102,0.539 -0.305,0.539 l -3.108,0.098 0.051,0.685 c 2.14,0.295 3.608,0.442 4.406,0.442 0.798,0 1.375,-0.213 1.732,-0.637 C 6.29,35.737 6.469,35.28 6.469,34.79 V 1.029 l 3.82,-0.245 c 0,-0.033 -0.018,-0.278 -0.052,-0.735 z"
             style="fill:none;stroke:#6cb350;stroke-width:2;stroke-linecap:butt;stroke-linejoin:miter;stroke-miterlimit:10;stroke-dasharray:none;stroke-opacity:1"
             id="path298" /></g><g
           id="g300"
           transform="translate(869.8193,516.9805)"><path
             d="m 0,0 c -2.546,0 -4.669,-1.062 -6.366,-3.186 -1.698,-2.124 -2.547,-5.005 -2.547,-8.648 0,-3.643 0.807,-6.436 2.419,-8.379 1.613,-1.944 3.693,-2.916 6.24,-2.916 2.546,0 4.668,1.062 6.366,3.186 1.698,2.123 2.547,4.998 2.547,8.624 0,3.626 -0.807,6.419 -2.42,8.379 C 4.627,-0.98 2.547,0 0,0 m -0.331,-24.011 c -3.548,0 -6.417,0.981 -8.607,2.941 -2.191,1.96 -3.286,4.956 -3.286,8.991 0,4.034 1.163,7.203 3.49,9.506 2.325,2.303 5.254,3.455 8.785,3.455 3.531,0 6.4,-0.981 8.608,-2.941 2.207,-1.96 3.311,-4.957 3.311,-8.991 0,-4.035 -1.164,-7.203 -3.49,-9.506 -2.326,-2.303 -5.263,-3.455 -8.811,-3.455"
             style="fill:#6cb350;fill-opacity:1;fill-rule:nonzero;stroke:none"
             id="path302" /></g><g
           id="g304"
           transform="translate(869.8193,516.9805)"><path
             d="m 0,0 c -2.546,0 -4.669,-1.062 -6.366,-3.186 -1.698,-2.124 -2.547,-5.005 -2.547,-8.648 0,-3.643 0.807,-6.436 2.419,-8.379 1.613,-1.944 3.693,-2.916 6.24,-2.916 2.546,0 4.668,1.062 6.366,3.186 1.698,2.123 2.547,4.998 2.547,8.624 0,3.626 -0.807,6.419 -2.42,8.379 C 4.627,-0.98 2.547,0 0,0 Z m -0.331,-24.011 c -3.548,0 -6.417,0.981 -8.607,2.941 -2.191,1.96 -3.286,4.956 -3.286,8.991 0,4.034 1.163,7.203 3.49,9.506 2.325,2.303 5.254,3.455 8.785,3.455 3.531,0 6.4,-0.981 8.608,-2.941 2.207,-1.96 3.311,-4.957 3.311,-8.991 0,-4.035 -1.164,-7.203 -3.49,-9.506 -2.326,-2.303 -5.263,-3.455 -8.811,-3.455 z"
             style="fill:none;stroke:#6cb350;stroke-width:2;stroke-linecap:butt;stroke-linejoin:miter;stroke-miterlimit:10;stroke-dasharray:none;stroke-opacity:1"
             id="path306" /></g><g
           id="g308"
           transform="translate(891.7715,515.3389)"><path
             d="m 0,0 c -1.291,-1.258 -1.936,-3.145 -1.936,-5.66 0,-2.516 0.492,-4.394 1.477,-5.635 0.984,-1.242 2.589,-1.862 4.813,-1.862 2.224,0 3.973,0.711 5.247,2.132 1.273,1.421 1.91,3.339 1.91,5.757 0,4.769 -2.14,7.154 -6.418,7.154 C 2.987,1.886 1.29,1.257 0,0 m 0,-19.723 c -2.208,-2.32 -3.312,-4.589 -3.312,-6.811 0,-2.221 0.671,-3.945 2.013,-5.169 1.341,-1.226 3.387,-1.838 6.137,-1.838 2.751,0 5.017,0.507 6.8,1.52 1.783,1.012 2.674,2.629 2.674,4.85 0,1.764 -0.569,3.055 -1.707,3.871 -1.137,0.817 -2.742,1.421 -4.813,1.813 -4.176,0.752 -6.773,1.34 -7.792,1.764 m -6.622,-7.497 c 0,3.071 1.935,5.7 5.807,7.889 -1.664,0.882 -2.497,2.001 -2.497,3.356 0,1.356 0.68,2.41 2.039,3.162 -2.649,1.142 -3.973,3.559 -3.973,7.251 0,2.515 0.984,4.492 2.954,5.929 1.969,1.438 4.481,2.156 7.538,2.156 1.426,0 2.783,-0.164 4.074,-0.49 l 8.506,0.49 -0.101,-1.862 -6.062,0.343 c 2.207,-1.372 3.311,-3.446 3.311,-6.223 0,-2.777 -0.934,-4.9 -2.801,-6.37 -1.868,-1.47 -4.278,-2.205 -7.233,-2.205 -1.969,0 -3.583,0.163 -4.838,0.49 -0.579,-0.621 -0.867,-1.34 -0.867,-2.156 0,-1.47 0.612,-2.532 1.834,-3.185 1.325,-0.751 3.667,-1.405 7.029,-1.959 0.781,-0.131 1.349,-0.238 1.707,-0.32 0.356,-0.081 0.873,-0.187 1.552,-0.318 0.679,-0.131 1.189,-0.253 1.529,-0.367 0.339,-0.116 0.771,-0.279 1.299,-0.491 0.526,-0.212 0.924,-0.416 1.197,-0.612 0.27,-0.196 0.576,-0.441 0.916,-0.735 0.34,-0.294 0.594,-0.62 0.764,-0.98 0.374,-0.849 0.56,-1.838 0.56,-2.965 0,-1.127 -0.356,-2.196 -1.069,-3.209 -0.713,-1.012 -1.699,-1.78 -2.954,-2.303 -2.445,-1.012 -5.246,-1.519 -8.405,-1.519 -4.175,0 -7.189,0.711 -9.04,2.132 -1.851,1.421 -2.776,3.111 -2.776,5.071"
             style="fill:#6cb350;fill-opacity:1;fill-rule:nonzero;stroke:none"
             id="path310" /></g><g
           id="g312"
           transform="translate(891.7715,515.3389)"><path
             d="m 0,0 c -1.291,-1.258 -1.936,-3.145 -1.936,-5.66 0,-2.516 0.492,-4.394 1.477,-5.635 0.984,-1.242 2.589,-1.862 4.813,-1.862 2.224,0 3.973,0.711 5.247,2.132 1.273,1.421 1.91,3.339 1.91,5.757 0,4.769 -2.14,7.154 -6.418,7.154 C 2.987,1.886 1.29,1.257 0,0 Z m 0,-19.723 c -2.208,-2.32 -3.312,-4.589 -3.312,-6.811 0,-2.221 0.671,-3.945 2.013,-5.169 1.341,-1.226 3.387,-1.838 6.137,-1.838 2.751,0 5.017,0.507 6.8,1.52 1.783,1.012 2.674,2.629 2.674,4.85 0,1.764 -0.569,3.055 -1.707,3.871 -1.137,0.817 -2.742,1.421 -4.813,1.813 -4.176,0.752 -6.773,1.34 -7.792,1.764 z m -6.622,-7.497 c 0,3.071 1.935,5.7 5.807,7.889 -1.664,0.882 -2.497,2.001 -2.497,3.356 0,1.356 0.68,2.41 2.039,3.162 -2.649,1.142 -3.973,3.559 -3.973,7.251 0,2.515 0.984,4.492 2.954,5.929 1.969,1.438 4.481,2.156 7.538,2.156 1.426,0 2.783,-0.164 4.074,-0.49 l 8.506,0.49 -0.101,-1.862 -6.062,0.343 c 2.207,-1.372 3.311,-3.446 3.311,-6.223 0,-2.777 -0.934,-4.9 -2.801,-6.37 -1.868,-1.47 -4.278,-2.205 -7.233,-2.205 -1.969,0 -3.583,0.163 -4.838,0.49 -0.579,-0.621 -0.867,-1.34 -0.867,-2.156 0,-1.47 0.612,-2.532 1.834,-3.185 1.325,-0.751 3.667,-1.405 7.029,-1.959 0.781,-0.131 1.349,-0.238 1.707,-0.32 0.356,-0.081 0.873,-0.187 1.552,-0.318 0.679,-0.131 1.189,-0.253 1.529,-0.367 0.339,-0.116 0.771,-0.279 1.299,-0.491 0.526,-0.212 0.924,-0.416 1.197,-0.612 0.27,-0.196 0.576,-0.441 0.916,-0.735 0.34,-0.294 0.594,-0.62 0.764,-0.98 0.374,-0.849 0.56,-1.838 0.56,-2.965 0,-1.127 -0.356,-2.196 -1.069,-3.209 -0.713,-1.012 -1.699,-1.78 -2.954,-2.303 -2.445,-1.012 -5.246,-1.519 -8.405,-1.519 -4.175,0 -7.189,0.711 -9.04,2.132 -1.851,1.421 -2.776,3.111 -2.776,5.071 z"
             style="fill:none;stroke:#6cb350;stroke-width:2;stroke-linecap:butt;stroke-linejoin:miter;stroke-miterlimit:10;stroke-dasharray:none;stroke-opacity:1"
             id="path314" /></g><g
           id="g316"
           transform="translate(918.8672,524.2324)"><path
             d="m 0,0 c -0.68,0 -1.205,0.203 -1.578,0.612 -0.374,0.409 -0.561,0.948 -0.561,1.617 0,0.669 0.196,1.209 0.586,1.617 0.39,0.408 0.925,0.613 1.605,0.613 0.678,0 1.229,-0.205 1.655,-0.613 C 2.131,3.438 2.344,2.882 2.344,2.18 2.344,1.478 2.122,0.938 1.682,0.563 1.239,0.187 0.68,0 0,0 m 1.732,-8.575 v -21.511 l 3.82,-0.245 c 0,-0.033 -0.018,-0.278 -0.051,-0.735 l -10.187,-0.049 c 0,0.294 0.017,0.522 0.051,0.685 l 2.649,0.344 c 0.204,0 0.34,0.147 0.408,0.44 v 21.511 c -0.068,0.229 -0.171,0.344 -0.306,0.344 l -3.056,0.098 0.05,0.685 c 1.834,0.294 3.226,0.442 4.177,0.442 0.95,0 1.596,-0.213 1.936,-0.637 0.339,-0.425 0.509,-0.882 0.509,-1.372"
             style="fill:#6cb350;fill-opacity:1;fill-rule:nonzero;stroke:none"
             id="path318" /></g><g
           id="g320"
           transform="translate(918.8672,524.2324)"><path
             d="m 0,0 c -0.68,0 -1.205,0.203 -1.578,0.612 -0.374,0.409 -0.561,0.948 -0.561,1.617 0,0.669 0.196,1.209 0.586,1.617 0.39,0.408 0.925,0.613 1.605,0.613 0.678,0 1.229,-0.205 1.655,-0.613 C 2.131,3.438 2.344,2.882 2.344,2.18 2.344,1.478 2.122,0.938 1.682,0.563 1.239,0.187 0.68,0 0,0 Z m 1.732,-8.575 v -21.511 l 3.82,-0.245 c 0,-0.033 -0.018,-0.278 -0.051,-0.735 l -10.187,-0.049 c 0,0.294 0.017,0.522 0.051,0.685 l 2.649,0.344 c 0.204,0 0.34,0.147 0.408,0.44 v 21.511 c -0.068,0.229 -0.171,0.344 -0.306,0.344 l -3.056,0.098 0.05,0.685 c 1.834,0.294 3.226,0.442 4.177,0.442 0.95,0 1.596,-0.213 1.936,-0.637 0.339,-0.425 0.509,-0.882 0.509,-1.372 z"
             style="fill:none;stroke:#6cb350;stroke-width:2;stroke-linecap:butt;stroke-linejoin:miter;stroke-miterlimit:10;stroke-dasharray:none;stroke-opacity:1"
             id="path322" /></g><g
           id="g324"
           transform="translate(937.917,493.7539)"><path
             d="m 0,0 c 2.513,0 5.178,0.85 7.997,2.548 v 8.085 C 2.903,10.47 -0.298,10.184 -1.604,9.775 -2.912,9.367 -3.812,8.729 -4.304,7.864 -4.796,6.999 -5.042,6.142 -5.042,5.292 V 4.802 C -4.94,3.104 -4.414,1.878 -3.463,1.127 -2.513,0.375 -1.358,0 0,0 M 8.149,1.274 H 7.997 C 4.94,-0.098 1.969,-0.784 -0.917,-0.784 c -4.516,0 -6.91,1.715 -7.182,5.145 -0.034,0.228 -0.05,0.441 -0.05,0.637 0,2.516 1.714,4.197 5.144,5.047 2.037,0.425 5.704,0.932 11.002,1.519 v 4.312 c 0,1.372 -0.171,2.548 -0.51,3.528 -0.34,0.98 -0.713,1.706 -1.12,2.181 -0.408,0.473 -0.934,0.84 -1.579,1.102 -0.815,0.327 -1.724,0.49 -2.725,0.49 -1.002,0 -2.148,-0.245 -3.438,-0.735 -1.868,-0.752 -3.532,-1.699 -4.991,-2.841 L -6.57,15.778 -7.538,15.533 v 5.929 l 0.51,0.196 c 2.648,1.111 4.668,1.78 6.06,2.009 1.392,0.229 2.411,0.351 3.056,0.367 0.645,0.017 1.265,0.008 1.859,-0.024 0.594,-0.032 1.366,-0.18 2.318,-0.441 0.95,-0.261 1.774,-0.63 2.47,-1.102 0.696,-0.474 1.299,-1.185 1.808,-2.132 0.51,-0.947 0.765,-2.074 0.765,-3.381 V 1.96 c 0,-1.013 0.271,-1.519 0.814,-1.519 L 15.229,0.294 15.178,-0.44 C 13.276,-0.702 11.579,-0.833 10.085,-0.833 9.678,-0.8 9.252,-0.596 8.812,-0.221 8.37,0.154 8.149,0.653 8.149,1.274"
             style="fill:#6cb350;fill-opacity:1;fill-rule:nonzero;stroke:none"
             id="path326" /></g><g
           id="g328"
           transform="translate(937.917,493.7539)"><path
             d="m 0,0 c 2.513,0 5.178,0.85 7.997,2.548 v 8.085 C 2.903,10.47 -0.298,10.184 -1.604,9.775 -2.912,9.367 -3.812,8.729 -4.304,7.864 -4.796,6.999 -5.042,6.142 -5.042,5.292 V 4.802 C -4.94,3.104 -4.414,1.878 -3.463,1.127 -2.513,0.375 -1.358,0 0,0 Z M 8.149,1.274 H 7.997 C 4.94,-0.098 1.969,-0.784 -0.917,-0.784 c -4.516,0 -6.91,1.715 -7.182,5.145 -0.034,0.228 -0.05,0.441 -0.05,0.637 0,2.516 1.714,4.197 5.144,5.047 2.037,0.425 5.704,0.932 11.002,1.519 v 4.312 c 0,1.372 -0.171,2.548 -0.51,3.528 -0.34,0.98 -0.713,1.706 -1.12,2.181 -0.408,0.473 -0.934,0.84 -1.579,1.102 -0.815,0.327 -1.724,0.49 -2.725,0.49 -1.002,0 -2.148,-0.245 -3.438,-0.735 -1.868,-0.752 -3.532,-1.699 -4.991,-2.841 L -6.57,15.778 -7.538,15.533 v 5.929 l 0.51,0.196 c 2.648,1.111 4.668,1.78 6.06,2.009 1.392,0.229 2.411,0.351 3.056,0.367 0.645,0.017 1.265,0.008 1.859,-0.024 0.594,-0.032 1.366,-0.18 2.318,-0.441 0.95,-0.261 1.774,-0.63 2.47,-1.102 0.696,-0.474 1.299,-1.185 1.808,-2.132 0.51,-0.947 0.765,-2.074 0.765,-3.381 V 1.96 c 0,-1.013 0.271,-1.519 0.814,-1.519 L 15.229,0.294 15.178,-0.44 C 13.276,-0.702 11.579,-0.833 10.085,-0.833 9.678,-0.8 9.252,-0.596 8.812,-0.221 8.37,0.154 8.149,0.653 8.149,1.274 Z"
             style="fill:none;stroke:#6cb350;stroke-width:2;stroke-linecap:butt;stroke-linejoin:miter;stroke-miterlimit:10;stroke-dasharray:none;stroke-opacity:1"
             id="path330" /></g><g
           id="g332"
           transform="translate(986.7607,493.8516)"><path
             d="m 0,0 c 2.071,0 4.058,0.441 5.959,1.323 v 20.483 c -1.494,0.881 -2.972,1.323 -4.431,1.323 -2.921,0 -5.271,-1.078 -7.054,-3.234 C -7.309,17.738 -8.2,14.651 -8.2,10.634 -8.2,3.545 -5.467,0 0,0 M 9.27,34.056 V 1.862 C 9.27,0.85 9.541,0.344 10.085,0.344 L 13.141,0.196 13.09,-0.538 C 11.46,-0.8 9.762,-0.931 7.997,-0.931 7.623,-0.897 7.224,-0.718 6.8,-0.392 6.375,-0.065 6.129,0.359 6.062,0.883 4.126,-0.294 1.885,-0.882 -0.662,-0.882 c -2.479,0 -4.771,0.67 -6.876,2.01 -1.189,0.751 -2.148,1.935 -2.878,3.552 -0.73,1.617 -1.095,3.585 -1.095,5.904 0,4.279 1.138,7.547 3.412,9.801 2.412,2.417 5.161,3.626 8.252,3.626 1.901,0 3.836,-0.475 5.806,-1.421 v 11.711 c 0,0.358 -0.102,0.539 -0.306,0.539 l -3.106,0.098 0.051,0.685 c 2.139,0.295 3.607,0.441 4.406,0.441 0.797,0 1.375,-0.212 1.731,-0.636 0.357,-0.425 0.535,-0.882 0.535,-1.372"
             style="fill:#6cb350;fill-opacity:1;fill-rule:nonzero;stroke:none"
             id="path334" /></g><g
           id="g336"
           transform="translate(986.7607,493.8516)"><path
             d="m 0,0 c 2.071,0 4.058,0.441 5.959,1.323 v 20.483 c -1.494,0.881 -2.972,1.323 -4.431,1.323 -2.921,0 -5.271,-1.078 -7.054,-3.234 C -7.309,17.738 -8.2,14.651 -8.2,10.634 -8.2,3.545 -5.467,0 0,0 Z M 9.27,34.056 V 1.862 C 9.27,0.85 9.541,0.344 10.085,0.344 L 13.141,0.196 13.09,-0.538 C 11.46,-0.8 9.762,-0.931 7.997,-0.931 7.623,-0.897 7.224,-0.718 6.8,-0.392 6.375,-0.065 6.129,0.359 6.062,0.883 4.126,-0.294 1.885,-0.882 -0.662,-0.882 c -2.479,0 -4.771,0.67 -6.876,2.01 -1.189,0.751 -2.148,1.935 -2.878,3.552 -0.73,1.617 -1.095,3.585 -1.095,5.904 0,4.279 1.138,7.547 3.412,9.801 2.412,2.417 5.161,3.626 8.252,3.626 1.901,0 3.836,-0.475 5.806,-1.421 v 11.711 c 0,0.358 -0.102,0.539 -0.306,0.539 l -3.106,0.098 0.051,0.685 c 2.139,0.295 3.607,0.441 4.406,0.441 0.797,0 1.375,-0.212 1.731,-0.636 0.357,-0.425 0.535,-0.882 0.535,-1.372 z"
             style="fill:none;stroke:#6cb350;stroke-width:2;stroke-linecap:butt;stroke-linejoin:miter;stroke-miterlimit:10;stroke-dasharray:none;stroke-opacity:1"
             id="path338" /></g><g
           id="g340"
           transform="translate(1013.3984,493.7539)"><path
             d="m 0,0 c 2.513,0 5.178,0.85 7.997,2.548 v 8.085 C 2.903,10.47 -0.298,10.184 -1.604,9.775 -2.912,9.367 -3.812,8.729 -4.304,7.864 -4.796,6.999 -5.042,6.142 -5.042,5.292 V 4.802 C -4.94,3.104 -4.414,1.878 -3.463,1.127 -2.513,0.375 -1.358,0 0,0 M 8.149,1.274 H 7.997 C 4.94,-0.098 1.969,-0.784 -0.917,-0.784 c -4.516,0 -6.91,1.715 -7.182,5.145 -0.034,0.228 -0.05,0.441 -0.05,0.637 0,2.516 1.714,4.197 5.144,5.047 2.037,0.425 5.704,0.932 11.002,1.519 v 4.312 c 0,1.372 -0.171,2.548 -0.51,3.528 -0.34,0.98 -0.713,1.706 -1.12,2.181 -0.408,0.473 -0.934,0.84 -1.579,1.102 -0.815,0.327 -1.724,0.49 -2.725,0.49 -1.002,0 -2.148,-0.245 -3.438,-0.735 -1.868,-0.752 -3.532,-1.699 -4.991,-2.841 L -6.57,15.778 -7.538,15.533 v 5.929 l 0.51,0.196 c 2.648,1.111 4.668,1.78 6.06,2.009 1.392,0.229 2.411,0.351 3.056,0.367 0.645,0.017 1.265,0.008 1.859,-0.024 0.594,-0.032 1.366,-0.18 2.318,-0.441 0.95,-0.261 1.774,-0.63 2.47,-1.102 0.696,-0.474 1.299,-1.185 1.808,-2.132 0.51,-0.947 0.765,-2.074 0.765,-3.381 V 1.96 c 0,-1.013 0.271,-1.519 0.814,-1.519 L 15.229,0.294 15.178,-0.44 C 13.276,-0.702 11.579,-0.833 10.085,-0.833 9.678,-0.8 9.252,-0.596 8.812,-0.221 8.37,0.154 8.149,0.653 8.149,1.274"
             style="fill:#6cb350;fill-opacity:1;fill-rule:nonzero;stroke:none"
             id="path342" /></g><g
           id="g344"
           transform="translate(1013.3984,493.7539)"><path
             d="m 0,0 c 2.513,0 5.178,0.85 7.997,2.548 v 8.085 C 2.903,10.47 -0.298,10.184 -1.604,9.775 -2.912,9.367 -3.812,8.729 -4.304,7.864 -4.796,6.999 -5.042,6.142 -5.042,5.292 V 4.802 C -4.94,3.104 -4.414,1.878 -3.463,1.127 -2.513,0.375 -1.358,0 0,0 Z M 8.149,1.274 H 7.997 C 4.94,-0.098 1.969,-0.784 -0.917,-0.784 c -4.516,0 -6.91,1.715 -7.182,5.145 -0.034,0.228 -0.05,0.441 -0.05,0.637 0,2.516 1.714,4.197 5.144,5.047 2.037,0.425 5.704,0.932 11.002,1.519 v 4.312 c 0,1.372 -0.171,2.548 -0.51,3.528 -0.34,0.98 -0.713,1.706 -1.12,2.181 -0.408,0.473 -0.934,0.84 -1.579,1.102 -0.815,0.327 -1.724,0.49 -2.725,0.49 -1.002,0 -2.148,-0.245 -3.438,-0.735 -1.868,-0.752 -3.532,-1.699 -4.991,-2.841 L -6.57,15.778 -7.538,15.533 v 5.929 l 0.51,0.196 c 2.648,1.111 4.668,1.78 6.06,2.009 1.392,0.229 2.411,0.351 3.056,0.367 0.645,0.017 1.265,0.008 1.859,-0.024 0.594,-0.032 1.366,-0.18 2.318,-0.441 0.95,-0.261 1.774,-0.63 2.47,-1.102 0.696,-0.474 1.299,-1.185 1.808,-2.132 0.51,-0.947 0.765,-2.074 0.765,-3.381 V 1.96 c 0,-1.013 0.271,-1.519 0.814,-1.519 L 15.229,0.294 15.178,-0.44 C 13.276,-0.702 11.579,-0.833 10.085,-0.833 9.678,-0.8 9.252,-0.596 8.812,-0.221 8.37,0.154 8.149,0.653 8.149,1.274 Z"
             style="fill:none;stroke:#6cb350;stroke-width:2;stroke-linecap:butt;stroke-linejoin:miter;stroke-miterlimit:10;stroke-dasharray:none;stroke-opacity:1"
             id="path346" /></g><g
           id="g348"
           transform="translate(734.4404,467.9316)"><path
             d="M 0,0 H -5.449 V -17.787 H 3.26 c 1.765,1.927 2.954,3.634 3.565,5.12 0.612,1.486 0.917,2.932 0.917,4.337 0,2.743 -0.662,4.817 -1.986,6.223 C 4.432,-0.703 2.513,0 0,0 m -12.173,0 0.051,0.734 H 0.255 c 3.497,0 6.196,-0.734 8.099,-2.205 1.901,-1.469 2.852,-3.658 2.852,-6.565 0,-1.896 -0.756,-3.871 -2.267,-5.93 -1.511,-2.057 -2.928,-3.381 -4.252,-3.969 l 9.422,-14.749 2.495,-0.146 c 0,-0.033 -0.017,-0.278 -0.05,-0.735 l -5.552,-0.049 -9.677,15.092 h -6.774 v -14.113 l 3.565,-0.195 c 0,-0.033 -0.017,-0.278 -0.051,-0.735 l -10.238,-0.049 0.051,0.685 2.649,0.344 c 0.237,0.031 0.424,0.179 0.56,0.44 v 31.361 c -0.102,0.294 -0.289,0.457 -0.56,0.49 z"
             style="fill:#6cb350;fill-opacity:1;fill-rule:nonzero;stroke:none"
             id="path350" /></g><g
           id="g352"
           transform="translate(734.4404,467.9316)"><path
             d="M 0,0 H -5.449 V -17.787 H 3.26 c 1.765,1.927 2.954,3.634 3.565,5.12 0.612,1.486 0.917,2.932 0.917,4.337 0,2.743 -0.662,4.817 -1.986,6.223 C 4.432,-0.703 2.513,0 0,0 Z m -12.173,0 0.051,0.734 H 0.255 c 3.497,0 6.196,-0.734 8.099,-2.205 1.901,-1.469 2.852,-3.658 2.852,-6.565 0,-1.896 -0.756,-3.871 -2.267,-5.93 -1.511,-2.057 -2.928,-3.381 -4.252,-3.969 l 9.422,-14.749 2.495,-0.146 c 0,-0.033 -0.017,-0.278 -0.05,-0.735 l -5.552,-0.049 -9.677,15.092 h -6.774 v -14.113 l 3.565,-0.195 c 0,-0.033 -0.017,-0.278 -0.051,-0.735 l -10.238,-0.049 0.051,0.685 2.649,0.344 c 0.237,0.031 0.424,0.179 0.56,0.44 v 31.361 c -0.102,0.294 -0.289,0.457 -0.56,0.49 z"
             style="fill:none;stroke:#6cb350;stroke-width:2;stroke-linecap:butt;stroke-linejoin:miter;stroke-miterlimit:10;stroke-dasharray:none;stroke-opacity:1"
             id="path354" /></g><g
           id="g356"
           transform="translate(771.418,449.7031)"><path
             d="m 0,0 c 0,2.45 -0.561,4.45 -1.681,6.003 -1.12,1.551 -2.648,2.327 -4.584,2.327 -2.513,0 -4.634,-1.061 -6.366,-3.184 -1.393,-1.667 -2.259,-3.889 -2.598,-6.665 H -0.051 C -0.018,-1.16 0,-0.653 0,0 m -15.382,-4.067 c 0,-7.056 2.853,-10.584 8.557,-10.584 1.494,0 3.09,0.155 4.788,0.465 1.697,0.311 2.783,0.596 3.26,0.858 l 0.356,-0.49 c -0.781,-0.49 -2.062,-0.899 -3.846,-1.225 -1.782,-0.326 -3.412,-0.49 -4.889,-0.49 -1.477,0 -2.801,0.147 -3.973,0.441 -1.171,0.294 -2.368,0.817 -3.591,1.569 -1.222,0.751 -2.19,1.926 -2.903,3.527 -0.713,1.6 -1.069,3.56 -1.069,5.88 0,4.312 1.154,7.611 3.463,9.898 2.411,2.384 5.212,3.577 8.404,3.577 3.191,0 5.628,-0.85 7.309,-2.547 1.681,-1.7 2.521,-4.084 2.521,-7.155 0,-0.654 -0.051,-1.356 -0.152,-2.107 h -18.184 c -0.034,-0.36 -0.051,-0.899 -0.051,-1.617"
             style="fill:#6cb350;fill-opacity:1;fill-rule:nonzero;stroke:none"
             id="path358" /></g><g
           id="g360"
           transform="translate(771.418,449.7031)"><path
             d="m 0,0 c 0,2.45 -0.561,4.45 -1.681,6.003 -1.12,1.551 -2.648,2.327 -4.584,2.327 -2.513,0 -4.634,-1.061 -6.366,-3.184 -1.393,-1.667 -2.259,-3.889 -2.598,-6.665 H -0.051 C -0.018,-1.16 0,-0.653 0,0 Z m -15.382,-4.067 c 0,-7.056 2.853,-10.584 8.557,-10.584 1.494,0 3.09,0.155 4.788,0.465 1.697,0.311 2.783,0.596 3.26,0.858 l 0.356,-0.49 c -0.781,-0.49 -2.062,-0.899 -3.846,-1.225 -1.782,-0.326 -3.412,-0.49 -4.889,-0.49 -1.477,0 -2.801,0.147 -3.973,0.441 -1.171,0.294 -2.368,0.817 -3.591,1.569 -1.222,0.751 -2.19,1.926 -2.903,3.527 -0.713,1.6 -1.069,3.56 -1.069,5.88 0,4.312 1.154,7.611 3.463,9.898 2.411,2.384 5.212,3.577 8.404,3.577 3.191,0 5.628,-0.85 7.309,-2.547 1.681,-1.7 2.521,-4.084 2.521,-7.155 0,-0.654 -0.051,-1.356 -0.152,-2.107 h -18.184 c -0.034,-0.36 -0.051,-0.899 -0.051,-1.617 z"
             style="fill:none;stroke:#6cb350;stroke-width:2;stroke-linecap:butt;stroke-linejoin:miter;stroke-miterlimit:10;stroke-dasharray:none;stroke-opacity:1"
             id="path362" /></g><g
           id="g364"
           transform="translate(779.7715,434.3174)"><path
             d="m 0,0 0.051,0.686 2.648,0.343 c 0.238,0.032 0.391,0.196 0.459,0.49 v 33.516 c 0,0.359 -0.102,0.539 -0.305,0.539 l -3.108,0.098 0.051,0.685 c 2.14,0.294 3.608,0.442 4.406,0.442 0.798,0 1.375,-0.213 1.732,-0.637 C 6.29,35.737 6.469,35.28 6.469,34.79 V 1.029 l 3.82,-0.245 c 0,-0.033 -0.018,-0.278 -0.052,-0.735 z"
             style="fill:#6cb350;fill-opacity:1;fill-rule:nonzero;stroke:none"
             id="path366" /></g><g
           id="g368"
           transform="translate(779.7715,434.3174)"><path
             d="m 0,0 0.051,0.686 2.648,0.343 c 0.238,0.032 0.391,0.196 0.459,0.49 v 33.516 c 0,0.359 -0.102,0.539 -0.305,0.539 l -3.108,0.098 0.051,0.685 c 2.14,0.294 3.608,0.442 4.406,0.442 0.798,0 1.375,-0.213 1.732,-0.637 C 6.29,35.737 6.469,35.28 6.469,34.79 V 1.029 l 3.82,-0.245 c 0,-0.033 -0.018,-0.278 -0.052,-0.735 z"
             style="fill:none;stroke:#6cb350;stroke-width:2;stroke-linecap:butt;stroke-linejoin:miter;stroke-miterlimit:10;stroke-dasharray:none;stroke-opacity:1"
             id="path370" /></g><g
           id="g372"
           transform="translate(803.0479,434.9541)"><path
             d="m 0,0 c 2.513,0 5.178,0.85 7.997,2.548 v 8.085 C 2.903,10.47 -0.298,10.184 -1.604,9.775 -2.912,9.367 -3.812,8.729 -4.304,7.864 -4.796,6.999 -5.042,6.142 -5.042,5.292 V 4.802 C -4.94,3.104 -4.414,1.878 -3.463,1.127 -2.513,0.375 -1.358,0 0,0 M 8.149,1.274 H 7.997 C 4.94,-0.098 1.969,-0.784 -0.917,-0.784 c -4.516,0 -6.91,1.715 -7.182,5.145 -0.034,0.228 -0.05,0.441 -0.05,0.637 0,2.516 1.714,4.197 5.144,5.047 2.037,0.425 5.704,0.932 11.002,1.519 v 4.312 c 0,1.372 -0.171,2.548 -0.51,3.528 -0.34,0.98 -0.713,1.706 -1.12,2.181 -0.408,0.473 -0.934,0.84 -1.579,1.102 -0.815,0.327 -1.724,0.49 -2.725,0.49 -1.002,0 -2.148,-0.245 -3.438,-0.735 -1.868,-0.752 -3.532,-1.699 -4.991,-2.841 L -6.57,15.778 -7.538,15.533 v 5.929 l 0.51,0.196 c 2.648,1.111 4.668,1.78 6.06,2.009 1.392,0.229 2.411,0.351 3.056,0.367 0.645,0.017 1.265,0.008 1.859,-0.024 0.594,-0.032 1.366,-0.18 2.318,-0.441 0.95,-0.261 1.774,-0.63 2.47,-1.102 0.696,-0.474 1.299,-1.185 1.808,-2.132 0.51,-0.947 0.765,-2.074 0.765,-3.381 V 1.96 c 0,-1.013 0.271,-1.519 0.814,-1.519 L 15.229,0.294 15.178,-0.44 C 13.276,-0.702 11.579,-0.833 10.085,-0.833 9.678,-0.8 9.252,-0.596 8.812,-0.221 8.37,0.154 8.149,0.653 8.149,1.274"
             style="fill:#6cb350;fill-opacity:1;fill-rule:nonzero;stroke:none"
             id="path374" /></g><g
           id="g376"
           transform="translate(803.0479,434.9541)"><path
             d="m 0,0 c 2.513,0 5.178,0.85 7.997,2.548 v 8.085 C 2.903,10.47 -0.298,10.184 -1.604,9.775 -2.912,9.367 -3.812,8.729 -4.304,7.864 -4.796,6.999 -5.042,6.142 -5.042,5.292 V 4.802 C -4.94,3.104 -4.414,1.878 -3.463,1.127 -2.513,0.375 -1.358,0 0,0 Z M 8.149,1.274 H 7.997 C 4.94,-0.098 1.969,-0.784 -0.917,-0.784 c -4.516,0 -6.91,1.715 -7.182,5.145 -0.034,0.228 -0.05,0.441 -0.05,0.637 0,2.516 1.714,4.197 5.144,5.047 2.037,0.425 5.704,0.932 11.002,1.519 v 4.312 c 0,1.372 -0.171,2.548 -0.51,3.528 -0.34,0.98 -0.713,1.706 -1.12,2.181 -0.408,0.473 -0.934,0.84 -1.579,1.102 -0.815,0.327 -1.724,0.49 -2.725,0.49 -1.002,0 -2.148,-0.245 -3.438,-0.735 -1.868,-0.752 -3.532,-1.699 -4.991,-2.841 L -6.57,15.778 -7.538,15.533 v 5.929 l 0.51,0.196 c 2.648,1.111 4.668,1.78 6.06,2.009 1.392,0.229 2.411,0.351 3.056,0.367 0.645,0.017 1.265,0.008 1.859,-0.024 0.594,-0.032 1.366,-0.18 2.318,-0.441 0.95,-0.261 1.774,-0.63 2.47,-1.102 0.696,-0.474 1.299,-1.185 1.808,-2.132 0.51,-0.947 0.765,-2.074 0.765,-3.381 V 1.96 c 0,-1.013 0.271,-1.519 0.814,-1.519 L 15.229,0.294 15.178,-0.44 C 13.276,-0.702 11.579,-0.833 10.085,-0.833 9.678,-0.8 9.252,-0.596 8.812,-0.221 8.37,0.154 8.149,0.653 8.149,1.274 Z"
             style="fill:none;stroke:#6cb350;stroke-width:2;stroke-linecap:butt;stroke-linejoin:miter;stroke-miterlimit:10;stroke-dasharray:none;stroke-opacity:1"
             id="path378" /></g><g
           id="g380"
           transform="translate(828.8193,428.584)"><path
             d="m 0,0 c 2.547,0.85 3.82,2.026 3.82,3.528 0,0.817 -0.119,1.569 -0.356,2.254 L 5.246,6.076 C 5.518,5.391 5.654,4.771 5.654,4.214 5.654,2.974 5.152,1.871 4.151,0.906 3.149,-0.057 1.936,-0.702 0.51,-1.028 Z m 4.992,29.597 c -2.887,0 -5.221,-1.087 -7.004,-3.259 -1.782,-2.173 -2.674,-5.252 -2.674,-9.236 0,-7.089 2.802,-10.634 8.405,-10.634 2.207,0 4.091,0.204 5.653,0.613 1.562,0.408 2.41,0.661 2.547,0.759 L 12.275,7.301 C 11.494,6.812 10.204,6.402 8.404,6.076 6.604,5.75 4.975,5.586 3.515,5.586 c -1.46,0 -2.785,0.147 -3.973,0.441 -1.188,0.294 -2.386,0.817 -3.591,1.569 -1.206,0.751 -2.165,1.934 -2.878,3.551 -0.713,1.618 -1.069,3.585 -1.069,5.905 0,4.279 1.138,7.513 3.412,9.702 2.547,2.516 5.756,3.773 9.627,3.773 1.223,0 2.521,-0.155 3.896,-0.465 1.375,-0.311 2.436,-0.792 3.183,-1.446 V 22.197 L 11.154,21.854 10.9,26.999 c -0.748,0.751 -1.655,1.372 -2.725,1.862 -1.07,0.491 -2.131,0.736 -3.183,0.736"
             style="fill:#6cb350;fill-opacity:1;fill-rule:nonzero;stroke:none"
             id="path382" /></g><g
           id="g384"
           transform="translate(828.8193,428.584)"><path
             d="m 0,0 c 2.547,0.85 3.82,2.026 3.82,3.528 0,0.817 -0.119,1.569 -0.356,2.254 L 5.246,6.076 C 5.518,5.391 5.654,4.771 5.654,4.214 5.654,2.974 5.152,1.871 4.151,0.906 3.149,-0.057 1.936,-0.702 0.51,-1.028 Z m 4.992,29.597 c -2.887,0 -5.221,-1.087 -7.004,-3.259 -1.782,-2.173 -2.674,-5.252 -2.674,-9.236 0,-7.089 2.802,-10.634 8.405,-10.634 2.207,0 4.091,0.204 5.653,0.613 1.562,0.408 2.41,0.661 2.547,0.759 L 12.275,7.301 C 11.494,6.812 10.204,6.402 8.404,6.076 6.604,5.75 4.975,5.586 3.515,5.586 c -1.46,0 -2.785,0.147 -3.973,0.441 -1.188,0.294 -2.386,0.817 -3.591,1.569 -1.206,0.751 -2.165,1.934 -2.878,3.551 -0.713,1.618 -1.069,3.585 -1.069,5.905 0,4.279 1.138,7.513 3.412,9.702 2.547,2.516 5.756,3.773 9.627,3.773 1.223,0 2.521,-0.155 3.896,-0.465 1.375,-0.311 2.436,-0.792 3.183,-1.446 V 22.197 L 11.154,21.854 10.9,26.999 c -0.748,0.751 -1.655,1.372 -2.725,1.862 -1.07,0.491 -2.131,0.736 -3.183,0.736 z"
             style="fill:none;stroke:#6cb350;stroke-width:2;stroke-linecap:butt;stroke-linejoin:miter;stroke-miterlimit:10;stroke-dasharray:none;stroke-opacity:1"
             id="path386" /></g><g
           id="g388"
           transform="translate(855.7627,434.9541)"><path
             d="m 0,0 c 2.513,0 5.178,0.85 7.997,2.548 v 8.085 C 2.903,10.47 -0.298,10.184 -1.604,9.775 -2.912,9.367 -3.812,8.729 -4.304,7.864 -4.796,6.999 -5.042,6.142 -5.042,5.292 V 4.802 C -4.94,3.104 -4.414,1.878 -3.463,1.127 -2.513,0.375 -1.358,0 0,0 m -3.106,31.458 c 0.78,0 2.528,-0.277 5.246,-0.833 2.715,-0.556 4.575,-0.833 5.577,-0.833 1.001,0 1.672,0.147 2.012,0.441 0.338,0.294 0.611,0.8 0.814,1.519 l 0.815,-0.196 C 11.053,30.216 10.586,29.277 9.958,28.738 9.329,28.199 8.582,27.93 7.717,27.93 c -0.866,0 -2.607,0.286 -5.221,0.858 -2.615,0.57 -4.567,0.858 -5.857,0.858 -1.868,0 -2.954,-0.573 -3.26,-1.716 l -0.713,0.196 c 0.407,2.222 1.815,3.332 4.228,3.332 M 8.149,1.274 H 7.997 C 4.94,-0.098 1.969,-0.784 -0.917,-0.784 c -4.516,0 -6.91,1.715 -7.182,5.145 -0.034,0.228 -0.05,0.441 -0.05,0.637 0,2.516 1.714,4.197 5.144,5.047 2.037,0.425 5.704,0.932 11.002,1.519 v 4.312 c 0,1.372 -0.171,2.548 -0.51,3.528 -0.34,0.98 -0.713,1.706 -1.12,2.181 -0.408,0.473 -0.934,0.84 -1.579,1.102 -0.815,0.327 -1.724,0.49 -2.725,0.49 -1.002,0 -2.148,-0.245 -3.438,-0.735 -1.868,-0.752 -3.532,-1.699 -4.991,-2.841 L -6.57,15.778 -7.538,15.533 v 5.929 l 0.51,0.196 c 2.648,1.111 4.668,1.78 6.06,2.009 1.392,0.229 2.411,0.351 3.056,0.367 0.645,0.017 1.265,0.008 1.859,-0.024 0.594,-0.032 1.366,-0.18 2.318,-0.441 0.95,-0.261 1.774,-0.63 2.47,-1.102 0.696,-0.474 1.299,-1.185 1.808,-2.132 0.51,-0.947 0.765,-2.074 0.765,-3.381 V 1.96 c 0,-1.013 0.271,-1.519 0.814,-1.519 L 15.229,0.294 15.178,-0.44 C 13.276,-0.702 11.579,-0.833 10.085,-0.833 9.678,-0.8 9.252,-0.596 8.812,-0.221 8.37,0.154 8.149,0.653 8.149,1.274"
             style="fill:#6cb350;fill-opacity:1;fill-rule:nonzero;stroke:none"
             id="path390" /></g><g
           id="g392"
           transform="translate(855.7627,434.9541)"><path
             d="m 0,0 c 2.513,0 5.178,0.85 7.997,2.548 v 8.085 C 2.903,10.47 -0.298,10.184 -1.604,9.775 -2.912,9.367 -3.812,8.729 -4.304,7.864 -4.796,6.999 -5.042,6.142 -5.042,5.292 V 4.802 C -4.94,3.104 -4.414,1.878 -3.463,1.127 -2.513,0.375 -1.358,0 0,0 Z m -3.106,31.458 c 0.78,0 2.528,-0.277 5.246,-0.833 2.715,-0.556 4.575,-0.833 5.577,-0.833 1.001,0 1.672,0.147 2.012,0.441 0.338,0.294 0.611,0.8 0.814,1.519 l 0.815,-0.196 C 11.053,30.216 10.586,29.277 9.958,28.738 9.329,28.199 8.582,27.93 7.717,27.93 c -0.866,0 -2.607,0.286 -5.221,0.858 -2.615,0.57 -4.567,0.858 -5.857,0.858 -1.868,0 -2.954,-0.573 -3.26,-1.716 l -0.713,0.196 c 0.407,2.222 1.815,3.332 4.228,3.332 z M 8.149,1.274 H 7.997 C 4.94,-0.098 1.969,-0.784 -0.917,-0.784 c -4.516,0 -6.91,1.715 -7.182,5.145 -0.034,0.228 -0.05,0.441 -0.05,0.637 0,2.516 1.714,4.197 5.144,5.047 2.037,0.425 5.704,0.932 11.002,1.519 v 4.312 c 0,1.372 -0.171,2.548 -0.51,3.528 -0.34,0.98 -0.713,1.706 -1.12,2.181 -0.408,0.473 -0.934,0.84 -1.579,1.102 -0.815,0.327 -1.724,0.49 -2.725,0.49 -1.002,0 -2.148,-0.245 -3.438,-0.735 -1.868,-0.752 -3.532,-1.699 -4.991,-2.841 L -6.57,15.778 -7.538,15.533 v 5.929 l 0.51,0.196 c 2.648,1.111 4.668,1.78 6.06,2.009 1.392,0.229 2.411,0.351 3.056,0.367 0.645,0.017 1.265,0.008 1.859,-0.024 0.594,-0.032 1.366,-0.18 2.318,-0.441 0.95,-0.261 1.774,-0.63 2.47,-1.102 0.696,-0.474 1.299,-1.185 1.808,-2.132 0.51,-0.947 0.765,-2.074 0.765,-3.381 V 1.96 c 0,-1.013 0.271,-1.519 0.814,-1.519 L 15.229,0.294 15.178,-0.44 C 13.276,-0.702 11.579,-0.833 10.085,-0.833 9.678,-0.8 9.252,-0.596 8.812,-0.221 8.37,0.154 8.149,0.653 8.149,1.274 Z"
             style="fill:none;stroke:#6cb350;stroke-width:2;stroke-linecap:butt;stroke-linejoin:miter;stroke-miterlimit:10;stroke-dasharray:none;stroke-opacity:1"
             id="path394" /></g><g
           id="g396"
           transform="translate(885.9658,458.1807)"><path
             d="m 0,0 c -2.546,0 -4.669,-1.062 -6.366,-3.186 -1.698,-2.124 -2.547,-5.005 -2.547,-8.648 0,-3.643 0.807,-6.436 2.419,-8.379 1.613,-1.944 3.693,-2.916 6.24,-2.916 2.546,0 4.668,1.062 6.366,3.186 1.698,2.123 2.547,4.998 2.547,8.624 0,3.626 -0.807,6.419 -2.42,8.379 C 4.627,-0.98 2.547,0 0,0 m -0.331,-24.011 c -3.548,0 -6.417,0.981 -8.607,2.941 -2.191,1.96 -3.286,4.956 -3.286,8.991 0,4.034 1.163,7.203 3.49,9.506 2.325,2.303 5.254,3.455 8.785,3.455 3.531,0 6.4,-0.981 8.608,-2.941 2.207,-1.96 3.311,-4.957 3.311,-8.991 0,-4.035 -1.164,-7.203 -3.49,-9.506 -2.326,-2.303 -5.263,-3.455 -8.811,-3.455"
             style="fill:#6cb350;fill-opacity:1;fill-rule:nonzero;stroke:none"
             id="path398" /></g><g
           id="g400"
           transform="translate(885.9658,458.1807)"><path
             d="m 0,0 c -2.546,0 -4.669,-1.062 -6.366,-3.186 -1.698,-2.124 -2.547,-5.005 -2.547,-8.648 0,-3.643 0.807,-6.436 2.419,-8.379 1.613,-1.944 3.693,-2.916 6.24,-2.916 2.546,0 4.668,1.062 6.366,3.186 1.698,2.123 2.547,4.998 2.547,8.624 0,3.626 -0.807,6.419 -2.42,8.379 C 4.627,-0.98 2.547,0 0,0 Z m -0.331,-24.011 c -3.548,0 -6.417,0.981 -8.607,2.941 -2.191,1.96 -3.286,4.956 -3.286,8.991 0,4.034 1.163,7.203 3.49,9.506 2.325,2.303 5.254,3.455 8.785,3.455 3.531,0 6.4,-0.981 8.608,-2.941 2.207,-1.96 3.311,-4.957 3.311,-8.991 0,-4.035 -1.164,-7.203 -3.49,-9.506 -2.326,-2.303 -5.263,-3.455 -8.811,-3.455 z"
             style="fill:none;stroke:#6cb350;stroke-width:2;stroke-linecap:butt;stroke-linejoin:miter;stroke-miterlimit:10;stroke-dasharray:none;stroke-opacity:1"
             id="path402" /></g></g></g><g
       id="g404"><g
         id="g406"><g
           id="g412"><g
             id="g414"><path
               d="m 108,334 c -9.5,-14.5 7.5,-12.5 7.5,-12.5 v 0 c 22,10 120,25 120,25 v 0 c 187,33 264,-10 264,-10 v 0 C 628.5,273.5 720,313 720,313 v 0 c 0,0 40,19 62,40 v 0 c 22,21 0,16 0,16 v 0 c -42,-47 -89,-43 -89,-43 v 0 c 0,0 -82,-5 -205,40 v 0 c -27.815,10.176 -62.479,14.114 -99.477,14.114 v 0 C 261.912,380.113 108,334 108,334"
               style="fill:url(#linearGradient426);stroke:none"
               id="path428" /></g></g></g></g></g></svg>
