<svg width="838" height="886" viewBox="0 0 838 886" fill="none" xmlns="http://www.w3.org/2000/svg">
<path d="M52.4375 314.744L48.4375 326.619L47.9167 328.181L46.3333 327.64L45.0625 327.223L43.3125 326.619L41.9375 326.16L42.1875 324.702L42.75 322.223L8.41667 310.66L7.45833 312.64L6.79167 313.931L5.41667 313.473L2.33333 312.431L0.75 311.91L1.27083 310.369L5.0625 299.119L5.58333 297.577L7.16667 298.098L10.25 299.14L11.625 299.598L11.375 301.056L10.9167 303.202L45.25 314.765L46.3125 312.494L47 311.16L48.375 311.619L51.3958 312.64L52.9792 313.181L52.4375 314.744Z" fill="white"/>
<path d="M31.5241 274.255C31.2637 271.229 31.5866 268.558 32.5033 266.235L32.5241 266.172C33.1387 264.839 33.7533 263.703 34.3783 262.755C35.0033 261.797 35.6855 261 36.4199 260.36C37.8678 259.11 39.4616 258.276 41.2116 257.86C43.0762 257.401 45.1908 257.714 47.5658 258.797L69.8366 268.985L71.3574 269.672L70.6699 271.172L68.8783 275.13L68.1908 276.61L66.6699 275.922L45.4408 266.214C44.3158 265.703 43.3939 265.526 42.6699 265.693C41.0762 266.183 39.7897 267.495 38.8158 269.63C38.123 271.412 37.7533 273.412 37.7116 275.63C37.7012 275.771 37.6855 275.901 37.6699 276.026C37.6595 276.151 37.6595 276.276 37.6699 276.401C37.6855 276.526 37.6908 276.651 37.6908 276.776C37.6908 276.891 37.6855 276.995 37.6699 277.089L61.2116 287.839L62.7324 288.526L62.0449 290.047L60.2533 293.964L59.5658 295.485L58.0449 294.797L27.8158 280.964L26.4199 280.339L26.9199 278.901L28.3991 274.818L29.0449 273.13L30.6699 273.88L31.5241 274.255Z" fill="white"/>
<path d="M64.9755 222.304C63.8245 223.278 62.5901 224.867 61.2672 227.075C60.0172 229.158 59.4286 230.929 59.4963 232.387C59.5536 233.611 59.9234 234.424 60.6005 234.825C61.3661 235.283 62.012 235.408 62.538 235.2C63.4286 234.856 64.3453 234.294 65.288 233.512C66.3297 232.585 67.4338 231.585 68.6005 230.512C69.2151 229.919 69.8609 229.361 70.538 228.846C71.2203 228.32 71.913 227.856 72.6213 227.45C74.288 226.367 76.0068 225.799 77.7672 225.742C79.5276 225.689 81.2151 226.137 82.8297 227.096C85.9651 228.971 87.7515 231.544 88.1838 234.804C88.2515 235.471 88.2724 236.132 88.2463 236.783C88.2307 237.439 88.1422 238.106 87.9755 238.783C87.8193 239.465 87.6265 240.169 87.3922 240.887C87.1526 241.596 86.8609 242.314 86.5172 243.033C86.1682 243.742 85.7672 244.481 85.3088 245.242C84.1682 247.148 82.8765 248.861 81.4338 250.387C79.9026 252.002 78.4547 253.09 77.0797 253.658L75.8505 254.137L75.1005 253.096L72.8297 250.054L71.4338 248.2L73.6422 247.492C74.6161 247.148 75.9651 245.882 77.6838 243.7C78.2672 242.981 78.7932 242.215 79.2672 241.408C80.2932 239.7 80.7984 238.09 80.788 236.575C80.788 236.174 80.7255 235.804 80.6005 235.471C80.4755 235.137 80.288 234.835 80.038 234.554C79.788 234.278 79.4547 234.012 79.038 233.762C78.3557 233.346 77.7047 233.236 77.0797 233.429C76.163 233.762 75.2203 234.304 74.2463 235.054C73.7047 235.471 73.1734 235.929 72.6422 236.429C72.1005 236.929 71.538 237.445 70.9547 237.971C69.7463 239.221 68.4703 240.278 67.1213 241.137C65.6943 242.085 64.1995 242.689 62.6422 242.95C62.0172 243.033 61.4026 243.049 60.788 242.992C60.1786 242.939 59.5797 242.799 58.9963 242.575C58.413 242.356 57.8193 242.064 57.2047 241.7C54.2776 239.95 52.5953 237.398 52.163 234.033C51.7463 230.898 52.6005 227.554 54.7255 224.012C55.2255 223.179 55.8088 222.34 56.4755 221.492C57.0484 220.715 57.5797 220.002 58.0797 219.346L58.1213 219.304L59.9338 217.137L61.1838 215.721L62.4547 217.096L65.1005 219.929L66.288 221.179L64.9755 222.304Z" fill="white"/>
<path d="M110.661 204.328C110.87 205.911 110.224 207.719 108.724 209.745C106.693 212.495 104.505 213.865 102.161 213.849C99.4219 214.297 96.7656 213.568 94.1823 211.661L79.0365 200.516L77.8073 202.182L76.6615 203.745L75.2448 202.37L72.5156 199.599L71.5573 198.557L72.3906 197.432L73.2656 196.245L69.3073 193.328L68.0781 192.432L68.849 191.12L71.099 187.391L72.0573 185.891L73.4948 186.953L77.7865 190.099L81.3698 185.224L82.3698 183.891L83.7031 184.891L86.8073 187.161L88.1406 188.161L87.1406 189.495L83.5573 194.37L99.5573 206.141C100.276 206.672 100.849 206.901 101.266 206.828C101.682 206.745 102.167 206.328 102.724 205.578C103.276 204.828 103.714 203.865 104.036 202.682L104.536 200.807L106.307 201.599L109.661 203.12L110.474 203.453L110.661 204.328Z" fill="white"/>
<path d="M101.905 162.401L127.28 184.401L128.53 185.485L127.426 186.755L124.614 190.005L123.509 191.276L122.259 190.193L97.1344 168.422L95.9886 167.422L96.8636 166.172L99.4469 162.672L100.551 161.235L101.905 162.401ZM90.7803 162.464C89.6448 162.412 88.5823 161.959 87.5928 161.11C86.6084 160.25 86.0615 159.245 85.9469 158.089C85.7959 156.839 86.1657 155.693 87.0511 154.651C87.4573 154.193 87.9365 153.818 88.4886 153.526C89.0303 153.235 89.6136 153.068 90.2386 153.026C90.8636 152.985 91.4782 153.078 92.0719 153.297C92.6553 153.521 93.2073 153.854 93.7178 154.297C94.8428 155.287 95.3844 156.417 95.3428 157.693C95.3323 158.86 94.9001 159.933 94.0511 160.901C93.124 161.985 92.0303 162.505 90.7803 162.464Z" fill="white"/>
<path d="M152.579 158.226C152.537 159.825 151.62 161.507 149.829 163.268C147.381 165.674 145.006 166.674 142.704 166.268C139.912 166.283 137.402 165.153 135.162 162.872L121.954 149.455L120.475 150.893L119.1 152.247L117.933 150.684L115.662 147.518L114.85 146.372L115.85 145.393L116.912 144.351L113.475 140.83L112.412 139.747L113.391 138.58L116.183 135.268L117.37 133.913L118.62 135.184L122.35 138.976L126.662 134.747L127.85 133.58L129.016 134.768L131.725 137.497L132.891 138.684L131.704 139.851L127.391 144.08L141.35 158.247C141.959 158.887 142.48 159.205 142.912 159.205C143.339 159.195 143.881 158.861 144.537 158.205C145.204 157.554 145.787 156.663 146.287 155.538L147.079 153.747L148.704 154.851L151.808 156.851L152.558 157.309L152.579 158.226Z" fill="white"/>
<path d="M169.434 135.878C170.252 135.576 171.398 134.837 172.872 133.67C173.372 133.253 173.898 132.686 174.455 131.962C175.023 131.227 175.59 130.352 176.163 129.337C176.205 129.201 176.268 129.055 176.351 128.899C176.434 128.748 176.507 128.597 176.58 128.441C176.663 128.29 176.747 128.16 176.83 128.045L160.643 107.774L159.684 106.587L160.788 105.545L163.934 102.566L165.268 101.357L166.393 102.753L187.351 128.982L188.393 130.274L187.101 131.316L183.705 134.024L182.434 135.045L181.393 133.753L181.101 133.399C179.919 136.331 178.215 138.686 175.997 140.462C172.257 143.451 168.585 144.482 164.976 143.566C163.085 143.139 161.325 141.899 159.684 139.857L144.413 120.732L143.455 119.545L144.58 118.503L147.747 115.524L149.059 114.316L150.184 115.712L164.955 134.191C166.205 135.764 167.695 136.326 169.434 135.878Z" fill="white"/>
<path d="M217.098 109.114C216.734 110.672 215.494 112.13 213.369 113.489C210.494 115.338 207.958 115.838 205.765 114.989C203.041 114.406 200.817 112.776 199.098 110.093L188.911 94.2601L187.182 95.3851L185.536 96.4268L184.723 94.6559L183.161 91.0726L182.619 89.7809L183.786 89.0309L185.036 88.2184L182.369 84.0726L181.557 82.8018L182.744 81.8643L186.182 79.1768L187.64 78.1143L188.598 79.6143L191.473 84.0934L196.557 80.8226L197.952 79.9268L198.848 81.3226L200.932 84.5726L201.827 85.9684L200.432 86.8643L195.348 90.1351L206.098 106.864C206.583 107.614 207.036 108.031 207.452 108.114C207.869 108.187 208.463 107.968 209.244 107.468C210.02 106.968 210.77 106.218 211.494 105.218L212.619 103.635L213.994 105.031L216.619 107.635L217.265 108.239L217.098 109.114Z" fill="white"/>
<path d="M228.124 93.3457C227.197 92.4707 226.333 91.4863 225.541 90.3874C224.749 89.2936 224.02 88.0749 223.353 86.7415C220.718 81.4655 220.119 76.528 221.562 71.929C223.036 67.3353 226.056 63.8874 230.624 61.5957C234.109 59.8613 237.421 59.1374 240.562 59.429C243.697 59.7207 246.562 61.0332 249.145 63.3665C251.004 65.0228 252.614 67.2155 253.978 69.9499C256.614 75.2311 257.192 80.1686 255.708 84.7624C254.208 89.3874 251.197 92.8249 246.687 95.0749C243.187 96.8249 239.853 97.5645 236.687 97.2832C233.52 96.9915 230.666 95.679 228.124 93.3457ZM236.124 89.1374C238.551 90.054 241.041 89.8822 243.583 88.6165C246.124 87.3405 247.791 85.3613 248.583 82.679C249.385 80.002 248.978 77.0332 247.353 73.7832C245.728 70.5332 243.692 68.4447 241.249 67.5124C238.801 66.627 236.296 66.8197 233.728 68.0957C231.171 69.377 229.499 71.3457 228.708 74.0124C227.931 76.6947 228.348 79.6582 229.958 82.9082C231.583 86.1582 233.635 88.2363 236.124 89.1374Z" fill="white"/>
<path d="M322.383 66.2103L310.32 69.5645L308.737 70.002L308.299 68.3978L307.945 67.1061L307.445 65.3353L307.049 63.9186L308.404 63.3561L310.758 62.3978L301.049 27.502L298.883 27.8145L297.404 28.002L297.008 26.6061L296.154 23.4811L295.695 21.877L297.279 21.4395L308.695 18.2728L310.299 17.8145L310.758 19.4186L311.612 22.5436L312.008 23.9395L310.654 24.5436L308.612 25.3978L318.32 60.2936L320.841 59.8978L322.279 59.6895L322.674 61.1061L323.529 64.1686L323.966 65.7728L322.383 66.2103Z" fill="white"/>
<path d="M360.143 56.5039C359.195 57.8112 357.482 58.6914 354.997 59.1497C351.633 59.7643 349.112 59.2539 347.435 57.6289C345.112 56.0612 343.669 53.707 343.102 50.5664L339.706 32.0664L337.685 32.4414L335.768 32.7956L335.685 30.8164L335.602 26.9206V25.5247L336.956 25.2747L338.414 25.0039L337.518 20.1497L337.247 18.6706L338.727 18.2539L342.914 17.0664L344.643 16.6289L344.977 18.3997L345.935 23.6289L351.872 22.5247L353.518 22.2331L353.81 23.8581L354.497 27.6497L354.81 29.2956L353.164 29.5872L347.227 30.6914L350.81 50.2331C350.977 51.1081 351.232 51.6654 351.581 51.8997C351.94 52.1237 352.57 52.1497 353.477 51.9831C354.393 51.8164 355.378 51.4154 356.435 50.7747L358.102 49.7331L358.831 51.5456L360.268 54.9414L360.602 55.7539L360.143 56.5039Z" fill="white"/>
<path d="M374.227 23.1002C379.045 20.1731 383.383 18.4856 387.248 18.0377C390.399 17.7877 392.894 18.0064 394.727 18.6835C395.352 18.8814 395.946 19.1367 396.519 19.4544C397.087 19.7617 397.607 20.121 398.081 20.5377C398.566 20.9439 399.024 21.3919 399.456 21.8919C400.79 23.3919 401.566 25.4856 401.79 28.1627L403.748 51.8919L403.894 53.5585L402.227 53.7044L397.936 54.0585L396.269 54.1835L396.123 52.5169L396.102 52.246C391.238 54.1367 387.967 55.1471 386.29 55.2877L386.081 55.3085C381.482 55.6939 378.186 54.4752 376.186 51.6419C375.42 50.6002 374.946 49.5325 374.769 48.4335C374.613 47.5481 374.508 46.7981 374.456 46.1835C374.29 44.1575 374.904 42.2825 376.311 40.5585C376.962 39.7565 377.706 39.0742 378.54 38.5169C379.383 37.9492 380.311 37.4908 381.311 37.1419C382.686 36.6835 384.482 36.1992 386.706 35.6835C388.925 35.1575 391.561 34.6314 394.602 34.1002L394.269 30.246C394.113 28.2617 393.561 26.8814 392.602 26.1002C391.644 25.3085 390.081 25.0064 387.915 25.1835C384.633 25.4492 381.113 26.72 377.352 28.996L375.769 29.9752L375.019 28.3085L373.581 25.246L372.936 23.8919L374.227 23.1002ZM381.852 46.1002C381.936 47.1731 382.337 47.9335 383.061 48.3919C383.779 48.8398 385.092 48.9752 386.998 48.8085C389.915 48.5742 392.779 47.7565 395.602 46.3502L395.081 39.9335C389.456 41.2408 385.977 42.1783 384.644 42.746C383.519 43.2044 382.753 43.6939 382.352 44.2044C381.946 44.72 381.779 45.3502 381.852 46.1002Z" fill="white"/>
<path d="M420.494 51.7396L420.661 2.19792L420.682 0.677083L422.202 0.53125L426.536 0.197917L428.327 0.09375L428.307 1.88542L428.14 51.7604V53.4271H426.473L422.14 53.4063H420.494V51.7396Z" fill="white"/>
<path d="M445.462 44.1861C445.139 42.9517 444.941 41.6601 444.857 40.3111C444.774 38.9674 444.805 37.5507 444.962 36.0611C445.529 30.1861 447.654 25.6965 451.337 22.582C455.045 19.4726 459.43 18.1653 464.503 18.6653C468.389 19.0559 471.587 20.2174 474.087 22.1445C476.587 24.0611 478.3 26.6965 479.232 30.0403C479.925 32.4153 480.118 35.1236 479.816 38.1653C479.232 44.0403 477.092 48.5351 473.399 51.6445C469.66 54.7538 465.279 56.0611 460.253 55.5611C456.363 55.1705 453.154 54.009 450.628 52.082C448.097 50.1653 446.378 47.5351 445.462 44.1861ZM454.482 44.8945C456.066 46.9674 458.264 48.1392 461.087 48.4153C463.92 48.6965 466.378 47.9101 468.462 46.0611C470.571 44.2278 471.8 41.509 472.149 37.8945C472.509 34.2695 471.904 31.4153 470.337 29.332C468.753 27.2799 466.535 26.1132 463.691 25.832C460.842 25.5403 458.368 26.3215 456.274 28.1653C454.191 29.9986 452.967 32.7278 452.607 36.3528C452.243 39.9674 452.868 42.8111 454.482 44.8945Z" fill="white"/>
<path d="M557.803 46.8968C561.094 50.4801 561.813 55.1885 559.969 61.0218C558.928 64.3291 557.73 66.8135 556.386 68.4801C555.662 69.2822 554.886 69.9801 554.053 70.5635C553.219 71.1572 552.324 71.6312 551.365 71.9801C549.657 72.5739 547.709 72.7822 545.532 72.6051C543.35 72.4229 540.912 71.902 538.219 71.0426L527.74 67.751L526.178 67.251L526.678 65.6676L540.657 21.2718L541.178 19.6885L542.74 20.1885L552.261 23.1885C559.563 25.4958 563.636 28.9385 564.469 33.5218C564.771 35.1885 564.62 36.9958 564.011 38.9385C563.704 39.9124 563.266 40.8551 562.699 41.7718C562.141 42.6885 561.475 43.5635 560.699 44.3968C560.542 44.5374 560.407 44.6676 560.282 44.7926C560.167 44.9072 560.037 45.0374 559.886 45.1885C559.745 45.3291 559.605 45.4593 559.469 45.5843C559.344 45.7093 559.204 45.8291 559.053 45.9385C558.912 46.0531 558.771 46.1676 558.636 46.2926C558.495 46.4176 558.35 46.5322 558.199 46.626C558.058 46.7093 557.928 46.8031 557.803 46.8968ZM540.886 46.5843L535.74 62.9593L539.99 64.2926C543.641 65.4437 546.261 65.7822 547.844 65.3135C549.73 64.7718 551.199 62.8551 552.24 59.5635C552.74 57.9697 552.98 56.5531 552.969 55.3135C552.954 54.0791 552.725 53.0583 552.282 52.251C551.85 51.4333 551.188 50.7249 550.303 50.126C549.313 49.4333 548.126 48.8656 546.74 48.4176L540.886 46.5843ZM552.032 42.8968C553.167 42.0531 554.084 41.1676 554.782 40.251C555.475 39.3343 555.98 38.3708 556.303 37.3551C556.928 35.3708 556.792 33.8864 555.907 32.8968C554.725 31.7041 552.704 30.6572 549.844 29.751L546.532 28.7093L542.99 39.9176L549.157 41.8551C549.365 41.9281 549.563 41.9958 549.761 42.0635C549.954 42.1208 550.146 42.1885 550.344 42.2718C550.537 42.3551 550.73 42.4333 550.928 42.501C551.12 42.5583 551.308 42.626 551.49 42.7093C551.683 42.7926 551.865 42.8551 552.032 42.8968Z" fill="white"/>
<path d="M598.035 63.1309C597.686 62.7038 597.29 62.3965 596.848 62.2142C596.525 62.0788 596.264 61.959 596.056 61.86L595.973 61.8809L595.598 61.7142C595.316 61.5892 595.014 61.4954 594.681 61.4225C594.348 61.3548 594.004 61.3079 593.66 61.2767C593.311 61.235 592.921 61.235 592.493 61.2767C592.077 61.3079 591.65 61.3704 591.223 61.4642C591.014 61.5371 590.796 61.5996 590.577 61.6517C590.353 61.6934 590.139 61.735 589.931 61.7767C588.707 62.1257 587.577 62.5579 586.535 63.0684L577.514 83.7975L576.848 85.3184L575.327 84.6517L571.368 82.9434L569.848 82.2767L570.514 80.7559L583.785 50.2767L584.389 48.8809L585.848 49.3392L589.931 50.7767L591.639 51.36L590.91 53.0059L589.702 55.8184C590.395 55.5423 591.035 55.334 591.618 55.1934C594.478 54.5163 596.993 54.5684 599.16 55.36C599.504 55.4746 600.004 55.6725 600.66 55.9642C601.436 56.2975 602.415 56.9329 603.598 57.86L605.014 59.0684L603.66 60.36L600.493 63.3184L599.16 64.5684L598.035 63.1309Z" fill="white"/>
<path d="M618.315 68.5335C623.951 68.7992 628.503 69.8252 631.961 71.6169C634.711 73.1585 636.654 74.7314 637.794 76.3252C638.211 76.8564 638.565 77.4033 638.857 77.971C639.148 78.5439 639.378 79.1325 639.544 79.7419C639.711 80.3408 639.836 80.971 639.919 81.6377C640.18 83.6117 639.654 85.7783 638.336 88.1377L626.711 108.909L625.898 110.367L624.44 109.554L620.69 107.45L619.232 106.638L620.044 105.179L620.169 104.95C615.086 103.784 611.805 102.784 610.336 101.95L610.169 101.846C606.138 99.596 604.076 96.7419 603.982 93.2835C603.94 92.0075 604.148 90.8564 604.607 89.8252C604.982 89.0075 605.315 88.3356 605.607 87.8044C606.607 86.0127 608.174 84.8044 610.315 84.1794C611.284 83.8773 612.279 83.721 613.294 83.721C614.305 83.721 615.32 83.8564 616.336 84.1169C617.753 84.5231 619.523 85.1325 621.648 85.9502C623.784 86.7575 626.258 87.7939 629.065 89.0544L630.961 85.6794C631.93 83.945 632.237 82.4814 631.878 81.2835C631.529 80.0908 630.409 78.9658 628.523 77.9085C625.648 76.2992 622.008 75.3877 617.607 75.1794L615.773 75.1169L616.086 73.3044L616.607 69.9294L616.815 68.4502L618.315 68.5335ZM611.794 91.846C611.263 92.7939 611.174 93.6533 611.523 94.4294C611.883 95.2054 612.898 96.0596 614.565 96.9919C617.117 98.4189 619.951 99.3512 623.065 99.7835L626.211 94.1585C620.805 92.1064 617.398 90.9294 615.982 90.6377C614.799 90.3877 613.898 90.3669 613.273 90.5752C612.648 90.7731 612.154 91.195 611.794 91.846Z" fill="white"/>
<path d="M671.961 106.725C671.07 105.506 669.576 104.152 667.482 102.663C665.508 101.262 663.799 100.538 662.357 100.496C661.133 100.444 660.294 100.741 659.836 101.392C659.32 102.116 659.148 102.746 659.315 103.288C659.576 104.194 660.07 105.142 660.794 106.142C661.628 107.267 662.529 108.454 663.503 109.704C664.055 110.361 664.57 111.048 665.044 111.767C665.513 112.475 665.924 113.199 666.273 113.934C667.201 115.684 667.628 117.439 667.544 119.204C667.471 120.965 666.898 122.611 665.815 124.142C663.69 127.126 660.987 128.71 657.711 128.892C657.044 128.918 656.383 128.892 655.732 128.809C655.076 128.736 654.419 128.6 653.753 128.392C653.086 128.184 652.404 127.923 651.711 127.621C651.029 127.329 650.341 126.98 649.648 126.579C648.951 126.173 648.242 125.715 647.523 125.204C645.716 123.913 644.112 122.496 642.711 120.954C641.211 119.298 640.232 117.767 639.773 116.35L639.398 115.079L640.503 114.413L643.711 112.392L645.648 111.163L646.19 113.392C646.451 114.392 647.607 115.84 649.648 117.725C650.326 118.361 651.044 118.954 651.794 119.496C653.43 120.647 655.008 121.272 656.523 121.371C656.924 121.397 657.294 121.361 657.628 121.267C657.971 121.184 658.294 121.022 658.586 120.788C658.878 120.564 659.169 120.251 659.461 119.85C659.919 119.21 660.076 118.569 659.94 117.934C659.69 116.986 659.221 116.006 658.544 114.975C658.18 114.392 657.763 113.819 657.294 113.246C656.836 112.678 656.367 112.09 655.898 111.475C654.742 110.173 653.794 108.819 653.044 107.413C652.211 105.887 651.721 104.345 651.586 102.788C651.544 102.163 651.57 101.548 651.669 100.934C651.779 100.324 651.966 99.7409 652.232 99.1836C652.508 98.6159 652.846 98.0377 653.253 97.4544C655.237 94.6784 657.909 93.2044 661.273 93.0377C664.44 92.8711 667.701 93.9857 671.065 96.3711C671.857 96.9284 672.648 97.5742 673.44 98.3086C674.19 98.9336 674.862 99.5273 675.461 100.079L675.523 100.121L677.523 102.1L678.836 103.454L677.378 104.6L674.336 107.038L673.003 108.1L671.961 106.725Z" fill="white"/>
<path d="M701.394 122.258L679.665 147.863L678.581 149.133L677.311 148.071L674.019 145.279L672.748 144.196L673.831 142.925L695.352 117.571L696.331 116.404L697.581 117.279L701.123 119.842L702.561 120.883L701.394 122.258ZM701.248 111.133C701.29 110.008 701.727 108.956 702.561 107.967C703.404 106.956 704.404 106.383 705.561 106.258C706.811 106.107 707.956 106.477 708.998 107.363C709.467 107.753 709.852 108.217 710.144 108.758C710.436 109.3 710.607 109.878 710.665 110.488C710.717 111.128 710.633 111.748 710.415 112.342C710.191 112.941 709.863 113.498 709.436 114.008C708.462 115.149 707.337 115.706 706.061 115.675C704.894 115.665 703.816 115.238 702.831 114.404C701.748 113.488 701.217 112.399 701.248 111.133Z" fill="white"/>
<path d="M693.921 160.863L728.421 125.3L729.483 124.217L730.691 125.175L734.025 127.967L735.4 129.113L734.15 130.404L699.421 166.196L698.254 167.383L697.046 166.217L693.941 163.196L692.754 162.05L693.921 160.863Z" fill="white"/>
<path d="M727.075 173.111C724.377 175.418 722.919 177.652 722.7 179.819C722.492 181.996 723.471 184.345 725.637 186.861C727.564 189.111 729.637 190.902 731.846 192.236C732.096 192.371 732.325 192.496 732.533 192.611C732.742 192.72 732.872 192.808 732.929 192.881L734.783 193.631L733.679 195.298L731.679 198.34L730.929 199.423L729.783 199.027C727.809 198.361 725.242 196.517 722.075 193.506C721.643 193.058 721.21 192.616 720.783 192.173C720.351 191.725 719.919 191.246 719.492 190.736C716.835 187.652 715.387 184.366 715.137 180.881C714.804 176.1 717.085 171.611 721.992 167.402C724.335 165.376 726.726 163.876 729.158 162.902C731.585 161.918 734.038 161.501 736.512 161.652C741.372 161.918 745.387 163.897 748.554 167.59C751.773 171.329 752.971 175.251 752.137 179.361C751.439 182.47 749.554 185.35 746.471 188.006C745.762 188.616 744.992 189.22 744.158 189.819L742.887 190.715L741.908 189.548L727.471 172.756L727.075 173.111ZM743.075 172.673C741.544 170.897 739.71 169.84 737.575 169.506C736.143 169.288 734.669 169.35 733.158 169.694L742.992 181.131C743.533 180.548 743.96 179.954 744.283 179.361C744.617 178.777 744.814 178.215 744.887 177.673C744.971 177.131 744.96 176.595 744.867 176.069C744.783 175.543 744.596 175.022 744.304 174.506L744.262 174.444L744.221 174.402C744.096 174.1 743.929 173.808 743.721 173.527C743.523 173.236 743.309 172.954 743.075 172.673Z" fill="white"/>
<path d="M772.9 201.874L745.484 221.27L744.13 222.228L743.171 220.853L740.692 217.332L739.713 215.978L741.067 215.02L768.213 195.811L769.442 194.936L770.463 196.103L773.234 199.436L774.359 200.832L772.9 201.874ZM775.525 191.041C775.827 189.973 776.51 189.061 777.567 188.311C778.65 187.551 779.76 187.244 780.9 187.395C782.15 187.551 783.176 188.186 783.984 189.311C784.327 189.811 784.577 190.364 784.734 190.957C784.885 191.541 784.906 192.145 784.796 192.77C784.697 193.395 784.463 193.973 784.088 194.499C783.723 195.03 783.275 195.489 782.734 195.874C781.51 196.739 780.281 196.989 779.046 196.624C777.921 196.332 776.989 195.66 776.255 194.603C775.432 193.452 775.192 192.265 775.525 191.041Z" fill="white"/>
<path d="M788.264 238.355C788.232 237.798 788.097 237.313 787.847 236.896C787.68 236.589 787.535 236.344 787.41 236.167L787.326 236.105L787.139 235.771C786.982 235.506 786.79 235.251 786.555 235.001C786.331 234.751 786.087 234.511 785.826 234.271C785.561 234.037 785.243 233.813 784.868 233.605C784.503 233.386 784.123 233.183 783.722 233.001C783.514 232.933 783.305 232.855 783.097 232.771C782.889 232.688 782.686 232.6 782.493 232.501C781.295 232.074 780.123 231.761 778.972 231.563L759.535 243.105L758.097 243.959L757.264 242.521L755.055 238.813L754.201 237.376L755.639 236.521L784.243 219.563L785.535 218.771L786.43 220.021L788.951 223.584L789.951 225.063L788.41 225.959L785.785 227.521C786.519 227.719 787.165 227.933 787.722 228.167C790.441 229.282 792.451 230.792 793.743 232.709C793.951 232.99 794.232 233.433 794.597 234.042C795.024 234.777 795.451 235.876 795.868 237.334L796.305 239.146L794.472 239.396L790.139 239.938L788.326 240.167L788.264 238.355Z" fill="white"/>
<path d="M780.728 264.509C781.614 263.608 782.624 262.78 783.749 262.03C784.874 261.28 786.114 260.593 787.478 259.968C792.853 257.525 797.811 257.113 802.353 258.738C806.905 260.379 810.239 263.525 812.353 268.176C813.962 271.718 814.561 275.056 814.145 278.197C813.728 281.332 812.311 284.14 809.895 286.613C808.171 288.416 805.921 289.952 803.145 291.218C797.77 293.645 792.811 294.035 788.27 292.384C783.697 290.718 780.374 287.577 778.291 282.968C776.666 279.41 776.051 276.056 776.457 272.905C776.858 269.765 778.28 266.968 780.728 264.509ZM784.624 272.655C783.624 275.056 783.707 277.551 784.874 280.134C786.051 282.718 787.962 284.452 790.603 285.343C793.27 286.244 796.254 285.947 799.561 284.447C802.864 282.947 805.025 280.988 806.041 278.572C807.041 276.166 806.942 273.66 805.749 271.051C804.567 268.436 802.655 266.697 800.02 265.822C797.364 264.936 794.384 265.238 791.082 266.738C787.775 268.238 785.624 270.207 784.624 272.655Z" fill="white"/>
<path d="M42.2665 584.755C42.9852 586.614 43.3134 588.557 43.2457 590.588L57.6832 584.943L59.0998 584.38L59.7873 585.755L61.6832 589.651L62.454 591.276L60.7873 591.922L15.7665 609.568L14.2248 610.172L13.6207 608.63C13.454 608.213 13.1519 607.698 12.7248 607.088C12.2925 606.474 11.7925 605.755 11.2248 604.922C10.6519 604.088 10.1832 603.302 9.80816 602.568C9.0842 601.078 8.47483 599.828 7.97483 598.818C7.47483 597.802 7.09983 596.984 6.84983 596.359C5.36024 592.552 5.08941 588.989 6.03733 585.672C7.35503 581.015 11.0165 577.521 17.0165 575.172C18.9436 574.411 20.7977 573.88 22.579 573.588C24.3707 573.286 26.1207 573.224 27.829 573.401C29.5373 573.568 31.1519 573.995 32.6832 574.672C37.2092 576.646 40.4019 580.005 42.2665 584.755ZM36.8915 593.088C36.8342 592.198 36.7144 591.359 36.5373 590.568C36.3707 589.776 36.1415 589.01 35.8498 588.276C34.5269 584.927 32.5217 582.719 29.829 581.651C27.0634 580.536 23.7561 580.739 19.9123 582.255C16.204 583.713 14.0009 585.693 13.3082 588.193C12.7665 590.068 12.9332 592.12 13.8082 594.359C14.6415 596.453 15.6675 598.651 16.8915 600.943L36.8915 593.088Z" fill="white"/>
<path d="M40.0282 627.976C36.9032 629.643 34.9969 631.508 34.3198 633.581C33.6532 635.664 34.1011 638.169 35.674 641.101C37.075 643.711 38.7157 645.898 40.5907 647.664C40.7834 647.857 40.9709 648.028 41.1532 648.185C41.3459 648.336 41.4657 648.445 41.5073 648.518L43.1532 649.664L41.7365 651.06L39.0907 653.601L38.1323 654.497L37.0907 653.851C35.3094 652.794 33.2 650.456 30.7573 646.831C30.4344 646.289 30.1167 645.752 29.799 645.226C29.4761 644.695 29.1584 644.143 28.8407 643.56C26.9084 639.976 26.2 636.456 26.7157 632.997C27.3927 628.258 30.5802 624.362 36.2782 621.289C39.0125 619.831 41.674 618.883 44.2573 618.435C46.8511 617.992 49.3407 618.117 51.7157 618.81C56.3927 620.117 59.8927 622.924 62.2157 627.226C64.549 631.56 64.8667 635.633 63.174 639.456C61.8094 642.341 59.3407 644.752 55.7573 646.685C54.9344 647.127 54.0542 647.56 53.1115 647.976L51.6948 648.56L50.9657 647.206L40.4865 627.706L40.0282 627.976ZM55.7573 630.976C54.6427 628.903 53.0802 627.482 51.0698 626.706C49.7209 626.179 48.2677 625.929 46.7157 625.956L53.8615 639.247C54.5282 638.789 55.075 638.299 55.5073 637.789C55.9344 637.289 56.2469 636.778 56.4448 636.268C56.6532 635.768 56.7625 635.247 56.7782 634.706C56.7886 634.164 56.7157 633.607 56.549 633.039L56.5073 632.914C56.4344 632.607 56.3302 632.289 56.1948 631.956C56.0698 631.622 55.924 631.294 55.7573 630.976Z" fill="white"/>
<path d="M70.5208 704.146L106.25 674.333L107.542 673.271L108.583 674.541L114.771 681.937C118.49 686.396 120.469 690.286 120.708 693.604C121.068 697.646 119.167 701.401 115 704.875C112.833 706.677 110.651 707.989 108.458 708.812C106.26 709.646 104.083 709.927 101.917 709.666C99.7604 709.416 97.6979 708.614 95.7292 707.271C94.8125 706.646 93.8958 705.916 92.9792 705.083C92.0729 704.25 91.1979 703.317 90.3542 702.291L88.1458 699.646L75.5417 710.166L74.2708 711.229L73.1875 709.937L70.2917 706.479L69.25 705.208L70.5208 704.146ZM107.208 683.75L93.5208 695.166L95.5208 697.562C97.8229 700.328 100.063 701.875 102.229 702.208C104.339 702.51 106.74 701.547 109.438 699.312C110.354 698.552 111.089 697.802 111.646 697.062C112.214 696.328 112.594 695.677 112.792 695.104C112.984 694.536 113.063 693.974 113.021 693.416C112.896 692.448 112.526 691.349 111.917 690.125C111.302 688.906 110.401 687.578 109.208 686.146L107.208 683.75Z" fill="white"/>
<path d="M137.63 736.599C136.932 735.265 135.656 733.713 133.797 731.932C132.047 730.255 130.453 729.286 129.026 729.036C127.828 728.817 126.964 728.989 126.422 729.557C125.797 730.197 125.526 730.796 125.609 731.349C125.745 732.296 126.094 733.307 126.651 734.39C127.328 735.63 128.052 736.932 128.818 738.307C129.276 739.046 129.682 739.802 130.047 740.578C130.406 741.354 130.703 742.13 130.943 742.911C131.609 744.786 131.776 746.583 131.443 748.307C131.109 750.026 130.286 751.567 128.984 752.932C126.453 755.567 123.552 756.734 120.276 756.432C119.62 756.359 118.974 756.244 118.339 756.078C117.714 755.911 117.078 755.671 116.443 755.369C115.818 755.062 115.182 754.713 114.547 754.328C113.922 753.937 113.297 753.484 112.672 752.974C112.047 752.474 111.406 751.916 110.755 751.307C109.156 749.765 107.776 748.13 106.609 746.411C105.37 744.562 104.63 742.901 104.38 741.432L104.172 740.099L105.38 739.599L108.88 738.078L110.964 737.14L111.172 739.432C111.266 740.474 112.193 742.067 113.943 744.224C114.51 744.958 115.135 745.645 115.818 746.286C117.26 747.671 118.724 748.526 120.214 748.849C120.615 748.916 120.99 748.932 121.339 748.89C121.682 748.849 122.016 748.734 122.339 748.557C122.672 748.39 123.005 748.13 123.339 747.786C123.891 747.213 124.151 746.599 124.109 745.932C123.995 744.958 123.677 743.916 123.151 742.807C122.87 742.166 122.547 741.536 122.172 740.911C121.797 740.286 121.411 739.635 121.026 738.953C120.068 737.494 119.328 736.015 118.818 734.515C118.219 732.89 117.964 731.302 118.047 729.744C118.089 729.119 118.203 728.515 118.401 727.932C118.609 727.338 118.88 726.781 119.214 726.265C119.557 725.739 119.984 725.218 120.484 724.703C122.844 722.234 125.703 721.171 129.068 721.515C132.203 721.807 135.266 723.385 138.255 726.244C138.948 726.911 139.635 727.661 140.318 728.494C140.969 729.234 141.547 729.921 142.047 730.557L142.109 730.599L143.797 732.849L144.922 734.369L143.297 735.307L139.943 737.244L138.443 738.14L137.63 736.599Z" fill="white"/>
<path d="M165.656 752.084L144.635 778.271L143.593 779.563L142.281 778.521L138.926 775.813L137.635 774.771L138.676 773.48L159.489 747.563L160.447 746.376L161.718 747.209L165.322 749.667L166.781 750.688L165.656 752.084ZM165.197 740.98C165.197 739.844 165.598 738.766 166.406 737.751C167.239 736.724 168.229 736.136 169.385 735.98C170.619 735.787 171.77 736.12 172.843 736.98C173.327 737.37 173.723 737.829 174.031 738.355C174.333 738.886 174.52 739.459 174.593 740.084C174.661 740.709 174.593 741.329 174.385 741.938C174.187 742.537 173.885 743.099 173.468 743.626C172.52 744.792 171.406 745.37 170.114 745.355C168.958 745.386 167.874 744.995 166.864 744.188C165.749 743.303 165.197 742.23 165.197 740.98Z" fill="white"/>
<path d="M195.772 780.916C194.855 779.906 193.84 779.031 192.73 778.291C189.907 776.432 187.09 775.843 184.272 776.52C181.366 777.218 178.793 779.26 176.543 782.645C174.553 785.645 173.735 788.223 174.084 790.375C174.444 792.526 175.97 794.5 178.668 796.291C180.959 797.802 183.605 798.989 186.605 799.854C186.699 799.864 186.793 799.885 186.876 799.916C186.97 799.942 187.048 799.963 187.105 799.979C187.173 799.989 187.23 800.01 187.272 800.041C187.313 800.067 187.34 800.062 187.355 800.02L189.522 800.041L188.855 802.229L187.772 805.812L187.376 806.979L186.126 806.958C184.053 806.859 181.09 805.796 177.23 803.77C176.173 803.187 175.09 802.526 173.98 801.791C170.548 799.51 168.256 796.75 167.105 793.5C165.522 788.932 166.506 783.968 170.063 778.604C171.798 775.968 173.699 773.864 175.772 772.291C177.84 770.723 180.11 769.682 182.584 769.166C187.428 768.182 192.131 769.197 196.688 772.208C198.116 773.166 199.501 774.354 200.834 775.77C202.319 777.343 203.256 778.916 203.647 780.5L203.834 781.166L203.418 781.791L198.605 789.062L197.813 790.27L196.543 789.666L194.543 788.666L193.563 788.27L191.855 787.458L192.813 785.875L195.772 780.916Z" fill="white"/>
<path d="M208.456 811.396C208.591 810.12 208.862 808.843 209.268 807.562C209.669 806.271 210.206 804.953 210.872 803.604C213.523 798.328 217.122 794.896 221.664 793.312C226.232 791.729 230.794 792.083 235.351 794.375C238.836 796.114 241.404 798.328 243.06 801.021C244.711 803.718 245.372 806.791 245.039 810.25C244.831 812.724 244.044 815.328 242.685 818.062C240.029 823.338 236.424 826.771 231.872 828.354C227.258 829.906 222.69 829.552 218.164 827.291C214.674 825.541 212.101 823.312 210.435 820.604C208.768 817.906 208.107 814.843 208.456 811.396ZM216.622 815.271C217.341 817.771 218.976 819.651 221.518 820.916C224.06 822.192 226.633 822.338 229.247 821.354C231.883 820.396 234.018 818.291 235.643 815.041C237.268 811.791 237.711 808.916 236.976 806.416C236.237 803.916 234.591 802.031 232.039 800.75C229.482 799.458 226.893 799.307 224.268 800.291C221.654 801.25 219.539 803.354 217.914 806.604C216.289 809.854 215.857 812.745 216.622 815.271Z" fill="white"/>
<path d="M254.731 841.521L272.606 795.313L273.169 793.896L274.627 794.313L278.794 795.563L280.523 796.084L279.877 797.751L261.877 844.271L261.273 845.834L259.71 845.251L255.669 843.667L254.127 843.084L254.731 841.521Z" fill="white"/>
<path d="M283.49 843.708C283.376 842.432 283.391 841.125 283.532 839.791C283.683 838.458 283.959 837.072 284.365 835.625C285.959 829.932 288.85 825.875 293.032 823.458C297.209 821.041 301.751 820.52 306.657 821.895C310.417 822.953 313.365 824.645 315.49 826.979C317.615 829.312 318.844 832.203 319.178 835.645C319.438 838.119 319.162 840.828 318.344 843.77C316.745 849.453 313.855 853.5 309.678 855.916C305.454 858.333 300.907 858.854 296.032 857.479C292.282 856.421 289.329 854.718 287.178 852.375C285.021 850.041 283.792 847.156 283.49 843.708ZM292.219 845.979C293.412 848.286 295.37 849.822 298.094 850.583C300.829 851.343 303.391 851.005 305.782 849.562C308.183 848.119 309.87 845.656 310.844 842.166C311.829 838.666 311.73 835.75 310.553 833.416C309.355 831.114 307.376 829.572 304.615 828.791C301.865 828.015 299.292 828.354 296.907 829.812C294.516 831.26 292.829 833.729 291.844 837.229C290.87 840.729 290.995 843.645 292.219 845.979Z" fill="white"/>
<path d="M340.836 853.081C338.571 850.57 337.742 847.226 338.357 843.06C338.982 838.867 340.946 835.851 344.253 834.018C347.43 832.268 351.175 831.716 355.482 832.351C355.633 832.383 355.821 832.414 356.045 832.456C356.263 832.487 356.472 832.529 356.67 832.581C356.878 832.638 357.091 832.695 357.315 832.747C357.55 832.805 357.779 832.862 358.003 832.914C358.222 832.971 358.451 833.029 358.69 833.081C358.94 833.138 359.159 833.2 359.357 833.268L371.649 834.747L373.44 834.956L373.107 836.706L372.586 839.206L372.295 840.768L370.732 840.539L367.232 840.018C368.024 842.018 368.232 844.268 367.857 846.768C367.55 848.784 366.925 850.555 365.982 852.081C365.05 853.596 363.8 854.82 362.232 855.747C359.175 857.539 355.545 858.122 351.336 857.497C349.222 857.195 347.404 856.768 345.878 856.226C345.722 856.476 345.617 856.779 345.565 857.122C345.524 857.388 345.513 857.612 345.545 857.789C345.586 857.971 345.701 858.174 345.899 858.393C346.091 858.601 346.378 858.82 346.753 859.039C348.154 859.872 349.888 860.575 351.961 861.143C354.487 861.893 356.638 862.654 358.42 863.414C360.211 864.164 361.675 864.961 362.815 865.81C366.232 868.404 367.628 871.857 367.003 876.164C366.362 880.44 363.857 883.315 359.482 884.789C357.925 885.331 356.258 885.648 354.482 885.747C352.716 885.841 350.847 885.747 348.878 885.456C345.013 884.883 342.045 884.128 339.961 883.185C337.18 881.919 335.112 880.31 333.753 878.351C332.404 876.393 331.92 874.169 332.295 871.685C332.597 869.57 333.404 867.685 334.711 866.018C336.013 864.351 337.763 862.95 339.961 861.81C339.446 861.018 339.097 860.226 338.92 859.435C338.753 858.643 338.732 857.831 338.857 856.997C339.076 855.471 339.737 854.164 340.836 853.081ZM359.44 874.976C359.591 873.961 359.378 873.049 358.795 872.247C358.222 871.456 357.17 870.695 355.628 869.976C354.654 869.503 352.878 868.883 350.295 868.122C348.045 867.372 346.19 866.643 344.732 865.935C341.883 867.794 340.315 869.69 340.024 871.622C339.899 872.497 339.925 873.216 340.107 873.789C340.258 874.289 340.617 874.789 341.19 875.289C341.883 875.982 342.867 876.565 344.149 877.039C345.425 877.508 346.982 877.883 348.815 878.164C353.466 878.857 356.696 878.419 358.503 876.851C358.597 876.737 358.701 876.607 358.815 876.456C358.925 876.315 359.024 876.169 359.107 876.018C359.201 875.878 359.274 875.726 359.315 875.56C359.367 875.393 359.409 875.195 359.44 874.976ZM360.107 845.435C360.383 843.549 360.086 842.117 359.211 841.143C358.336 840.159 356.69 839.487 354.274 839.122C351.982 838.779 350.045 839.008 348.461 839.81C347.097 840.492 346.279 841.784 346.003 843.685C345.696 845.742 345.93 847.32 346.711 848.414C347.472 849.513 349.086 850.247 351.545 850.622C352.821 850.805 353.951 850.825 354.94 850.685C355.925 850.534 356.795 850.216 357.545 849.726C358.279 849.31 358.847 848.758 359.253 848.06C359.67 847.351 359.951 846.476 360.107 845.435Z" fill="white"/>
<path d="M399.583 838.146L397.958 871.688L397.875 873.355L396.208 873.271L391.917 873.063L390.25 872.98L390.333 871.313L391.958 838.105L392.021 836.584L393.563 836.5L397.875 836.375L399.688 836.355L399.583 838.146ZM392.708 829.396C392.042 828.48 391.74 827.386 391.813 826.105C391.865 824.787 392.313 823.724 393.146 822.917C394.031 822.032 395.167 821.62 396.542 821.688C397.151 821.719 397.734 821.855 398.292 822.105C398.859 822.355 399.354 822.709 399.771 823.167C400.198 823.641 400.51 824.183 400.708 824.792C400.901 825.391 400.979 826.021 400.938 826.688C400.865 828.177 400.302 829.302 399.25 830.063C398.333 830.771 397.234 831.094 395.958 831.021C394.542 830.953 393.458 830.412 392.708 829.396Z" fill="white"/>
<path d="M419.064 841.05C424.007 838.316 428.419 836.8 432.294 836.509C435.445 836.384 437.924 836.707 439.731 837.467C440.356 837.707 440.939 837.988 441.481 838.321C442.033 838.654 442.544 839.04 443.002 839.467C443.471 839.884 443.924 840.358 444.356 840.884C445.606 842.441 446.283 844.566 446.398 847.259L447.377 871.05L447.439 872.717L445.773 872.779L441.46 872.946L439.794 873.029L439.731 871.363L439.71 871.092C434.762 872.759 431.46 873.623 429.794 873.696L429.585 873.717C424.971 873.894 421.721 872.54 419.835 869.654C419.127 868.571 418.695 867.477 418.544 866.363C418.429 865.477 418.361 864.727 418.335 864.113C418.252 862.071 418.95 860.227 420.439 858.571C421.117 857.795 421.887 857.144 422.752 856.613C423.611 856.087 424.549 855.67 425.564 855.363C426.965 854.962 428.783 854.55 431.023 854.134C433.257 853.707 435.908 853.295 438.981 852.904L438.814 849.029C438.731 847.045 438.221 845.634 437.294 844.8C436.377 843.967 434.835 843.592 432.669 843.675C429.387 843.816 425.82 844.946 421.96 847.071L420.356 847.988L419.669 846.279L418.335 843.134L417.752 841.759L419.064 841.05ZM425.731 864.342C425.773 865.415 426.148 866.186 426.856 866.654C427.564 867.128 428.861 867.332 430.752 867.259C433.679 867.134 436.59 866.441 439.481 865.175L439.21 858.759C433.528 859.8 430.012 860.582 428.669 861.092C427.528 861.498 426.742 861.957 426.314 862.467C425.898 862.967 425.7 863.592 425.731 864.342Z" fill="white"/>
<path d="M513.522 824.526C515.465 824.058 517.439 823.985 519.439 824.318L515.772 809.276L515.418 807.797L516.855 807.297L520.98 805.922L522.71 805.401L523.126 807.131L534.585 854.11L534.96 855.714L533.335 856.11C532.902 856.209 532.355 856.433 531.689 856.776C531.033 857.125 530.256 857.526 529.355 857.985C528.449 858.433 527.611 858.792 526.835 859.068C525.262 859.599 523.939 860.037 522.855 860.381C521.783 860.729 520.923 860.985 520.272 861.151C516.298 862.11 512.736 861.912 509.585 860.547C505.152 858.62 502.173 854.526 500.647 848.276C500.147 846.25 499.871 844.334 499.814 842.526C499.762 840.709 499.934 838.964 500.335 837.297C500.725 835.631 501.361 834.089 502.251 832.672C504.819 828.453 508.574 825.735 513.522 824.526ZM521.064 830.964C520.173 830.912 519.324 830.912 518.522 830.964C517.715 831.021 516.928 831.146 516.168 831.339C512.668 832.188 510.199 833.881 508.772 836.422C507.298 839.021 507.048 842.328 508.022 846.339C508.965 850.214 510.637 852.662 513.043 853.672C514.819 854.464 516.876 854.578 519.21 854.006C521.402 853.479 523.715 852.756 526.147 851.839L521.064 830.964Z" fill="white"/>
<path d="M543.966 820.102C547.831 815.966 551.565 813.164 555.174 811.706C558.133 810.623 560.591 810.159 562.549 810.31C563.201 810.352 563.841 810.445 564.466 810.581C565.102 810.722 565.706 810.93 566.279 811.206C566.846 811.472 567.414 811.784 567.987 812.143C569.638 813.227 570.935 815.034 571.883 817.56L580.133 839.893L580.716 841.456L579.154 842.039L575.112 843.539L573.549 844.102L572.966 842.539L572.862 842.289C568.68 845.414 565.799 847.268 564.216 847.852L564.029 847.914C559.695 849.513 556.185 849.227 553.508 847.06C552.492 846.242 551.758 845.326 551.299 844.31C550.898 843.508 550.591 842.82 550.383 842.248C549.674 840.331 549.773 838.362 550.674 836.331C551.091 835.388 551.628 834.534 552.279 833.768C552.93 832.992 553.685 832.3 554.549 831.685C555.768 830.883 557.383 829.93 559.383 828.831C561.383 827.737 563.768 826.529 566.549 825.206L565.216 821.581C564.518 819.706 563.602 818.518 562.466 818.018C561.341 817.518 559.763 817.643 557.737 818.393C554.654 819.534 551.602 821.706 548.57 824.914L547.32 826.289L546.154 824.873L543.904 822.31L542.945 821.185L543.966 820.102ZM557.487 840.206C557.846 841.206 558.435 841.826 559.258 842.06C560.091 842.284 561.393 842.07 563.174 841.414C565.924 840.404 568.471 838.841 570.82 836.727L568.591 830.706C563.518 833.472 560.414 835.305 559.279 836.206C558.32 836.93 557.716 837.602 557.466 838.227C557.216 838.841 557.221 839.498 557.487 840.206Z" fill="white"/>
<path d="M639.204 770.205C642.538 775.595 643.173 780.496 641.121 784.913L659.579 796.767L661.725 798.246L659.538 799.621L655.413 802.163L654.496 802.725L653.6 802.184L636.163 790.955C635.647 791.361 635.09 791.778 634.496 792.205C633.913 792.621 633.298 793.028 632.663 793.413L629.725 795.225L639.079 810.309L639.954 811.725L638.538 812.6L634.704 814.996L633.309 815.85L632.434 814.434L607.934 774.871L607.059 773.455L608.454 772.6L616.642 767.517C621.548 764.475 625.658 763.028 628.975 763.163C632.986 763.33 636.397 765.679 639.204 770.205ZM617.371 775.267L626.059 789.288L628.725 787.642C631.736 785.783 633.6 783.824 634.309 781.767C635.001 779.85 634.454 777.444 632.663 774.538C631.897 773.304 631.085 772.382 630.225 771.767C629.376 771.158 628.47 770.824 627.496 770.767C626.527 770.715 625.434 770.929 624.225 771.413C623.548 771.679 622.866 771.996 622.184 772.371C621.507 772.746 620.788 773.163 620.038 773.621L617.371 775.267Z" fill="white"/>
<path d="M673.22 768.596C675.428 771.346 677.605 772.867 679.761 773.159C681.928 773.44 684.308 772.544 686.907 770.471C689.225 768.612 691.084 766.607 692.491 764.451C692.642 764.232 692.772 764.013 692.886 763.805C693.011 763.586 693.1 763.445 693.157 763.388L693.991 761.555L695.616 762.721L698.595 764.846L699.657 765.617L699.199 766.763C698.475 768.695 696.558 771.195 693.449 774.263C692.991 774.68 692.522 775.096 692.053 775.513C691.579 775.93 691.084 776.346 690.574 776.763C687.392 779.305 684.058 780.648 680.574 780.784C675.793 780.966 671.381 778.529 667.324 773.471C665.397 771.055 663.98 768.617 663.074 766.159C662.173 763.69 661.845 761.221 662.095 758.763C662.511 753.93 664.626 749.987 668.428 746.93C672.277 743.846 676.225 742.784 680.282 743.742C683.376 744.55 686.199 746.534 688.741 749.701C689.324 750.44 689.913 751.232 690.511 752.076L691.324 753.346L690.136 754.305L672.866 768.159L673.22 768.596ZM673.303 752.576C671.485 754.034 670.381 755.826 669.991 757.951C669.699 759.383 669.709 760.857 670.011 762.367L681.782 752.93C681.209 752.362 680.636 751.909 680.053 751.576C679.48 751.242 678.928 751.029 678.386 750.93C677.845 750.82 677.308 750.805 676.782 750.888C676.251 750.971 675.72 751.148 675.178 751.409L675.095 751.492C674.793 751.617 674.491 751.773 674.199 751.951C673.897 752.133 673.595 752.341 673.303 752.576Z" fill="white"/>
<path d="M716.315 751.649L681.94 715.961L680.898 714.878L681.878 713.711L684.773 710.461L685.961 709.128L687.211 710.42L721.815 746.336L722.982 747.545L721.773 748.711L718.669 751.711L717.482 752.857L716.315 751.649Z" fill="white"/>
<path d="M712.527 711.512C713.96 706.043 715.902 701.803 718.361 698.803C720.434 696.428 722.361 694.84 724.152 694.033C724.751 693.757 725.361 693.533 725.986 693.366C726.611 693.189 727.236 693.074 727.861 693.033C728.486 692.991 729.132 693.001 729.798 693.053C731.798 693.21 733.814 694.168 735.84 695.928L753.777 711.595L755.027 712.699L753.923 713.949L751.09 717.199L749.986 718.47L748.736 717.366L748.527 717.178C746.345 721.918 744.699 724.923 743.59 726.199L743.465 726.345C740.423 729.819 737.204 731.241 733.819 730.616C732.543 730.397 731.454 729.949 730.548 729.283C729.829 728.772 729.236 728.314 728.777 727.908C727.236 726.564 726.376 724.777 726.194 722.553C726.1 721.527 726.152 720.522 726.361 719.533C726.569 718.548 726.913 717.585 727.382 716.637C728.048 715.345 729.001 713.741 730.236 711.824C731.475 709.897 733.001 707.694 734.819 705.22L731.902 702.658C730.402 701.355 729.038 700.751 727.798 700.845C726.564 700.944 725.23 701.814 723.798 703.449C721.647 705.923 720.007 709.293 718.882 713.553L718.444 715.345L716.757 714.658L713.548 713.47L712.152 712.949L712.527 711.512ZM734.007 722.699C734.809 723.397 735.632 723.652 736.465 723.47C737.309 723.293 738.361 722.48 739.611 721.033C741.527 718.84 743.012 716.262 744.069 713.303L739.236 709.053C736.095 713.918 734.241 717.007 733.673 718.324C733.189 719.439 732.98 720.319 733.048 720.97C733.121 721.626 733.439 722.199 734.007 722.699Z" fill="white"/>
<path d="M777.43 690.369C777.941 688.786 778.087 687.651 777.868 686.953C777.686 686.276 777.519 685.859 777.368 685.703C776.977 685.385 776.618 685.114 776.285 684.89C776.253 684.864 776.186 684.817 776.076 684.744C774.128 687.276 771.93 689.057 769.472 690.099C767.014 691.14 764.342 691.453 761.451 691.036C758.993 690.609 756.326 689.39 753.451 687.39C751.743 686.213 750.259 684.953 748.993 683.619C747.733 682.286 746.691 680.869 745.868 679.369C745.05 677.859 744.509 676.276 744.243 674.619C743.368 669.76 744.488 665.088 747.597 660.599C748.587 659.182 749.8 657.823 751.243 656.515C752.842 655.073 754.441 654.172 756.035 653.807L756.701 653.661L757.305 654.078L764.472 659.057L765.66 659.89L765.035 661.14L763.993 663.078L763.555 664.078L762.722 665.765L761.139 664.744L756.243 661.682C755.233 662.588 754.347 663.588 753.597 664.682C751.67 667.448 751.009 670.255 751.618 673.099C752.243 676.031 754.233 678.656 757.576 680.974C760.535 683.015 763.092 683.885 765.243 683.578C767.41 683.26 769.415 681.765 771.264 679.099C772.816 676.849 774.061 674.239 774.993 671.265C775.003 671.172 775.024 671.078 775.055 670.994C775.082 670.901 775.102 670.823 775.118 670.765C775.144 670.698 775.17 670.64 775.201 670.599C775.227 670.557 775.222 670.531 775.18 670.515L775.222 668.369L777.43 669.057L780.972 670.224L782.16 670.64L782.097 671.89C782.024 673.156 781.566 674.713 780.722 676.557C780.04 678.088 779.514 679.198 779.139 679.89C779.207 679.932 779.253 679.968 779.285 679.994C779.644 680.244 779.983 680.531 780.305 680.849C780.639 681.156 780.93 681.484 781.18 681.828C781.441 682.161 781.68 682.526 781.889 682.911C782.097 683.302 782.274 683.713 782.43 684.14C783.248 686.515 783.144 689.026 782.118 691.661L781.618 692.974L780.326 692.786L778.785 692.536L776.91 692.203L777.43 690.369Z" fill="white"/>
<path d="M766.257 638.989C766.439 633.354 767.397 628.791 769.132 625.301C770.632 622.525 772.173 620.551 773.757 619.385C774.272 618.984 774.814 618.63 775.382 618.322C775.955 618.02 776.538 617.781 777.132 617.614C777.731 617.437 778.361 617.291 779.028 617.176C781.017 616.885 783.189 617.38 785.548 618.656L806.507 629.968L807.965 630.76L807.173 632.239L805.132 636.031L804.34 637.489L802.882 636.697L802.653 636.572C801.554 641.687 800.611 644.979 799.819 646.447L799.715 646.635C797.517 650.692 794.699 652.796 791.257 652.947C789.955 652.989 788.793 652.791 787.778 652.343C786.944 652.01 786.267 651.697 785.736 651.406C783.934 650.437 782.694 648.885 782.028 646.76C781.71 645.775 781.543 644.781 781.528 643.781C781.517 642.77 781.632 641.739 781.882 640.697C782.246 639.296 782.819 637.525 783.611 635.385C784.392 633.249 785.397 630.76 786.632 627.926L783.215 626.072C781.465 625.13 780.002 624.843 778.819 625.218C777.627 625.593 776.517 626.734 775.486 628.635C773.918 631.541 773.059 635.192 772.903 639.593L772.882 641.426L771.069 641.156L767.694 640.697L766.215 640.489L766.257 638.989ZM789.694 645.156C790.627 645.671 791.481 645.749 792.257 645.385C793.033 645.01 793.871 643.989 794.778 642.322C796.163 639.739 797.054 636.885 797.444 633.76L791.778 630.697C789.793 636.145 788.668 639.572 788.403 640.989C788.168 642.171 788.163 643.072 788.382 643.697C788.59 644.312 789.028 644.796 789.694 645.156ZM762.382 628.593C762.231 628.874 762.101 629.135 761.986 629.385C761.877 629.624 761.814 629.822 761.798 629.989C761.788 630.156 761.772 630.301 761.757 630.426C761.746 630.541 761.767 630.645 761.819 630.739C761.861 630.838 761.903 630.916 761.944 630.968C761.986 631.025 762.069 631.083 762.194 631.135L763.507 632.218L762.361 633.51L760.861 635.26L759.778 636.572L758.569 635.468C757.153 634.275 756.351 632.864 756.153 631.239C755.944 629.604 756.309 627.921 757.236 626.197C757.684 625.38 758.257 624.499 758.965 623.551C759.673 622.593 760.58 621.525 761.673 620.343C762.58 619.317 763.335 618.426 763.944 617.676C764.559 616.926 764.939 616.421 765.09 616.156C765.189 615.963 765.278 615.77 765.361 615.572C765.434 615.38 765.502 615.229 765.569 615.114C765.627 615.005 765.653 614.895 765.653 614.781C765.585 614.562 765.314 614.234 764.84 613.801L763.632 612.801L764.611 611.51L766.153 609.697L767.236 608.385L768.507 609.51C771.257 611.874 772.153 614.359 771.194 616.968C771.101 617.15 770.996 617.38 770.882 617.656C770.757 617.921 770.606 618.229 770.423 618.572C770.257 618.88 769.986 619.275 769.611 619.76C769.226 620.234 768.809 620.718 768.361 621.218C767.918 621.708 767.298 622.395 766.507 623.281C764.496 625.447 763.121 627.218 762.382 628.593Z" fill="white"/>
<path d="M808.203 607.873C806.927 607.847 805.631 607.696 804.308 607.415C802.974 607.139 801.615 606.722 800.224 606.165C794.74 603.998 791.011 600.717 789.037 596.31C787.068 591.894 787.016 587.31 788.891 582.56C790.323 578.935 792.308 576.185 794.849 574.31C797.391 572.435 800.391 571.514 803.849 571.54C806.339 571.529 808.995 572.076 811.828 573.185C817.313 575.368 821.047 578.665 823.037 583.081C824.979 587.529 825.021 592.097 823.162 596.79C821.729 600.43 819.745 603.201 817.203 605.102C814.662 606.993 811.662 607.915 808.203 607.873ZM811.349 599.415C813.766 598.456 815.495 596.659 816.537 594.019C817.589 591.383 817.516 588.805 816.308 586.29C815.11 583.764 812.828 581.831 809.453 580.498C806.078 579.165 803.177 578.972 800.745 579.915C798.318 580.863 796.573 582.665 795.516 585.331C794.464 587.988 794.537 590.571 795.745 593.081C796.953 595.613 799.245 597.54 802.62 598.873C805.995 600.206 808.907 600.389 811.349 599.415Z" fill="white"/>
<path d="M30.3184 412.604C16.7871 412.604 5.81836 423.573 5.81836 437.104C5.81836 450.636 16.7871 461.604 30.3184 461.604C43.8496 461.604 54.8184 450.636 54.8184 437.104C54.8184 423.573 43.8496 412.604 30.3184 412.604Z" fill="white"/>
<path d="M813.141 412.604C799.609 412.604 788.641 423.573 788.641 437.104C788.641 450.636 799.609 461.604 813.141 461.604C826.667 461.604 837.641 450.636 837.641 437.104C837.641 423.573 826.667 412.604 813.141 412.604Z" fill="white"/>
<path d="M147.039 322.903V569.851H168.56V322.903H147.039Z" fill="white"/>
<path d="M225.352 322.903V569.851H246.872V322.903H225.352Z" fill="white"/>
<path d="M380.926 398.752L386.217 392.398C397.504 378.643 405.264 368.763 405.264 354.299C405.264 337.013 392.212 322.903 366.462 322.903H302.254V569.851H325.889C391.509 569.851 418.322 521.169 418.322 475.659C418.322 436.497 403.504 416.039 380.926 398.752ZM323.775 343.362H363.285C378.806 343.362 383.749 349.007 383.749 356.768C383.749 364.179 379.514 371.231 373.514 378.643L323.775 439.32V343.362ZM332.238 549.388H323.775V468.247L367.165 415.685C382.686 426.268 396.092 443.2 396.092 476.013C396.092 524.341 361.874 549.388 332.238 549.388Z" fill="white"/>
<path d="M554.13 358.888C554.13 337.013 539.312 322.903 507.916 322.903H451.119V569.851H472.635V478.83L525.906 414.273C546.369 389.226 554.13 379.346 554.13 358.888ZM513.208 400.513L472.635 449.903V343.362H508.27C523.791 343.362 531.906 349.007 531.906 361.705C531.906 374.763 528.38 381.815 513.208 400.513Z" fill="white"/>
<path d="M630.676 452.372L682.535 573.028L701.936 563.148L646.197 433.674L662.072 414.273C682.535 389.226 690.296 379.346 690.296 360.648C690.296 337.013 675.478 322.903 644.082 322.903H587.285V569.851H608.801V478.83L630.676 452.372ZM608.801 449.903V343.362H644.436C659.957 343.362 668.072 349.007 668.072 361.705C668.072 374.763 664.546 381.815 649.374 400.513L608.801 449.903Z" fill="white"/>
<path d="M195.26 228.407C181.729 228.407 170.76 239.376 170.76 252.907C170.76 266.438 181.729 277.407 195.26 277.407C208.791 277.407 219.76 266.438 219.76 252.907C219.76 239.376 208.791 228.407 195.26 228.407Z" fill="white"/>
<path d="M312.764 3.39681L304.848 13.2301L304.243 13.9593L303.327 13.8343L300.327 13.2926L297.723 12.8343L299.264 10.7093L306.181 0.938477L306.702 0.0634766L307.702 0.188477L311.702 0.667643L314.702 1.00098L312.764 3.39681Z" fill="white"/>
</svg>
